%TF.GenerationSoftware,KiCad,Pcbnew,(5.1.9)-1*%
%TF.CreationDate,2021-02-28T12:15:39-08:00*%
%TF.ProjectId,namebadge,6e616d65-6261-4646-9765-2e6b69636164,v0.1*%
%TF.SameCoordinates,Original*%
%TF.FileFunction,Legend,Top*%
%TF.FilePolarity,Positive*%
%FSLAX46Y46*%
G04 Gerber Fmt 4.6, Leading zero omitted, Abs format (unit mm)*
G04 Created by KiCad (PCBNEW (5.1.9)-1) date 2021-02-28 12:15:39*
%MOMM*%
%LPD*%
G01*
G04 APERTURE LIST*
%ADD10C,0.150000*%
%ADD11C,0.120000*%
G04 APERTURE END LIST*
D10*
X63803428Y-147280380D02*
X63803428Y-147470857D01*
X64184380Y-147280380D02*
X64184380Y-147470857D01*
X64612952Y-148280380D02*
X64612952Y-147280380D01*
X65184380Y-148280380D02*
X64755809Y-147708952D01*
X65184380Y-147280380D02*
X64612952Y-147851809D01*
X65565333Y-147280380D02*
X65565333Y-147470857D01*
X65946285Y-147280380D02*
X65946285Y-147470857D01*
X67136761Y-148280380D02*
X67136761Y-147280380D01*
X67708190Y-148280380D01*
X67708190Y-147280380D01*
X68612952Y-148280380D02*
X68612952Y-147756571D01*
X68565333Y-147661333D01*
X68470095Y-147613714D01*
X68279619Y-147613714D01*
X68184380Y-147661333D01*
X68612952Y-148232761D02*
X68517714Y-148280380D01*
X68279619Y-148280380D01*
X68184380Y-148232761D01*
X68136761Y-148137523D01*
X68136761Y-148042285D01*
X68184380Y-147947047D01*
X68279619Y-147899428D01*
X68517714Y-147899428D01*
X68612952Y-147851809D01*
X69089142Y-148280380D02*
X69089142Y-147613714D01*
X69089142Y-147708952D02*
X69136761Y-147661333D01*
X69232000Y-147613714D01*
X69374857Y-147613714D01*
X69470095Y-147661333D01*
X69517714Y-147756571D01*
X69517714Y-148280380D01*
X69517714Y-147756571D02*
X69565333Y-147661333D01*
X69660571Y-147613714D01*
X69803428Y-147613714D01*
X69898666Y-147661333D01*
X69946285Y-147756571D01*
X69946285Y-148280380D01*
X70803428Y-148232761D02*
X70708190Y-148280380D01*
X70517714Y-148280380D01*
X70422476Y-148232761D01*
X70374857Y-148137523D01*
X70374857Y-147756571D01*
X70422476Y-147661333D01*
X70517714Y-147613714D01*
X70708190Y-147613714D01*
X70803428Y-147661333D01*
X70851047Y-147756571D01*
X70851047Y-147851809D01*
X70374857Y-147947047D01*
X71279619Y-148280380D02*
X71279619Y-147280380D01*
X71279619Y-147661333D02*
X71374857Y-147613714D01*
X71565333Y-147613714D01*
X71660571Y-147661333D01*
X71708190Y-147708952D01*
X71755809Y-147804190D01*
X71755809Y-148089904D01*
X71708190Y-148185142D01*
X71660571Y-148232761D01*
X71565333Y-148280380D01*
X71374857Y-148280380D01*
X71279619Y-148232761D01*
X72612952Y-148280380D02*
X72612952Y-147756571D01*
X72565333Y-147661333D01*
X72470095Y-147613714D01*
X72279619Y-147613714D01*
X72184380Y-147661333D01*
X72612952Y-148232761D02*
X72517714Y-148280380D01*
X72279619Y-148280380D01*
X72184380Y-148232761D01*
X72136761Y-148137523D01*
X72136761Y-148042285D01*
X72184380Y-147947047D01*
X72279619Y-147899428D01*
X72517714Y-147899428D01*
X72612952Y-147851809D01*
X73517714Y-148280380D02*
X73517714Y-147280380D01*
X73517714Y-148232761D02*
X73422476Y-148280380D01*
X73232000Y-148280380D01*
X73136761Y-148232761D01*
X73089142Y-148185142D01*
X73041523Y-148089904D01*
X73041523Y-147804190D01*
X73089142Y-147708952D01*
X73136761Y-147661333D01*
X73232000Y-147613714D01*
X73422476Y-147613714D01*
X73517714Y-147661333D01*
X74422476Y-147613714D02*
X74422476Y-148423238D01*
X74374857Y-148518476D01*
X74327238Y-148566095D01*
X74232000Y-148613714D01*
X74089142Y-148613714D01*
X73993904Y-148566095D01*
X74422476Y-148232761D02*
X74327238Y-148280380D01*
X74136761Y-148280380D01*
X74041523Y-148232761D01*
X73993904Y-148185142D01*
X73946285Y-148089904D01*
X73946285Y-147804190D01*
X73993904Y-147708952D01*
X74041523Y-147661333D01*
X74136761Y-147613714D01*
X74327238Y-147613714D01*
X74422476Y-147661333D01*
X75279619Y-148232761D02*
X75184380Y-148280380D01*
X74993904Y-148280380D01*
X74898666Y-148232761D01*
X74851047Y-148137523D01*
X74851047Y-147756571D01*
X74898666Y-147661333D01*
X74993904Y-147613714D01*
X75184380Y-147613714D01*
X75279619Y-147661333D01*
X75327238Y-147756571D01*
X75327238Y-147851809D01*
X74851047Y-147947047D01*
X76422476Y-147613714D02*
X76660571Y-148280380D01*
X76898666Y-147613714D01*
X77470095Y-147280380D02*
X77565333Y-147280380D01*
X77660571Y-147328000D01*
X77708190Y-147375619D01*
X77755809Y-147470857D01*
X77803428Y-147661333D01*
X77803428Y-147899428D01*
X77755809Y-148089904D01*
X77708190Y-148185142D01*
X77660571Y-148232761D01*
X77565333Y-148280380D01*
X77470095Y-148280380D01*
X77374857Y-148232761D01*
X77327238Y-148185142D01*
X77279619Y-148089904D01*
X77232000Y-147899428D01*
X77232000Y-147661333D01*
X77279619Y-147470857D01*
X77327238Y-147375619D01*
X77374857Y-147328000D01*
X77470095Y-147280380D01*
X78232000Y-148185142D02*
X78279619Y-148232761D01*
X78232000Y-148280380D01*
X78184380Y-148232761D01*
X78232000Y-148185142D01*
X78232000Y-148280380D01*
X79232000Y-148280380D02*
X78660571Y-148280380D01*
X78946285Y-148280380D02*
X78946285Y-147280380D01*
X78851047Y-147423238D01*
X78755809Y-147518476D01*
X78660571Y-147566095D01*
X83327238Y-147804190D02*
X83279619Y-147756571D01*
X83184380Y-147708952D01*
X83089142Y-147708952D01*
X82993904Y-147756571D01*
X82946285Y-147804190D01*
X82898666Y-147899428D01*
X82898666Y-147994666D01*
X82946285Y-148089904D01*
X82993904Y-148137523D01*
X83089142Y-148185142D01*
X83184380Y-148185142D01*
X83279619Y-148137523D01*
X83327238Y-148089904D01*
X83327238Y-147708952D02*
X83327238Y-148089904D01*
X83374857Y-148137523D01*
X83422476Y-148137523D01*
X83517714Y-148089904D01*
X83565333Y-147994666D01*
X83565333Y-147756571D01*
X83470095Y-147613714D01*
X83327238Y-147518476D01*
X83136761Y-147470857D01*
X82946285Y-147518476D01*
X82803428Y-147613714D01*
X82708190Y-147756571D01*
X82660571Y-147947047D01*
X82708190Y-148137523D01*
X82803428Y-148280380D01*
X82946285Y-148375619D01*
X83136761Y-148423238D01*
X83327238Y-148375619D01*
X83470095Y-148280380D01*
X83946285Y-148232761D02*
X84041523Y-148280380D01*
X84232000Y-148280380D01*
X84327238Y-148232761D01*
X84374857Y-148137523D01*
X84374857Y-148089904D01*
X84327238Y-147994666D01*
X84232000Y-147947047D01*
X84089142Y-147947047D01*
X83993904Y-147899428D01*
X83946285Y-147804190D01*
X83946285Y-147756571D01*
X83993904Y-147661333D01*
X84089142Y-147613714D01*
X84232000Y-147613714D01*
X84327238Y-147661333D01*
X84708190Y-147613714D02*
X84946285Y-148280380D01*
X85184380Y-147613714D01*
X85946285Y-148232761D02*
X85851047Y-148280380D01*
X85660571Y-148280380D01*
X85565333Y-148232761D01*
X85517714Y-148137523D01*
X85517714Y-147756571D01*
X85565333Y-147661333D01*
X85660571Y-147613714D01*
X85851047Y-147613714D01*
X85946285Y-147661333D01*
X85993904Y-147756571D01*
X85993904Y-147851809D01*
X85517714Y-147947047D01*
X86422476Y-148280380D02*
X86422476Y-147613714D01*
X86422476Y-147280380D02*
X86374857Y-147328000D01*
X86422476Y-147375619D01*
X86470095Y-147328000D01*
X86422476Y-147280380D01*
X86422476Y-147375619D01*
X86851047Y-148232761D02*
X86946285Y-148280380D01*
X87136761Y-148280380D01*
X87232000Y-148232761D01*
X87279619Y-148137523D01*
X87279619Y-148089904D01*
X87232000Y-147994666D01*
X87136761Y-147947047D01*
X86993904Y-147947047D01*
X86898666Y-147899428D01*
X86851047Y-147804190D01*
X86851047Y-147756571D01*
X86898666Y-147661333D01*
X86993904Y-147613714D01*
X87136761Y-147613714D01*
X87232000Y-147661333D01*
X87660571Y-148232761D02*
X87755809Y-148280380D01*
X87946285Y-148280380D01*
X88041523Y-148232761D01*
X88089142Y-148137523D01*
X88089142Y-148089904D01*
X88041523Y-147994666D01*
X87946285Y-147947047D01*
X87803428Y-147947047D01*
X87708190Y-147899428D01*
X87660571Y-147804190D01*
X87660571Y-147756571D01*
X87708190Y-147661333D01*
X87803428Y-147613714D01*
X87946285Y-147613714D01*
X88041523Y-147661333D01*
X89232000Y-147375619D02*
X89279619Y-147328000D01*
X89374857Y-147280380D01*
X89612952Y-147280380D01*
X89708190Y-147328000D01*
X89755809Y-147375619D01*
X89803428Y-147470857D01*
X89803428Y-147566095D01*
X89755809Y-147708952D01*
X89184380Y-148280380D01*
X89803428Y-148280380D01*
X90422476Y-147280380D02*
X90517714Y-147280380D01*
X90612952Y-147328000D01*
X90660571Y-147375619D01*
X90708190Y-147470857D01*
X90755809Y-147661333D01*
X90755809Y-147899428D01*
X90708190Y-148089904D01*
X90660571Y-148185142D01*
X90612952Y-148232761D01*
X90517714Y-148280380D01*
X90422476Y-148280380D01*
X90327238Y-148232761D01*
X90279619Y-148185142D01*
X90232000Y-148089904D01*
X90184380Y-147899428D01*
X90184380Y-147661333D01*
X90232000Y-147470857D01*
X90279619Y-147375619D01*
X90327238Y-147328000D01*
X90422476Y-147280380D01*
X91136761Y-147375619D02*
X91184380Y-147328000D01*
X91279619Y-147280380D01*
X91517714Y-147280380D01*
X91612952Y-147328000D01*
X91660571Y-147375619D01*
X91708190Y-147470857D01*
X91708190Y-147566095D01*
X91660571Y-147708952D01*
X91089142Y-148280380D01*
X91708190Y-148280380D01*
X92660571Y-148280380D02*
X92089142Y-148280380D01*
X92374857Y-148280380D02*
X92374857Y-147280380D01*
X92279619Y-147423238D01*
X92184380Y-147518476D01*
X92089142Y-147566095D01*
D11*
%TO.C,SW1*%
X69550000Y-49182000D02*
X69550000Y-51902000D01*
X69550000Y-58762000D02*
X69550000Y-61482000D01*
X57250000Y-56902000D02*
X57250000Y-53762000D01*
X57250000Y-61482000D02*
X57250000Y-58762000D01*
X68079050Y-55372000D02*
G75*
G03*
X68079050Y-55372000I-4579050J0D01*
G01*
X57250000Y-51902000D02*
X57250000Y-49182000D01*
X69550000Y-61482000D02*
X57250000Y-61482000D01*
X69550000Y-53762000D02*
X69550000Y-56902000D01*
X57250000Y-49182000D02*
X69550000Y-49182000D01*
%TO.C,R1*%
X45244000Y-68734000D02*
X45244000Y-71474000D01*
X45244000Y-71474000D02*
X51784000Y-71474000D01*
X51784000Y-71474000D02*
X51784000Y-68734000D01*
X51784000Y-68734000D02*
X45244000Y-68734000D01*
X44474000Y-70104000D02*
X45244000Y-70104000D01*
X52554000Y-70104000D02*
X51784000Y-70104000D01*
%TO.C,U1*%
X75538000Y-31920000D02*
X75538000Y-31520000D01*
X75538000Y-34520000D02*
X75538000Y-34120000D01*
X75538000Y-22520000D02*
X75538000Y-29320000D01*
X65138000Y-22520000D02*
X65538000Y-22520000D01*
X57438000Y-22520000D02*
X57838000Y-22520000D01*
X32038000Y-22520000D02*
X32438000Y-22520000D01*
X24538000Y-22520000D02*
X24838000Y-22520000D01*
X47338000Y-22520000D02*
X47738000Y-22520000D01*
X62538000Y-22520000D02*
X62938000Y-22520000D01*
X42238000Y-22520000D02*
X42638000Y-22520000D01*
X37138000Y-22520000D02*
X37538000Y-22520000D01*
X49838000Y-22520000D02*
X50238000Y-22520000D01*
X54938000Y-22520000D02*
X55338000Y-22520000D01*
X70138000Y-22520000D02*
X70538000Y-22520000D01*
X72738000Y-22520000D02*
X73138000Y-22520000D01*
X67638000Y-22520000D02*
X68038000Y-22520000D01*
X34638000Y-22520000D02*
X35038000Y-22520000D01*
X26938000Y-22520000D02*
X27338000Y-22520000D01*
X29538000Y-22520000D02*
X29938000Y-22520000D01*
X60038000Y-22520000D02*
X60438000Y-22520000D01*
X52338000Y-22520000D02*
X52738000Y-22520000D01*
X44738000Y-22520000D02*
X45138000Y-22520000D01*
X39638000Y-22520000D02*
X40038000Y-22520000D01*
X72738000Y-43520000D02*
X73138000Y-43520000D01*
X70138000Y-43520000D02*
X70538000Y-43520000D01*
X67638000Y-43520000D02*
X68038000Y-43520000D01*
X65138000Y-43520000D02*
X65538000Y-43520000D01*
X62538000Y-43520000D02*
X62938000Y-43520000D01*
X60038000Y-43520000D02*
X60438000Y-43520000D01*
X57438000Y-43520000D02*
X57838000Y-43520000D01*
X54938000Y-43520000D02*
X55338000Y-43520000D01*
X52338000Y-43520000D02*
X52738000Y-43520000D01*
X49838000Y-43520000D02*
X50238000Y-43520000D01*
X47338000Y-43520000D02*
X47738000Y-43520000D01*
X44738000Y-43520000D02*
X45138000Y-43520000D01*
X42238000Y-43520000D02*
X42638000Y-43520000D01*
X39638000Y-43520000D02*
X40038000Y-43520000D01*
X37138000Y-43520000D02*
X37538000Y-43520000D01*
X34638000Y-43520000D02*
X35038000Y-43520000D01*
X32038000Y-43520000D02*
X32438000Y-43520000D01*
X29538000Y-43520000D02*
X29938000Y-43520000D01*
X26938000Y-43520000D02*
X27338000Y-43520000D01*
X24538000Y-43520000D02*
X24838000Y-43520000D01*
X27205000Y-40513000D02*
X24538000Y-40513000D01*
X27205000Y-43520000D02*
X27205000Y-40513000D01*
X75538000Y-36720000D02*
X75538000Y-43520000D01*
X24538000Y-43520000D02*
X24538000Y-22520000D01*
%TO.C,D10*%
X56960000Y-116161500D02*
X57425000Y-116161500D01*
X54335000Y-116161500D02*
X54800000Y-116161500D01*
X54799173Y-110813685D02*
G75*
G03*
X54335170Y-116161500I1080827J-2787815D01*
G01*
X56960827Y-110813685D02*
G75*
G02*
X57424830Y-116161500I-1080827J-2787815D01*
G01*
X54799571Y-111347021D02*
G75*
G03*
X54800000Y-115856184I1080429J-2254479D01*
G01*
X56960429Y-111347021D02*
G75*
G02*
X56960000Y-115856184I-1080429J-2254479D01*
G01*
%TO.C,C14*%
X90512000Y-138922000D02*
G75*
G03*
X90512000Y-138922000I-2120000J0D01*
G01*
X90472000Y-138922000D02*
X86312000Y-138922000D01*
X90472000Y-138962000D02*
X86312000Y-138962000D01*
X90471000Y-139002000D02*
X86313000Y-139002000D01*
X90469000Y-139042000D02*
X86315000Y-139042000D01*
X90466000Y-139082000D02*
X86318000Y-139082000D01*
X90463000Y-139122000D02*
X89232000Y-139122000D01*
X87552000Y-139122000D02*
X86321000Y-139122000D01*
X90459000Y-139162000D02*
X89232000Y-139162000D01*
X87552000Y-139162000D02*
X86325000Y-139162000D01*
X90454000Y-139202000D02*
X89232000Y-139202000D01*
X87552000Y-139202000D02*
X86330000Y-139202000D01*
X90448000Y-139242000D02*
X89232000Y-139242000D01*
X87552000Y-139242000D02*
X86336000Y-139242000D01*
X90442000Y-139282000D02*
X89232000Y-139282000D01*
X87552000Y-139282000D02*
X86342000Y-139282000D01*
X90434000Y-139322000D02*
X89232000Y-139322000D01*
X87552000Y-139322000D02*
X86350000Y-139322000D01*
X90426000Y-139362000D02*
X89232000Y-139362000D01*
X87552000Y-139362000D02*
X86358000Y-139362000D01*
X90417000Y-139402000D02*
X89232000Y-139402000D01*
X87552000Y-139402000D02*
X86367000Y-139402000D01*
X90408000Y-139442000D02*
X89232000Y-139442000D01*
X87552000Y-139442000D02*
X86376000Y-139442000D01*
X90397000Y-139482000D02*
X89232000Y-139482000D01*
X87552000Y-139482000D02*
X86387000Y-139482000D01*
X90386000Y-139522000D02*
X89232000Y-139522000D01*
X87552000Y-139522000D02*
X86398000Y-139522000D01*
X90374000Y-139562000D02*
X89232000Y-139562000D01*
X87552000Y-139562000D02*
X86410000Y-139562000D01*
X90360000Y-139602000D02*
X89232000Y-139602000D01*
X87552000Y-139602000D02*
X86424000Y-139602000D01*
X90346000Y-139643000D02*
X89232000Y-139643000D01*
X87552000Y-139643000D02*
X86438000Y-139643000D01*
X90332000Y-139683000D02*
X89232000Y-139683000D01*
X87552000Y-139683000D02*
X86452000Y-139683000D01*
X90316000Y-139723000D02*
X89232000Y-139723000D01*
X87552000Y-139723000D02*
X86468000Y-139723000D01*
X90299000Y-139763000D02*
X89232000Y-139763000D01*
X87552000Y-139763000D02*
X86485000Y-139763000D01*
X90281000Y-139803000D02*
X89232000Y-139803000D01*
X87552000Y-139803000D02*
X86503000Y-139803000D01*
X90262000Y-139843000D02*
X89232000Y-139843000D01*
X87552000Y-139843000D02*
X86522000Y-139843000D01*
X90243000Y-139883000D02*
X89232000Y-139883000D01*
X87552000Y-139883000D02*
X86541000Y-139883000D01*
X90222000Y-139923000D02*
X89232000Y-139923000D01*
X87552000Y-139923000D02*
X86562000Y-139923000D01*
X90200000Y-139963000D02*
X89232000Y-139963000D01*
X87552000Y-139963000D02*
X86584000Y-139963000D01*
X90177000Y-140003000D02*
X89232000Y-140003000D01*
X87552000Y-140003000D02*
X86607000Y-140003000D01*
X90152000Y-140043000D02*
X89232000Y-140043000D01*
X87552000Y-140043000D02*
X86632000Y-140043000D01*
X90127000Y-140083000D02*
X89232000Y-140083000D01*
X87552000Y-140083000D02*
X86657000Y-140083000D01*
X90100000Y-140123000D02*
X89232000Y-140123000D01*
X87552000Y-140123000D02*
X86684000Y-140123000D01*
X90072000Y-140163000D02*
X89232000Y-140163000D01*
X87552000Y-140163000D02*
X86712000Y-140163000D01*
X90042000Y-140203000D02*
X89232000Y-140203000D01*
X87552000Y-140203000D02*
X86742000Y-140203000D01*
X90011000Y-140243000D02*
X89232000Y-140243000D01*
X87552000Y-140243000D02*
X86773000Y-140243000D01*
X89979000Y-140283000D02*
X89232000Y-140283000D01*
X87552000Y-140283000D02*
X86805000Y-140283000D01*
X89944000Y-140323000D02*
X89232000Y-140323000D01*
X87552000Y-140323000D02*
X86840000Y-140323000D01*
X89908000Y-140363000D02*
X89232000Y-140363000D01*
X87552000Y-140363000D02*
X86876000Y-140363000D01*
X89870000Y-140403000D02*
X89232000Y-140403000D01*
X87552000Y-140403000D02*
X86914000Y-140403000D01*
X89830000Y-140443000D02*
X89232000Y-140443000D01*
X87552000Y-140443000D02*
X86954000Y-140443000D01*
X89788000Y-140483000D02*
X89232000Y-140483000D01*
X87552000Y-140483000D02*
X86996000Y-140483000D01*
X89743000Y-140523000D02*
X89232000Y-140523000D01*
X87552000Y-140523000D02*
X87041000Y-140523000D01*
X89696000Y-140563000D02*
X89232000Y-140563000D01*
X87552000Y-140563000D02*
X87088000Y-140563000D01*
X89646000Y-140603000D02*
X89232000Y-140603000D01*
X87552000Y-140603000D02*
X87138000Y-140603000D01*
X89592000Y-140643000D02*
X89232000Y-140643000D01*
X87552000Y-140643000D02*
X87192000Y-140643000D01*
X89534000Y-140683000D02*
X89232000Y-140683000D01*
X87552000Y-140683000D02*
X87250000Y-140683000D01*
X89472000Y-140723000D02*
X89232000Y-140723000D01*
X87552000Y-140723000D02*
X87312000Y-140723000D01*
X89405000Y-140763000D02*
X87379000Y-140763000D01*
X89332000Y-140803000D02*
X87452000Y-140803000D01*
X89251000Y-140843000D02*
X87533000Y-140843000D01*
X89160000Y-140883000D02*
X87624000Y-140883000D01*
X89056000Y-140923000D02*
X87728000Y-140923000D01*
X88929000Y-140963000D02*
X87855000Y-140963000D01*
X88762000Y-141003000D02*
X88022000Y-141003000D01*
X89587000Y-136652199D02*
X89587000Y-137052199D01*
X89787000Y-136852199D02*
X89387000Y-136852199D01*
%TO.C,C7*%
X39712000Y-138922000D02*
G75*
G03*
X39712000Y-138922000I-2120000J0D01*
G01*
X39672000Y-138922000D02*
X35512000Y-138922000D01*
X39672000Y-138962000D02*
X35512000Y-138962000D01*
X39671000Y-139002000D02*
X35513000Y-139002000D01*
X39669000Y-139042000D02*
X35515000Y-139042000D01*
X39666000Y-139082000D02*
X35518000Y-139082000D01*
X39663000Y-139122000D02*
X38432000Y-139122000D01*
X36752000Y-139122000D02*
X35521000Y-139122000D01*
X39659000Y-139162000D02*
X38432000Y-139162000D01*
X36752000Y-139162000D02*
X35525000Y-139162000D01*
X39654000Y-139202000D02*
X38432000Y-139202000D01*
X36752000Y-139202000D02*
X35530000Y-139202000D01*
X39648000Y-139242000D02*
X38432000Y-139242000D01*
X36752000Y-139242000D02*
X35536000Y-139242000D01*
X39642000Y-139282000D02*
X38432000Y-139282000D01*
X36752000Y-139282000D02*
X35542000Y-139282000D01*
X39634000Y-139322000D02*
X38432000Y-139322000D01*
X36752000Y-139322000D02*
X35550000Y-139322000D01*
X39626000Y-139362000D02*
X38432000Y-139362000D01*
X36752000Y-139362000D02*
X35558000Y-139362000D01*
X39617000Y-139402000D02*
X38432000Y-139402000D01*
X36752000Y-139402000D02*
X35567000Y-139402000D01*
X39608000Y-139442000D02*
X38432000Y-139442000D01*
X36752000Y-139442000D02*
X35576000Y-139442000D01*
X39597000Y-139482000D02*
X38432000Y-139482000D01*
X36752000Y-139482000D02*
X35587000Y-139482000D01*
X39586000Y-139522000D02*
X38432000Y-139522000D01*
X36752000Y-139522000D02*
X35598000Y-139522000D01*
X39574000Y-139562000D02*
X38432000Y-139562000D01*
X36752000Y-139562000D02*
X35610000Y-139562000D01*
X39560000Y-139602000D02*
X38432000Y-139602000D01*
X36752000Y-139602000D02*
X35624000Y-139602000D01*
X39546000Y-139643000D02*
X38432000Y-139643000D01*
X36752000Y-139643000D02*
X35638000Y-139643000D01*
X39532000Y-139683000D02*
X38432000Y-139683000D01*
X36752000Y-139683000D02*
X35652000Y-139683000D01*
X39516000Y-139723000D02*
X38432000Y-139723000D01*
X36752000Y-139723000D02*
X35668000Y-139723000D01*
X39499000Y-139763000D02*
X38432000Y-139763000D01*
X36752000Y-139763000D02*
X35685000Y-139763000D01*
X39481000Y-139803000D02*
X38432000Y-139803000D01*
X36752000Y-139803000D02*
X35703000Y-139803000D01*
X39462000Y-139843000D02*
X38432000Y-139843000D01*
X36752000Y-139843000D02*
X35722000Y-139843000D01*
X39443000Y-139883000D02*
X38432000Y-139883000D01*
X36752000Y-139883000D02*
X35741000Y-139883000D01*
X39422000Y-139923000D02*
X38432000Y-139923000D01*
X36752000Y-139923000D02*
X35762000Y-139923000D01*
X39400000Y-139963000D02*
X38432000Y-139963000D01*
X36752000Y-139963000D02*
X35784000Y-139963000D01*
X39377000Y-140003000D02*
X38432000Y-140003000D01*
X36752000Y-140003000D02*
X35807000Y-140003000D01*
X39352000Y-140043000D02*
X38432000Y-140043000D01*
X36752000Y-140043000D02*
X35832000Y-140043000D01*
X39327000Y-140083000D02*
X38432000Y-140083000D01*
X36752000Y-140083000D02*
X35857000Y-140083000D01*
X39300000Y-140123000D02*
X38432000Y-140123000D01*
X36752000Y-140123000D02*
X35884000Y-140123000D01*
X39272000Y-140163000D02*
X38432000Y-140163000D01*
X36752000Y-140163000D02*
X35912000Y-140163000D01*
X39242000Y-140203000D02*
X38432000Y-140203000D01*
X36752000Y-140203000D02*
X35942000Y-140203000D01*
X39211000Y-140243000D02*
X38432000Y-140243000D01*
X36752000Y-140243000D02*
X35973000Y-140243000D01*
X39179000Y-140283000D02*
X38432000Y-140283000D01*
X36752000Y-140283000D02*
X36005000Y-140283000D01*
X39144000Y-140323000D02*
X38432000Y-140323000D01*
X36752000Y-140323000D02*
X36040000Y-140323000D01*
X39108000Y-140363000D02*
X38432000Y-140363000D01*
X36752000Y-140363000D02*
X36076000Y-140363000D01*
X39070000Y-140403000D02*
X38432000Y-140403000D01*
X36752000Y-140403000D02*
X36114000Y-140403000D01*
X39030000Y-140443000D02*
X38432000Y-140443000D01*
X36752000Y-140443000D02*
X36154000Y-140443000D01*
X38988000Y-140483000D02*
X38432000Y-140483000D01*
X36752000Y-140483000D02*
X36196000Y-140483000D01*
X38943000Y-140523000D02*
X38432000Y-140523000D01*
X36752000Y-140523000D02*
X36241000Y-140523000D01*
X38896000Y-140563000D02*
X38432000Y-140563000D01*
X36752000Y-140563000D02*
X36288000Y-140563000D01*
X38846000Y-140603000D02*
X38432000Y-140603000D01*
X36752000Y-140603000D02*
X36338000Y-140603000D01*
X38792000Y-140643000D02*
X38432000Y-140643000D01*
X36752000Y-140643000D02*
X36392000Y-140643000D01*
X38734000Y-140683000D02*
X38432000Y-140683000D01*
X36752000Y-140683000D02*
X36450000Y-140683000D01*
X38672000Y-140723000D02*
X38432000Y-140723000D01*
X36752000Y-140723000D02*
X36512000Y-140723000D01*
X38605000Y-140763000D02*
X36579000Y-140763000D01*
X38532000Y-140803000D02*
X36652000Y-140803000D01*
X38451000Y-140843000D02*
X36733000Y-140843000D01*
X38360000Y-140883000D02*
X36824000Y-140883000D01*
X38256000Y-140923000D02*
X36928000Y-140923000D01*
X38129000Y-140963000D02*
X37055000Y-140963000D01*
X37962000Y-141003000D02*
X37222000Y-141003000D01*
X38787000Y-136652199D02*
X38787000Y-137052199D01*
X38987000Y-136852199D02*
X38587000Y-136852199D01*
%TO.C,C12*%
X77812000Y-126222000D02*
G75*
G03*
X77812000Y-126222000I-2120000J0D01*
G01*
X77772000Y-126222000D02*
X73612000Y-126222000D01*
X77772000Y-126262000D02*
X73612000Y-126262000D01*
X77771000Y-126302000D02*
X73613000Y-126302000D01*
X77769000Y-126342000D02*
X73615000Y-126342000D01*
X77766000Y-126382000D02*
X73618000Y-126382000D01*
X77763000Y-126422000D02*
X76532000Y-126422000D01*
X74852000Y-126422000D02*
X73621000Y-126422000D01*
X77759000Y-126462000D02*
X76532000Y-126462000D01*
X74852000Y-126462000D02*
X73625000Y-126462000D01*
X77754000Y-126502000D02*
X76532000Y-126502000D01*
X74852000Y-126502000D02*
X73630000Y-126502000D01*
X77748000Y-126542000D02*
X76532000Y-126542000D01*
X74852000Y-126542000D02*
X73636000Y-126542000D01*
X77742000Y-126582000D02*
X76532000Y-126582000D01*
X74852000Y-126582000D02*
X73642000Y-126582000D01*
X77734000Y-126622000D02*
X76532000Y-126622000D01*
X74852000Y-126622000D02*
X73650000Y-126622000D01*
X77726000Y-126662000D02*
X76532000Y-126662000D01*
X74852000Y-126662000D02*
X73658000Y-126662000D01*
X77717000Y-126702000D02*
X76532000Y-126702000D01*
X74852000Y-126702000D02*
X73667000Y-126702000D01*
X77708000Y-126742000D02*
X76532000Y-126742000D01*
X74852000Y-126742000D02*
X73676000Y-126742000D01*
X77697000Y-126782000D02*
X76532000Y-126782000D01*
X74852000Y-126782000D02*
X73687000Y-126782000D01*
X77686000Y-126822000D02*
X76532000Y-126822000D01*
X74852000Y-126822000D02*
X73698000Y-126822000D01*
X77674000Y-126862000D02*
X76532000Y-126862000D01*
X74852000Y-126862000D02*
X73710000Y-126862000D01*
X77660000Y-126902000D02*
X76532000Y-126902000D01*
X74852000Y-126902000D02*
X73724000Y-126902000D01*
X77646000Y-126943000D02*
X76532000Y-126943000D01*
X74852000Y-126943000D02*
X73738000Y-126943000D01*
X77632000Y-126983000D02*
X76532000Y-126983000D01*
X74852000Y-126983000D02*
X73752000Y-126983000D01*
X77616000Y-127023000D02*
X76532000Y-127023000D01*
X74852000Y-127023000D02*
X73768000Y-127023000D01*
X77599000Y-127063000D02*
X76532000Y-127063000D01*
X74852000Y-127063000D02*
X73785000Y-127063000D01*
X77581000Y-127103000D02*
X76532000Y-127103000D01*
X74852000Y-127103000D02*
X73803000Y-127103000D01*
X77562000Y-127143000D02*
X76532000Y-127143000D01*
X74852000Y-127143000D02*
X73822000Y-127143000D01*
X77543000Y-127183000D02*
X76532000Y-127183000D01*
X74852000Y-127183000D02*
X73841000Y-127183000D01*
X77522000Y-127223000D02*
X76532000Y-127223000D01*
X74852000Y-127223000D02*
X73862000Y-127223000D01*
X77500000Y-127263000D02*
X76532000Y-127263000D01*
X74852000Y-127263000D02*
X73884000Y-127263000D01*
X77477000Y-127303000D02*
X76532000Y-127303000D01*
X74852000Y-127303000D02*
X73907000Y-127303000D01*
X77452000Y-127343000D02*
X76532000Y-127343000D01*
X74852000Y-127343000D02*
X73932000Y-127343000D01*
X77427000Y-127383000D02*
X76532000Y-127383000D01*
X74852000Y-127383000D02*
X73957000Y-127383000D01*
X77400000Y-127423000D02*
X76532000Y-127423000D01*
X74852000Y-127423000D02*
X73984000Y-127423000D01*
X77372000Y-127463000D02*
X76532000Y-127463000D01*
X74852000Y-127463000D02*
X74012000Y-127463000D01*
X77342000Y-127503000D02*
X76532000Y-127503000D01*
X74852000Y-127503000D02*
X74042000Y-127503000D01*
X77311000Y-127543000D02*
X76532000Y-127543000D01*
X74852000Y-127543000D02*
X74073000Y-127543000D01*
X77279000Y-127583000D02*
X76532000Y-127583000D01*
X74852000Y-127583000D02*
X74105000Y-127583000D01*
X77244000Y-127623000D02*
X76532000Y-127623000D01*
X74852000Y-127623000D02*
X74140000Y-127623000D01*
X77208000Y-127663000D02*
X76532000Y-127663000D01*
X74852000Y-127663000D02*
X74176000Y-127663000D01*
X77170000Y-127703000D02*
X76532000Y-127703000D01*
X74852000Y-127703000D02*
X74214000Y-127703000D01*
X77130000Y-127743000D02*
X76532000Y-127743000D01*
X74852000Y-127743000D02*
X74254000Y-127743000D01*
X77088000Y-127783000D02*
X76532000Y-127783000D01*
X74852000Y-127783000D02*
X74296000Y-127783000D01*
X77043000Y-127823000D02*
X76532000Y-127823000D01*
X74852000Y-127823000D02*
X74341000Y-127823000D01*
X76996000Y-127863000D02*
X76532000Y-127863000D01*
X74852000Y-127863000D02*
X74388000Y-127863000D01*
X76946000Y-127903000D02*
X76532000Y-127903000D01*
X74852000Y-127903000D02*
X74438000Y-127903000D01*
X76892000Y-127943000D02*
X76532000Y-127943000D01*
X74852000Y-127943000D02*
X74492000Y-127943000D01*
X76834000Y-127983000D02*
X76532000Y-127983000D01*
X74852000Y-127983000D02*
X74550000Y-127983000D01*
X76772000Y-128023000D02*
X76532000Y-128023000D01*
X74852000Y-128023000D02*
X74612000Y-128023000D01*
X76705000Y-128063000D02*
X74679000Y-128063000D01*
X76632000Y-128103000D02*
X74752000Y-128103000D01*
X76551000Y-128143000D02*
X74833000Y-128143000D01*
X76460000Y-128183000D02*
X74924000Y-128183000D01*
X76356000Y-128223000D02*
X75028000Y-128223000D01*
X76229000Y-128263000D02*
X75155000Y-128263000D01*
X76062000Y-128303000D02*
X75322000Y-128303000D01*
X76887000Y-123952199D02*
X76887000Y-124352199D01*
X77087000Y-124152199D02*
X76687000Y-124152199D01*
%TO.C,C6*%
X39712000Y-126222000D02*
G75*
G03*
X39712000Y-126222000I-2120000J0D01*
G01*
X39672000Y-126222000D02*
X35512000Y-126222000D01*
X39672000Y-126262000D02*
X35512000Y-126262000D01*
X39671000Y-126302000D02*
X35513000Y-126302000D01*
X39669000Y-126342000D02*
X35515000Y-126342000D01*
X39666000Y-126382000D02*
X35518000Y-126382000D01*
X39663000Y-126422000D02*
X38432000Y-126422000D01*
X36752000Y-126422000D02*
X35521000Y-126422000D01*
X39659000Y-126462000D02*
X38432000Y-126462000D01*
X36752000Y-126462000D02*
X35525000Y-126462000D01*
X39654000Y-126502000D02*
X38432000Y-126502000D01*
X36752000Y-126502000D02*
X35530000Y-126502000D01*
X39648000Y-126542000D02*
X38432000Y-126542000D01*
X36752000Y-126542000D02*
X35536000Y-126542000D01*
X39642000Y-126582000D02*
X38432000Y-126582000D01*
X36752000Y-126582000D02*
X35542000Y-126582000D01*
X39634000Y-126622000D02*
X38432000Y-126622000D01*
X36752000Y-126622000D02*
X35550000Y-126622000D01*
X39626000Y-126662000D02*
X38432000Y-126662000D01*
X36752000Y-126662000D02*
X35558000Y-126662000D01*
X39617000Y-126702000D02*
X38432000Y-126702000D01*
X36752000Y-126702000D02*
X35567000Y-126702000D01*
X39608000Y-126742000D02*
X38432000Y-126742000D01*
X36752000Y-126742000D02*
X35576000Y-126742000D01*
X39597000Y-126782000D02*
X38432000Y-126782000D01*
X36752000Y-126782000D02*
X35587000Y-126782000D01*
X39586000Y-126822000D02*
X38432000Y-126822000D01*
X36752000Y-126822000D02*
X35598000Y-126822000D01*
X39574000Y-126862000D02*
X38432000Y-126862000D01*
X36752000Y-126862000D02*
X35610000Y-126862000D01*
X39560000Y-126902000D02*
X38432000Y-126902000D01*
X36752000Y-126902000D02*
X35624000Y-126902000D01*
X39546000Y-126943000D02*
X38432000Y-126943000D01*
X36752000Y-126943000D02*
X35638000Y-126943000D01*
X39532000Y-126983000D02*
X38432000Y-126983000D01*
X36752000Y-126983000D02*
X35652000Y-126983000D01*
X39516000Y-127023000D02*
X38432000Y-127023000D01*
X36752000Y-127023000D02*
X35668000Y-127023000D01*
X39499000Y-127063000D02*
X38432000Y-127063000D01*
X36752000Y-127063000D02*
X35685000Y-127063000D01*
X39481000Y-127103000D02*
X38432000Y-127103000D01*
X36752000Y-127103000D02*
X35703000Y-127103000D01*
X39462000Y-127143000D02*
X38432000Y-127143000D01*
X36752000Y-127143000D02*
X35722000Y-127143000D01*
X39443000Y-127183000D02*
X38432000Y-127183000D01*
X36752000Y-127183000D02*
X35741000Y-127183000D01*
X39422000Y-127223000D02*
X38432000Y-127223000D01*
X36752000Y-127223000D02*
X35762000Y-127223000D01*
X39400000Y-127263000D02*
X38432000Y-127263000D01*
X36752000Y-127263000D02*
X35784000Y-127263000D01*
X39377000Y-127303000D02*
X38432000Y-127303000D01*
X36752000Y-127303000D02*
X35807000Y-127303000D01*
X39352000Y-127343000D02*
X38432000Y-127343000D01*
X36752000Y-127343000D02*
X35832000Y-127343000D01*
X39327000Y-127383000D02*
X38432000Y-127383000D01*
X36752000Y-127383000D02*
X35857000Y-127383000D01*
X39300000Y-127423000D02*
X38432000Y-127423000D01*
X36752000Y-127423000D02*
X35884000Y-127423000D01*
X39272000Y-127463000D02*
X38432000Y-127463000D01*
X36752000Y-127463000D02*
X35912000Y-127463000D01*
X39242000Y-127503000D02*
X38432000Y-127503000D01*
X36752000Y-127503000D02*
X35942000Y-127503000D01*
X39211000Y-127543000D02*
X38432000Y-127543000D01*
X36752000Y-127543000D02*
X35973000Y-127543000D01*
X39179000Y-127583000D02*
X38432000Y-127583000D01*
X36752000Y-127583000D02*
X36005000Y-127583000D01*
X39144000Y-127623000D02*
X38432000Y-127623000D01*
X36752000Y-127623000D02*
X36040000Y-127623000D01*
X39108000Y-127663000D02*
X38432000Y-127663000D01*
X36752000Y-127663000D02*
X36076000Y-127663000D01*
X39070000Y-127703000D02*
X38432000Y-127703000D01*
X36752000Y-127703000D02*
X36114000Y-127703000D01*
X39030000Y-127743000D02*
X38432000Y-127743000D01*
X36752000Y-127743000D02*
X36154000Y-127743000D01*
X38988000Y-127783000D02*
X38432000Y-127783000D01*
X36752000Y-127783000D02*
X36196000Y-127783000D01*
X38943000Y-127823000D02*
X38432000Y-127823000D01*
X36752000Y-127823000D02*
X36241000Y-127823000D01*
X38896000Y-127863000D02*
X38432000Y-127863000D01*
X36752000Y-127863000D02*
X36288000Y-127863000D01*
X38846000Y-127903000D02*
X38432000Y-127903000D01*
X36752000Y-127903000D02*
X36338000Y-127903000D01*
X38792000Y-127943000D02*
X38432000Y-127943000D01*
X36752000Y-127943000D02*
X36392000Y-127943000D01*
X38734000Y-127983000D02*
X38432000Y-127983000D01*
X36752000Y-127983000D02*
X36450000Y-127983000D01*
X38672000Y-128023000D02*
X38432000Y-128023000D01*
X36752000Y-128023000D02*
X36512000Y-128023000D01*
X38605000Y-128063000D02*
X36579000Y-128063000D01*
X38532000Y-128103000D02*
X36652000Y-128103000D01*
X38451000Y-128143000D02*
X36733000Y-128143000D01*
X38360000Y-128183000D02*
X36824000Y-128183000D01*
X38256000Y-128223000D02*
X36928000Y-128223000D01*
X38129000Y-128263000D02*
X37055000Y-128263000D01*
X37962000Y-128303000D02*
X37222000Y-128303000D01*
X38787000Y-123952199D02*
X38787000Y-124352199D01*
X38987000Y-124152199D02*
X38587000Y-124152199D01*
%TO.C,C10*%
X65112000Y-113522000D02*
G75*
G03*
X65112000Y-113522000I-2120000J0D01*
G01*
X65072000Y-113522000D02*
X60912000Y-113522000D01*
X65072000Y-113562000D02*
X60912000Y-113562000D01*
X65071000Y-113602000D02*
X60913000Y-113602000D01*
X65069000Y-113642000D02*
X60915000Y-113642000D01*
X65066000Y-113682000D02*
X60918000Y-113682000D01*
X65063000Y-113722000D02*
X63832000Y-113722000D01*
X62152000Y-113722000D02*
X60921000Y-113722000D01*
X65059000Y-113762000D02*
X63832000Y-113762000D01*
X62152000Y-113762000D02*
X60925000Y-113762000D01*
X65054000Y-113802000D02*
X63832000Y-113802000D01*
X62152000Y-113802000D02*
X60930000Y-113802000D01*
X65048000Y-113842000D02*
X63832000Y-113842000D01*
X62152000Y-113842000D02*
X60936000Y-113842000D01*
X65042000Y-113882000D02*
X63832000Y-113882000D01*
X62152000Y-113882000D02*
X60942000Y-113882000D01*
X65034000Y-113922000D02*
X63832000Y-113922000D01*
X62152000Y-113922000D02*
X60950000Y-113922000D01*
X65026000Y-113962000D02*
X63832000Y-113962000D01*
X62152000Y-113962000D02*
X60958000Y-113962000D01*
X65017000Y-114002000D02*
X63832000Y-114002000D01*
X62152000Y-114002000D02*
X60967000Y-114002000D01*
X65008000Y-114042000D02*
X63832000Y-114042000D01*
X62152000Y-114042000D02*
X60976000Y-114042000D01*
X64997000Y-114082000D02*
X63832000Y-114082000D01*
X62152000Y-114082000D02*
X60987000Y-114082000D01*
X64986000Y-114122000D02*
X63832000Y-114122000D01*
X62152000Y-114122000D02*
X60998000Y-114122000D01*
X64974000Y-114162000D02*
X63832000Y-114162000D01*
X62152000Y-114162000D02*
X61010000Y-114162000D01*
X64960000Y-114202000D02*
X63832000Y-114202000D01*
X62152000Y-114202000D02*
X61024000Y-114202000D01*
X64946000Y-114243000D02*
X63832000Y-114243000D01*
X62152000Y-114243000D02*
X61038000Y-114243000D01*
X64932000Y-114283000D02*
X63832000Y-114283000D01*
X62152000Y-114283000D02*
X61052000Y-114283000D01*
X64916000Y-114323000D02*
X63832000Y-114323000D01*
X62152000Y-114323000D02*
X61068000Y-114323000D01*
X64899000Y-114363000D02*
X63832000Y-114363000D01*
X62152000Y-114363000D02*
X61085000Y-114363000D01*
X64881000Y-114403000D02*
X63832000Y-114403000D01*
X62152000Y-114403000D02*
X61103000Y-114403000D01*
X64862000Y-114443000D02*
X63832000Y-114443000D01*
X62152000Y-114443000D02*
X61122000Y-114443000D01*
X64843000Y-114483000D02*
X63832000Y-114483000D01*
X62152000Y-114483000D02*
X61141000Y-114483000D01*
X64822000Y-114523000D02*
X63832000Y-114523000D01*
X62152000Y-114523000D02*
X61162000Y-114523000D01*
X64800000Y-114563000D02*
X63832000Y-114563000D01*
X62152000Y-114563000D02*
X61184000Y-114563000D01*
X64777000Y-114603000D02*
X63832000Y-114603000D01*
X62152000Y-114603000D02*
X61207000Y-114603000D01*
X64752000Y-114643000D02*
X63832000Y-114643000D01*
X62152000Y-114643000D02*
X61232000Y-114643000D01*
X64727000Y-114683000D02*
X63832000Y-114683000D01*
X62152000Y-114683000D02*
X61257000Y-114683000D01*
X64700000Y-114723000D02*
X63832000Y-114723000D01*
X62152000Y-114723000D02*
X61284000Y-114723000D01*
X64672000Y-114763000D02*
X63832000Y-114763000D01*
X62152000Y-114763000D02*
X61312000Y-114763000D01*
X64642000Y-114803000D02*
X63832000Y-114803000D01*
X62152000Y-114803000D02*
X61342000Y-114803000D01*
X64611000Y-114843000D02*
X63832000Y-114843000D01*
X62152000Y-114843000D02*
X61373000Y-114843000D01*
X64579000Y-114883000D02*
X63832000Y-114883000D01*
X62152000Y-114883000D02*
X61405000Y-114883000D01*
X64544000Y-114923000D02*
X63832000Y-114923000D01*
X62152000Y-114923000D02*
X61440000Y-114923000D01*
X64508000Y-114963000D02*
X63832000Y-114963000D01*
X62152000Y-114963000D02*
X61476000Y-114963000D01*
X64470000Y-115003000D02*
X63832000Y-115003000D01*
X62152000Y-115003000D02*
X61514000Y-115003000D01*
X64430000Y-115043000D02*
X63832000Y-115043000D01*
X62152000Y-115043000D02*
X61554000Y-115043000D01*
X64388000Y-115083000D02*
X63832000Y-115083000D01*
X62152000Y-115083000D02*
X61596000Y-115083000D01*
X64343000Y-115123000D02*
X63832000Y-115123000D01*
X62152000Y-115123000D02*
X61641000Y-115123000D01*
X64296000Y-115163000D02*
X63832000Y-115163000D01*
X62152000Y-115163000D02*
X61688000Y-115163000D01*
X64246000Y-115203000D02*
X63832000Y-115203000D01*
X62152000Y-115203000D02*
X61738000Y-115203000D01*
X64192000Y-115243000D02*
X63832000Y-115243000D01*
X62152000Y-115243000D02*
X61792000Y-115243000D01*
X64134000Y-115283000D02*
X63832000Y-115283000D01*
X62152000Y-115283000D02*
X61850000Y-115283000D01*
X64072000Y-115323000D02*
X63832000Y-115323000D01*
X62152000Y-115323000D02*
X61912000Y-115323000D01*
X64005000Y-115363000D02*
X61979000Y-115363000D01*
X63932000Y-115403000D02*
X62052000Y-115403000D01*
X63851000Y-115443000D02*
X62133000Y-115443000D01*
X63760000Y-115483000D02*
X62224000Y-115483000D01*
X63656000Y-115523000D02*
X62328000Y-115523000D01*
X63529000Y-115563000D02*
X62455000Y-115563000D01*
X63362000Y-115603000D02*
X62622000Y-115603000D01*
X64187000Y-111252199D02*
X64187000Y-111652199D01*
X64387000Y-111452199D02*
X63987000Y-111452199D01*
%TO.C,C5*%
X39712000Y-113522000D02*
G75*
G03*
X39712000Y-113522000I-2120000J0D01*
G01*
X39672000Y-113522000D02*
X35512000Y-113522000D01*
X39672000Y-113562000D02*
X35512000Y-113562000D01*
X39671000Y-113602000D02*
X35513000Y-113602000D01*
X39669000Y-113642000D02*
X35515000Y-113642000D01*
X39666000Y-113682000D02*
X35518000Y-113682000D01*
X39663000Y-113722000D02*
X38432000Y-113722000D01*
X36752000Y-113722000D02*
X35521000Y-113722000D01*
X39659000Y-113762000D02*
X38432000Y-113762000D01*
X36752000Y-113762000D02*
X35525000Y-113762000D01*
X39654000Y-113802000D02*
X38432000Y-113802000D01*
X36752000Y-113802000D02*
X35530000Y-113802000D01*
X39648000Y-113842000D02*
X38432000Y-113842000D01*
X36752000Y-113842000D02*
X35536000Y-113842000D01*
X39642000Y-113882000D02*
X38432000Y-113882000D01*
X36752000Y-113882000D02*
X35542000Y-113882000D01*
X39634000Y-113922000D02*
X38432000Y-113922000D01*
X36752000Y-113922000D02*
X35550000Y-113922000D01*
X39626000Y-113962000D02*
X38432000Y-113962000D01*
X36752000Y-113962000D02*
X35558000Y-113962000D01*
X39617000Y-114002000D02*
X38432000Y-114002000D01*
X36752000Y-114002000D02*
X35567000Y-114002000D01*
X39608000Y-114042000D02*
X38432000Y-114042000D01*
X36752000Y-114042000D02*
X35576000Y-114042000D01*
X39597000Y-114082000D02*
X38432000Y-114082000D01*
X36752000Y-114082000D02*
X35587000Y-114082000D01*
X39586000Y-114122000D02*
X38432000Y-114122000D01*
X36752000Y-114122000D02*
X35598000Y-114122000D01*
X39574000Y-114162000D02*
X38432000Y-114162000D01*
X36752000Y-114162000D02*
X35610000Y-114162000D01*
X39560000Y-114202000D02*
X38432000Y-114202000D01*
X36752000Y-114202000D02*
X35624000Y-114202000D01*
X39546000Y-114243000D02*
X38432000Y-114243000D01*
X36752000Y-114243000D02*
X35638000Y-114243000D01*
X39532000Y-114283000D02*
X38432000Y-114283000D01*
X36752000Y-114283000D02*
X35652000Y-114283000D01*
X39516000Y-114323000D02*
X38432000Y-114323000D01*
X36752000Y-114323000D02*
X35668000Y-114323000D01*
X39499000Y-114363000D02*
X38432000Y-114363000D01*
X36752000Y-114363000D02*
X35685000Y-114363000D01*
X39481000Y-114403000D02*
X38432000Y-114403000D01*
X36752000Y-114403000D02*
X35703000Y-114403000D01*
X39462000Y-114443000D02*
X38432000Y-114443000D01*
X36752000Y-114443000D02*
X35722000Y-114443000D01*
X39443000Y-114483000D02*
X38432000Y-114483000D01*
X36752000Y-114483000D02*
X35741000Y-114483000D01*
X39422000Y-114523000D02*
X38432000Y-114523000D01*
X36752000Y-114523000D02*
X35762000Y-114523000D01*
X39400000Y-114563000D02*
X38432000Y-114563000D01*
X36752000Y-114563000D02*
X35784000Y-114563000D01*
X39377000Y-114603000D02*
X38432000Y-114603000D01*
X36752000Y-114603000D02*
X35807000Y-114603000D01*
X39352000Y-114643000D02*
X38432000Y-114643000D01*
X36752000Y-114643000D02*
X35832000Y-114643000D01*
X39327000Y-114683000D02*
X38432000Y-114683000D01*
X36752000Y-114683000D02*
X35857000Y-114683000D01*
X39300000Y-114723000D02*
X38432000Y-114723000D01*
X36752000Y-114723000D02*
X35884000Y-114723000D01*
X39272000Y-114763000D02*
X38432000Y-114763000D01*
X36752000Y-114763000D02*
X35912000Y-114763000D01*
X39242000Y-114803000D02*
X38432000Y-114803000D01*
X36752000Y-114803000D02*
X35942000Y-114803000D01*
X39211000Y-114843000D02*
X38432000Y-114843000D01*
X36752000Y-114843000D02*
X35973000Y-114843000D01*
X39179000Y-114883000D02*
X38432000Y-114883000D01*
X36752000Y-114883000D02*
X36005000Y-114883000D01*
X39144000Y-114923000D02*
X38432000Y-114923000D01*
X36752000Y-114923000D02*
X36040000Y-114923000D01*
X39108000Y-114963000D02*
X38432000Y-114963000D01*
X36752000Y-114963000D02*
X36076000Y-114963000D01*
X39070000Y-115003000D02*
X38432000Y-115003000D01*
X36752000Y-115003000D02*
X36114000Y-115003000D01*
X39030000Y-115043000D02*
X38432000Y-115043000D01*
X36752000Y-115043000D02*
X36154000Y-115043000D01*
X38988000Y-115083000D02*
X38432000Y-115083000D01*
X36752000Y-115083000D02*
X36196000Y-115083000D01*
X38943000Y-115123000D02*
X38432000Y-115123000D01*
X36752000Y-115123000D02*
X36241000Y-115123000D01*
X38896000Y-115163000D02*
X38432000Y-115163000D01*
X36752000Y-115163000D02*
X36288000Y-115163000D01*
X38846000Y-115203000D02*
X38432000Y-115203000D01*
X36752000Y-115203000D02*
X36338000Y-115203000D01*
X38792000Y-115243000D02*
X38432000Y-115243000D01*
X36752000Y-115243000D02*
X36392000Y-115243000D01*
X38734000Y-115283000D02*
X38432000Y-115283000D01*
X36752000Y-115283000D02*
X36450000Y-115283000D01*
X38672000Y-115323000D02*
X38432000Y-115323000D01*
X36752000Y-115323000D02*
X36512000Y-115323000D01*
X38605000Y-115363000D02*
X36579000Y-115363000D01*
X38532000Y-115403000D02*
X36652000Y-115403000D01*
X38451000Y-115443000D02*
X36733000Y-115443000D01*
X38360000Y-115483000D02*
X36824000Y-115483000D01*
X38256000Y-115523000D02*
X36928000Y-115523000D01*
X38129000Y-115563000D02*
X37055000Y-115563000D01*
X37962000Y-115603000D02*
X37222000Y-115603000D01*
X38787000Y-111252199D02*
X38787000Y-111652199D01*
X38987000Y-111452199D02*
X38587000Y-111452199D01*
%TO.C,C8*%
X52412000Y-100822000D02*
G75*
G03*
X52412000Y-100822000I-2120000J0D01*
G01*
X52372000Y-100822000D02*
X48212000Y-100822000D01*
X52372000Y-100862000D02*
X48212000Y-100862000D01*
X52371000Y-100902000D02*
X48213000Y-100902000D01*
X52369000Y-100942000D02*
X48215000Y-100942000D01*
X52366000Y-100982000D02*
X48218000Y-100982000D01*
X52363000Y-101022000D02*
X51132000Y-101022000D01*
X49452000Y-101022000D02*
X48221000Y-101022000D01*
X52359000Y-101062000D02*
X51132000Y-101062000D01*
X49452000Y-101062000D02*
X48225000Y-101062000D01*
X52354000Y-101102000D02*
X51132000Y-101102000D01*
X49452000Y-101102000D02*
X48230000Y-101102000D01*
X52348000Y-101142000D02*
X51132000Y-101142000D01*
X49452000Y-101142000D02*
X48236000Y-101142000D01*
X52342000Y-101182000D02*
X51132000Y-101182000D01*
X49452000Y-101182000D02*
X48242000Y-101182000D01*
X52334000Y-101222000D02*
X51132000Y-101222000D01*
X49452000Y-101222000D02*
X48250000Y-101222000D01*
X52326000Y-101262000D02*
X51132000Y-101262000D01*
X49452000Y-101262000D02*
X48258000Y-101262000D01*
X52317000Y-101302000D02*
X51132000Y-101302000D01*
X49452000Y-101302000D02*
X48267000Y-101302000D01*
X52308000Y-101342000D02*
X51132000Y-101342000D01*
X49452000Y-101342000D02*
X48276000Y-101342000D01*
X52297000Y-101382000D02*
X51132000Y-101382000D01*
X49452000Y-101382000D02*
X48287000Y-101382000D01*
X52286000Y-101422000D02*
X51132000Y-101422000D01*
X49452000Y-101422000D02*
X48298000Y-101422000D01*
X52274000Y-101462000D02*
X51132000Y-101462000D01*
X49452000Y-101462000D02*
X48310000Y-101462000D01*
X52260000Y-101502000D02*
X51132000Y-101502000D01*
X49452000Y-101502000D02*
X48324000Y-101502000D01*
X52246000Y-101543000D02*
X51132000Y-101543000D01*
X49452000Y-101543000D02*
X48338000Y-101543000D01*
X52232000Y-101583000D02*
X51132000Y-101583000D01*
X49452000Y-101583000D02*
X48352000Y-101583000D01*
X52216000Y-101623000D02*
X51132000Y-101623000D01*
X49452000Y-101623000D02*
X48368000Y-101623000D01*
X52199000Y-101663000D02*
X51132000Y-101663000D01*
X49452000Y-101663000D02*
X48385000Y-101663000D01*
X52181000Y-101703000D02*
X51132000Y-101703000D01*
X49452000Y-101703000D02*
X48403000Y-101703000D01*
X52162000Y-101743000D02*
X51132000Y-101743000D01*
X49452000Y-101743000D02*
X48422000Y-101743000D01*
X52143000Y-101783000D02*
X51132000Y-101783000D01*
X49452000Y-101783000D02*
X48441000Y-101783000D01*
X52122000Y-101823000D02*
X51132000Y-101823000D01*
X49452000Y-101823000D02*
X48462000Y-101823000D01*
X52100000Y-101863000D02*
X51132000Y-101863000D01*
X49452000Y-101863000D02*
X48484000Y-101863000D01*
X52077000Y-101903000D02*
X51132000Y-101903000D01*
X49452000Y-101903000D02*
X48507000Y-101903000D01*
X52052000Y-101943000D02*
X51132000Y-101943000D01*
X49452000Y-101943000D02*
X48532000Y-101943000D01*
X52027000Y-101983000D02*
X51132000Y-101983000D01*
X49452000Y-101983000D02*
X48557000Y-101983000D01*
X52000000Y-102023000D02*
X51132000Y-102023000D01*
X49452000Y-102023000D02*
X48584000Y-102023000D01*
X51972000Y-102063000D02*
X51132000Y-102063000D01*
X49452000Y-102063000D02*
X48612000Y-102063000D01*
X51942000Y-102103000D02*
X51132000Y-102103000D01*
X49452000Y-102103000D02*
X48642000Y-102103000D01*
X51911000Y-102143000D02*
X51132000Y-102143000D01*
X49452000Y-102143000D02*
X48673000Y-102143000D01*
X51879000Y-102183000D02*
X51132000Y-102183000D01*
X49452000Y-102183000D02*
X48705000Y-102183000D01*
X51844000Y-102223000D02*
X51132000Y-102223000D01*
X49452000Y-102223000D02*
X48740000Y-102223000D01*
X51808000Y-102263000D02*
X51132000Y-102263000D01*
X49452000Y-102263000D02*
X48776000Y-102263000D01*
X51770000Y-102303000D02*
X51132000Y-102303000D01*
X49452000Y-102303000D02*
X48814000Y-102303000D01*
X51730000Y-102343000D02*
X51132000Y-102343000D01*
X49452000Y-102343000D02*
X48854000Y-102343000D01*
X51688000Y-102383000D02*
X51132000Y-102383000D01*
X49452000Y-102383000D02*
X48896000Y-102383000D01*
X51643000Y-102423000D02*
X51132000Y-102423000D01*
X49452000Y-102423000D02*
X48941000Y-102423000D01*
X51596000Y-102463000D02*
X51132000Y-102463000D01*
X49452000Y-102463000D02*
X48988000Y-102463000D01*
X51546000Y-102503000D02*
X51132000Y-102503000D01*
X49452000Y-102503000D02*
X49038000Y-102503000D01*
X51492000Y-102543000D02*
X51132000Y-102543000D01*
X49452000Y-102543000D02*
X49092000Y-102543000D01*
X51434000Y-102583000D02*
X51132000Y-102583000D01*
X49452000Y-102583000D02*
X49150000Y-102583000D01*
X51372000Y-102623000D02*
X51132000Y-102623000D01*
X49452000Y-102623000D02*
X49212000Y-102623000D01*
X51305000Y-102663000D02*
X49279000Y-102663000D01*
X51232000Y-102703000D02*
X49352000Y-102703000D01*
X51151000Y-102743000D02*
X49433000Y-102743000D01*
X51060000Y-102783000D02*
X49524000Y-102783000D01*
X50956000Y-102823000D02*
X49628000Y-102823000D01*
X50829000Y-102863000D02*
X49755000Y-102863000D01*
X50662000Y-102903000D02*
X49922000Y-102903000D01*
X51487000Y-98552199D02*
X51487000Y-98952199D01*
X51687000Y-98752199D02*
X51287000Y-98752199D01*
%TO.C,C4*%
X39712000Y-100822000D02*
G75*
G03*
X39712000Y-100822000I-2120000J0D01*
G01*
X39672000Y-100822000D02*
X35512000Y-100822000D01*
X39672000Y-100862000D02*
X35512000Y-100862000D01*
X39671000Y-100902000D02*
X35513000Y-100902000D01*
X39669000Y-100942000D02*
X35515000Y-100942000D01*
X39666000Y-100982000D02*
X35518000Y-100982000D01*
X39663000Y-101022000D02*
X38432000Y-101022000D01*
X36752000Y-101022000D02*
X35521000Y-101022000D01*
X39659000Y-101062000D02*
X38432000Y-101062000D01*
X36752000Y-101062000D02*
X35525000Y-101062000D01*
X39654000Y-101102000D02*
X38432000Y-101102000D01*
X36752000Y-101102000D02*
X35530000Y-101102000D01*
X39648000Y-101142000D02*
X38432000Y-101142000D01*
X36752000Y-101142000D02*
X35536000Y-101142000D01*
X39642000Y-101182000D02*
X38432000Y-101182000D01*
X36752000Y-101182000D02*
X35542000Y-101182000D01*
X39634000Y-101222000D02*
X38432000Y-101222000D01*
X36752000Y-101222000D02*
X35550000Y-101222000D01*
X39626000Y-101262000D02*
X38432000Y-101262000D01*
X36752000Y-101262000D02*
X35558000Y-101262000D01*
X39617000Y-101302000D02*
X38432000Y-101302000D01*
X36752000Y-101302000D02*
X35567000Y-101302000D01*
X39608000Y-101342000D02*
X38432000Y-101342000D01*
X36752000Y-101342000D02*
X35576000Y-101342000D01*
X39597000Y-101382000D02*
X38432000Y-101382000D01*
X36752000Y-101382000D02*
X35587000Y-101382000D01*
X39586000Y-101422000D02*
X38432000Y-101422000D01*
X36752000Y-101422000D02*
X35598000Y-101422000D01*
X39574000Y-101462000D02*
X38432000Y-101462000D01*
X36752000Y-101462000D02*
X35610000Y-101462000D01*
X39560000Y-101502000D02*
X38432000Y-101502000D01*
X36752000Y-101502000D02*
X35624000Y-101502000D01*
X39546000Y-101543000D02*
X38432000Y-101543000D01*
X36752000Y-101543000D02*
X35638000Y-101543000D01*
X39532000Y-101583000D02*
X38432000Y-101583000D01*
X36752000Y-101583000D02*
X35652000Y-101583000D01*
X39516000Y-101623000D02*
X38432000Y-101623000D01*
X36752000Y-101623000D02*
X35668000Y-101623000D01*
X39499000Y-101663000D02*
X38432000Y-101663000D01*
X36752000Y-101663000D02*
X35685000Y-101663000D01*
X39481000Y-101703000D02*
X38432000Y-101703000D01*
X36752000Y-101703000D02*
X35703000Y-101703000D01*
X39462000Y-101743000D02*
X38432000Y-101743000D01*
X36752000Y-101743000D02*
X35722000Y-101743000D01*
X39443000Y-101783000D02*
X38432000Y-101783000D01*
X36752000Y-101783000D02*
X35741000Y-101783000D01*
X39422000Y-101823000D02*
X38432000Y-101823000D01*
X36752000Y-101823000D02*
X35762000Y-101823000D01*
X39400000Y-101863000D02*
X38432000Y-101863000D01*
X36752000Y-101863000D02*
X35784000Y-101863000D01*
X39377000Y-101903000D02*
X38432000Y-101903000D01*
X36752000Y-101903000D02*
X35807000Y-101903000D01*
X39352000Y-101943000D02*
X38432000Y-101943000D01*
X36752000Y-101943000D02*
X35832000Y-101943000D01*
X39327000Y-101983000D02*
X38432000Y-101983000D01*
X36752000Y-101983000D02*
X35857000Y-101983000D01*
X39300000Y-102023000D02*
X38432000Y-102023000D01*
X36752000Y-102023000D02*
X35884000Y-102023000D01*
X39272000Y-102063000D02*
X38432000Y-102063000D01*
X36752000Y-102063000D02*
X35912000Y-102063000D01*
X39242000Y-102103000D02*
X38432000Y-102103000D01*
X36752000Y-102103000D02*
X35942000Y-102103000D01*
X39211000Y-102143000D02*
X38432000Y-102143000D01*
X36752000Y-102143000D02*
X35973000Y-102143000D01*
X39179000Y-102183000D02*
X38432000Y-102183000D01*
X36752000Y-102183000D02*
X36005000Y-102183000D01*
X39144000Y-102223000D02*
X38432000Y-102223000D01*
X36752000Y-102223000D02*
X36040000Y-102223000D01*
X39108000Y-102263000D02*
X38432000Y-102263000D01*
X36752000Y-102263000D02*
X36076000Y-102263000D01*
X39070000Y-102303000D02*
X38432000Y-102303000D01*
X36752000Y-102303000D02*
X36114000Y-102303000D01*
X39030000Y-102343000D02*
X38432000Y-102343000D01*
X36752000Y-102343000D02*
X36154000Y-102343000D01*
X38988000Y-102383000D02*
X38432000Y-102383000D01*
X36752000Y-102383000D02*
X36196000Y-102383000D01*
X38943000Y-102423000D02*
X38432000Y-102423000D01*
X36752000Y-102423000D02*
X36241000Y-102423000D01*
X38896000Y-102463000D02*
X38432000Y-102463000D01*
X36752000Y-102463000D02*
X36288000Y-102463000D01*
X38846000Y-102503000D02*
X38432000Y-102503000D01*
X36752000Y-102503000D02*
X36338000Y-102503000D01*
X38792000Y-102543000D02*
X38432000Y-102543000D01*
X36752000Y-102543000D02*
X36392000Y-102543000D01*
X38734000Y-102583000D02*
X38432000Y-102583000D01*
X36752000Y-102583000D02*
X36450000Y-102583000D01*
X38672000Y-102623000D02*
X38432000Y-102623000D01*
X36752000Y-102623000D02*
X36512000Y-102623000D01*
X38605000Y-102663000D02*
X36579000Y-102663000D01*
X38532000Y-102703000D02*
X36652000Y-102703000D01*
X38451000Y-102743000D02*
X36733000Y-102743000D01*
X38360000Y-102783000D02*
X36824000Y-102783000D01*
X38256000Y-102823000D02*
X36928000Y-102823000D01*
X38129000Y-102863000D02*
X37055000Y-102863000D01*
X37962000Y-102903000D02*
X37222000Y-102903000D01*
X38787000Y-98552199D02*
X38787000Y-98952199D01*
X38987000Y-98752199D02*
X38587000Y-98752199D01*
%TO.C,C9*%
X65112000Y-88122000D02*
G75*
G03*
X65112000Y-88122000I-2120000J0D01*
G01*
X65072000Y-88122000D02*
X60912000Y-88122000D01*
X65072000Y-88162000D02*
X60912000Y-88162000D01*
X65071000Y-88202000D02*
X60913000Y-88202000D01*
X65069000Y-88242000D02*
X60915000Y-88242000D01*
X65066000Y-88282000D02*
X60918000Y-88282000D01*
X65063000Y-88322000D02*
X63832000Y-88322000D01*
X62152000Y-88322000D02*
X60921000Y-88322000D01*
X65059000Y-88362000D02*
X63832000Y-88362000D01*
X62152000Y-88362000D02*
X60925000Y-88362000D01*
X65054000Y-88402000D02*
X63832000Y-88402000D01*
X62152000Y-88402000D02*
X60930000Y-88402000D01*
X65048000Y-88442000D02*
X63832000Y-88442000D01*
X62152000Y-88442000D02*
X60936000Y-88442000D01*
X65042000Y-88482000D02*
X63832000Y-88482000D01*
X62152000Y-88482000D02*
X60942000Y-88482000D01*
X65034000Y-88522000D02*
X63832000Y-88522000D01*
X62152000Y-88522000D02*
X60950000Y-88522000D01*
X65026000Y-88562000D02*
X63832000Y-88562000D01*
X62152000Y-88562000D02*
X60958000Y-88562000D01*
X65017000Y-88602000D02*
X63832000Y-88602000D01*
X62152000Y-88602000D02*
X60967000Y-88602000D01*
X65008000Y-88642000D02*
X63832000Y-88642000D01*
X62152000Y-88642000D02*
X60976000Y-88642000D01*
X64997000Y-88682000D02*
X63832000Y-88682000D01*
X62152000Y-88682000D02*
X60987000Y-88682000D01*
X64986000Y-88722000D02*
X63832000Y-88722000D01*
X62152000Y-88722000D02*
X60998000Y-88722000D01*
X64974000Y-88762000D02*
X63832000Y-88762000D01*
X62152000Y-88762000D02*
X61010000Y-88762000D01*
X64960000Y-88802000D02*
X63832000Y-88802000D01*
X62152000Y-88802000D02*
X61024000Y-88802000D01*
X64946000Y-88843000D02*
X63832000Y-88843000D01*
X62152000Y-88843000D02*
X61038000Y-88843000D01*
X64932000Y-88883000D02*
X63832000Y-88883000D01*
X62152000Y-88883000D02*
X61052000Y-88883000D01*
X64916000Y-88923000D02*
X63832000Y-88923000D01*
X62152000Y-88923000D02*
X61068000Y-88923000D01*
X64899000Y-88963000D02*
X63832000Y-88963000D01*
X62152000Y-88963000D02*
X61085000Y-88963000D01*
X64881000Y-89003000D02*
X63832000Y-89003000D01*
X62152000Y-89003000D02*
X61103000Y-89003000D01*
X64862000Y-89043000D02*
X63832000Y-89043000D01*
X62152000Y-89043000D02*
X61122000Y-89043000D01*
X64843000Y-89083000D02*
X63832000Y-89083000D01*
X62152000Y-89083000D02*
X61141000Y-89083000D01*
X64822000Y-89123000D02*
X63832000Y-89123000D01*
X62152000Y-89123000D02*
X61162000Y-89123000D01*
X64800000Y-89163000D02*
X63832000Y-89163000D01*
X62152000Y-89163000D02*
X61184000Y-89163000D01*
X64777000Y-89203000D02*
X63832000Y-89203000D01*
X62152000Y-89203000D02*
X61207000Y-89203000D01*
X64752000Y-89243000D02*
X63832000Y-89243000D01*
X62152000Y-89243000D02*
X61232000Y-89243000D01*
X64727000Y-89283000D02*
X63832000Y-89283000D01*
X62152000Y-89283000D02*
X61257000Y-89283000D01*
X64700000Y-89323000D02*
X63832000Y-89323000D01*
X62152000Y-89323000D02*
X61284000Y-89323000D01*
X64672000Y-89363000D02*
X63832000Y-89363000D01*
X62152000Y-89363000D02*
X61312000Y-89363000D01*
X64642000Y-89403000D02*
X63832000Y-89403000D01*
X62152000Y-89403000D02*
X61342000Y-89403000D01*
X64611000Y-89443000D02*
X63832000Y-89443000D01*
X62152000Y-89443000D02*
X61373000Y-89443000D01*
X64579000Y-89483000D02*
X63832000Y-89483000D01*
X62152000Y-89483000D02*
X61405000Y-89483000D01*
X64544000Y-89523000D02*
X63832000Y-89523000D01*
X62152000Y-89523000D02*
X61440000Y-89523000D01*
X64508000Y-89563000D02*
X63832000Y-89563000D01*
X62152000Y-89563000D02*
X61476000Y-89563000D01*
X64470000Y-89603000D02*
X63832000Y-89603000D01*
X62152000Y-89603000D02*
X61514000Y-89603000D01*
X64430000Y-89643000D02*
X63832000Y-89643000D01*
X62152000Y-89643000D02*
X61554000Y-89643000D01*
X64388000Y-89683000D02*
X63832000Y-89683000D01*
X62152000Y-89683000D02*
X61596000Y-89683000D01*
X64343000Y-89723000D02*
X63832000Y-89723000D01*
X62152000Y-89723000D02*
X61641000Y-89723000D01*
X64296000Y-89763000D02*
X63832000Y-89763000D01*
X62152000Y-89763000D02*
X61688000Y-89763000D01*
X64246000Y-89803000D02*
X63832000Y-89803000D01*
X62152000Y-89803000D02*
X61738000Y-89803000D01*
X64192000Y-89843000D02*
X63832000Y-89843000D01*
X62152000Y-89843000D02*
X61792000Y-89843000D01*
X64134000Y-89883000D02*
X63832000Y-89883000D01*
X62152000Y-89883000D02*
X61850000Y-89883000D01*
X64072000Y-89923000D02*
X63832000Y-89923000D01*
X62152000Y-89923000D02*
X61912000Y-89923000D01*
X64005000Y-89963000D02*
X61979000Y-89963000D01*
X63932000Y-90003000D02*
X62052000Y-90003000D01*
X63851000Y-90043000D02*
X62133000Y-90043000D01*
X63760000Y-90083000D02*
X62224000Y-90083000D01*
X63656000Y-90123000D02*
X62328000Y-90123000D01*
X63529000Y-90163000D02*
X62455000Y-90163000D01*
X63362000Y-90203000D02*
X62622000Y-90203000D01*
X64187000Y-85852199D02*
X64187000Y-86252199D01*
X64387000Y-86052199D02*
X63987000Y-86052199D01*
%TO.C,C3*%
X39712000Y-88122000D02*
G75*
G03*
X39712000Y-88122000I-2120000J0D01*
G01*
X39672000Y-88122000D02*
X35512000Y-88122000D01*
X39672000Y-88162000D02*
X35512000Y-88162000D01*
X39671000Y-88202000D02*
X35513000Y-88202000D01*
X39669000Y-88242000D02*
X35515000Y-88242000D01*
X39666000Y-88282000D02*
X35518000Y-88282000D01*
X39663000Y-88322000D02*
X38432000Y-88322000D01*
X36752000Y-88322000D02*
X35521000Y-88322000D01*
X39659000Y-88362000D02*
X38432000Y-88362000D01*
X36752000Y-88362000D02*
X35525000Y-88362000D01*
X39654000Y-88402000D02*
X38432000Y-88402000D01*
X36752000Y-88402000D02*
X35530000Y-88402000D01*
X39648000Y-88442000D02*
X38432000Y-88442000D01*
X36752000Y-88442000D02*
X35536000Y-88442000D01*
X39642000Y-88482000D02*
X38432000Y-88482000D01*
X36752000Y-88482000D02*
X35542000Y-88482000D01*
X39634000Y-88522000D02*
X38432000Y-88522000D01*
X36752000Y-88522000D02*
X35550000Y-88522000D01*
X39626000Y-88562000D02*
X38432000Y-88562000D01*
X36752000Y-88562000D02*
X35558000Y-88562000D01*
X39617000Y-88602000D02*
X38432000Y-88602000D01*
X36752000Y-88602000D02*
X35567000Y-88602000D01*
X39608000Y-88642000D02*
X38432000Y-88642000D01*
X36752000Y-88642000D02*
X35576000Y-88642000D01*
X39597000Y-88682000D02*
X38432000Y-88682000D01*
X36752000Y-88682000D02*
X35587000Y-88682000D01*
X39586000Y-88722000D02*
X38432000Y-88722000D01*
X36752000Y-88722000D02*
X35598000Y-88722000D01*
X39574000Y-88762000D02*
X38432000Y-88762000D01*
X36752000Y-88762000D02*
X35610000Y-88762000D01*
X39560000Y-88802000D02*
X38432000Y-88802000D01*
X36752000Y-88802000D02*
X35624000Y-88802000D01*
X39546000Y-88843000D02*
X38432000Y-88843000D01*
X36752000Y-88843000D02*
X35638000Y-88843000D01*
X39532000Y-88883000D02*
X38432000Y-88883000D01*
X36752000Y-88883000D02*
X35652000Y-88883000D01*
X39516000Y-88923000D02*
X38432000Y-88923000D01*
X36752000Y-88923000D02*
X35668000Y-88923000D01*
X39499000Y-88963000D02*
X38432000Y-88963000D01*
X36752000Y-88963000D02*
X35685000Y-88963000D01*
X39481000Y-89003000D02*
X38432000Y-89003000D01*
X36752000Y-89003000D02*
X35703000Y-89003000D01*
X39462000Y-89043000D02*
X38432000Y-89043000D01*
X36752000Y-89043000D02*
X35722000Y-89043000D01*
X39443000Y-89083000D02*
X38432000Y-89083000D01*
X36752000Y-89083000D02*
X35741000Y-89083000D01*
X39422000Y-89123000D02*
X38432000Y-89123000D01*
X36752000Y-89123000D02*
X35762000Y-89123000D01*
X39400000Y-89163000D02*
X38432000Y-89163000D01*
X36752000Y-89163000D02*
X35784000Y-89163000D01*
X39377000Y-89203000D02*
X38432000Y-89203000D01*
X36752000Y-89203000D02*
X35807000Y-89203000D01*
X39352000Y-89243000D02*
X38432000Y-89243000D01*
X36752000Y-89243000D02*
X35832000Y-89243000D01*
X39327000Y-89283000D02*
X38432000Y-89283000D01*
X36752000Y-89283000D02*
X35857000Y-89283000D01*
X39300000Y-89323000D02*
X38432000Y-89323000D01*
X36752000Y-89323000D02*
X35884000Y-89323000D01*
X39272000Y-89363000D02*
X38432000Y-89363000D01*
X36752000Y-89363000D02*
X35912000Y-89363000D01*
X39242000Y-89403000D02*
X38432000Y-89403000D01*
X36752000Y-89403000D02*
X35942000Y-89403000D01*
X39211000Y-89443000D02*
X38432000Y-89443000D01*
X36752000Y-89443000D02*
X35973000Y-89443000D01*
X39179000Y-89483000D02*
X38432000Y-89483000D01*
X36752000Y-89483000D02*
X36005000Y-89483000D01*
X39144000Y-89523000D02*
X38432000Y-89523000D01*
X36752000Y-89523000D02*
X36040000Y-89523000D01*
X39108000Y-89563000D02*
X38432000Y-89563000D01*
X36752000Y-89563000D02*
X36076000Y-89563000D01*
X39070000Y-89603000D02*
X38432000Y-89603000D01*
X36752000Y-89603000D02*
X36114000Y-89603000D01*
X39030000Y-89643000D02*
X38432000Y-89643000D01*
X36752000Y-89643000D02*
X36154000Y-89643000D01*
X38988000Y-89683000D02*
X38432000Y-89683000D01*
X36752000Y-89683000D02*
X36196000Y-89683000D01*
X38943000Y-89723000D02*
X38432000Y-89723000D01*
X36752000Y-89723000D02*
X36241000Y-89723000D01*
X38896000Y-89763000D02*
X38432000Y-89763000D01*
X36752000Y-89763000D02*
X36288000Y-89763000D01*
X38846000Y-89803000D02*
X38432000Y-89803000D01*
X36752000Y-89803000D02*
X36338000Y-89803000D01*
X38792000Y-89843000D02*
X38432000Y-89843000D01*
X36752000Y-89843000D02*
X36392000Y-89843000D01*
X38734000Y-89883000D02*
X38432000Y-89883000D01*
X36752000Y-89883000D02*
X36450000Y-89883000D01*
X38672000Y-89923000D02*
X38432000Y-89923000D01*
X36752000Y-89923000D02*
X36512000Y-89923000D01*
X38605000Y-89963000D02*
X36579000Y-89963000D01*
X38532000Y-90003000D02*
X36652000Y-90003000D01*
X38451000Y-90043000D02*
X36733000Y-90043000D01*
X38360000Y-90083000D02*
X36824000Y-90083000D01*
X38256000Y-90123000D02*
X36928000Y-90123000D01*
X38129000Y-90163000D02*
X37055000Y-90163000D01*
X37962000Y-90203000D02*
X37222000Y-90203000D01*
X38787000Y-85852199D02*
X38787000Y-86252199D01*
X38987000Y-86052199D02*
X38587000Y-86052199D01*
%TO.C,C11*%
X77812000Y-75422000D02*
G75*
G03*
X77812000Y-75422000I-2120000J0D01*
G01*
X77772000Y-75422000D02*
X73612000Y-75422000D01*
X77772000Y-75462000D02*
X73612000Y-75462000D01*
X77771000Y-75502000D02*
X73613000Y-75502000D01*
X77769000Y-75542000D02*
X73615000Y-75542000D01*
X77766000Y-75582000D02*
X73618000Y-75582000D01*
X77763000Y-75622000D02*
X76532000Y-75622000D01*
X74852000Y-75622000D02*
X73621000Y-75622000D01*
X77759000Y-75662000D02*
X76532000Y-75662000D01*
X74852000Y-75662000D02*
X73625000Y-75662000D01*
X77754000Y-75702000D02*
X76532000Y-75702000D01*
X74852000Y-75702000D02*
X73630000Y-75702000D01*
X77748000Y-75742000D02*
X76532000Y-75742000D01*
X74852000Y-75742000D02*
X73636000Y-75742000D01*
X77742000Y-75782000D02*
X76532000Y-75782000D01*
X74852000Y-75782000D02*
X73642000Y-75782000D01*
X77734000Y-75822000D02*
X76532000Y-75822000D01*
X74852000Y-75822000D02*
X73650000Y-75822000D01*
X77726000Y-75862000D02*
X76532000Y-75862000D01*
X74852000Y-75862000D02*
X73658000Y-75862000D01*
X77717000Y-75902000D02*
X76532000Y-75902000D01*
X74852000Y-75902000D02*
X73667000Y-75902000D01*
X77708000Y-75942000D02*
X76532000Y-75942000D01*
X74852000Y-75942000D02*
X73676000Y-75942000D01*
X77697000Y-75982000D02*
X76532000Y-75982000D01*
X74852000Y-75982000D02*
X73687000Y-75982000D01*
X77686000Y-76022000D02*
X76532000Y-76022000D01*
X74852000Y-76022000D02*
X73698000Y-76022000D01*
X77674000Y-76062000D02*
X76532000Y-76062000D01*
X74852000Y-76062000D02*
X73710000Y-76062000D01*
X77660000Y-76102000D02*
X76532000Y-76102000D01*
X74852000Y-76102000D02*
X73724000Y-76102000D01*
X77646000Y-76143000D02*
X76532000Y-76143000D01*
X74852000Y-76143000D02*
X73738000Y-76143000D01*
X77632000Y-76183000D02*
X76532000Y-76183000D01*
X74852000Y-76183000D02*
X73752000Y-76183000D01*
X77616000Y-76223000D02*
X76532000Y-76223000D01*
X74852000Y-76223000D02*
X73768000Y-76223000D01*
X77599000Y-76263000D02*
X76532000Y-76263000D01*
X74852000Y-76263000D02*
X73785000Y-76263000D01*
X77581000Y-76303000D02*
X76532000Y-76303000D01*
X74852000Y-76303000D02*
X73803000Y-76303000D01*
X77562000Y-76343000D02*
X76532000Y-76343000D01*
X74852000Y-76343000D02*
X73822000Y-76343000D01*
X77543000Y-76383000D02*
X76532000Y-76383000D01*
X74852000Y-76383000D02*
X73841000Y-76383000D01*
X77522000Y-76423000D02*
X76532000Y-76423000D01*
X74852000Y-76423000D02*
X73862000Y-76423000D01*
X77500000Y-76463000D02*
X76532000Y-76463000D01*
X74852000Y-76463000D02*
X73884000Y-76463000D01*
X77477000Y-76503000D02*
X76532000Y-76503000D01*
X74852000Y-76503000D02*
X73907000Y-76503000D01*
X77452000Y-76543000D02*
X76532000Y-76543000D01*
X74852000Y-76543000D02*
X73932000Y-76543000D01*
X77427000Y-76583000D02*
X76532000Y-76583000D01*
X74852000Y-76583000D02*
X73957000Y-76583000D01*
X77400000Y-76623000D02*
X76532000Y-76623000D01*
X74852000Y-76623000D02*
X73984000Y-76623000D01*
X77372000Y-76663000D02*
X76532000Y-76663000D01*
X74852000Y-76663000D02*
X74012000Y-76663000D01*
X77342000Y-76703000D02*
X76532000Y-76703000D01*
X74852000Y-76703000D02*
X74042000Y-76703000D01*
X77311000Y-76743000D02*
X76532000Y-76743000D01*
X74852000Y-76743000D02*
X74073000Y-76743000D01*
X77279000Y-76783000D02*
X76532000Y-76783000D01*
X74852000Y-76783000D02*
X74105000Y-76783000D01*
X77244000Y-76823000D02*
X76532000Y-76823000D01*
X74852000Y-76823000D02*
X74140000Y-76823000D01*
X77208000Y-76863000D02*
X76532000Y-76863000D01*
X74852000Y-76863000D02*
X74176000Y-76863000D01*
X77170000Y-76903000D02*
X76532000Y-76903000D01*
X74852000Y-76903000D02*
X74214000Y-76903000D01*
X77130000Y-76943000D02*
X76532000Y-76943000D01*
X74852000Y-76943000D02*
X74254000Y-76943000D01*
X77088000Y-76983000D02*
X76532000Y-76983000D01*
X74852000Y-76983000D02*
X74296000Y-76983000D01*
X77043000Y-77023000D02*
X76532000Y-77023000D01*
X74852000Y-77023000D02*
X74341000Y-77023000D01*
X76996000Y-77063000D02*
X76532000Y-77063000D01*
X74852000Y-77063000D02*
X74388000Y-77063000D01*
X76946000Y-77103000D02*
X76532000Y-77103000D01*
X74852000Y-77103000D02*
X74438000Y-77103000D01*
X76892000Y-77143000D02*
X76532000Y-77143000D01*
X74852000Y-77143000D02*
X74492000Y-77143000D01*
X76834000Y-77183000D02*
X76532000Y-77183000D01*
X74852000Y-77183000D02*
X74550000Y-77183000D01*
X76772000Y-77223000D02*
X76532000Y-77223000D01*
X74852000Y-77223000D02*
X74612000Y-77223000D01*
X76705000Y-77263000D02*
X74679000Y-77263000D01*
X76632000Y-77303000D02*
X74752000Y-77303000D01*
X76551000Y-77343000D02*
X74833000Y-77343000D01*
X76460000Y-77383000D02*
X74924000Y-77383000D01*
X76356000Y-77423000D02*
X75028000Y-77423000D01*
X76229000Y-77463000D02*
X75155000Y-77463000D01*
X76062000Y-77503000D02*
X75322000Y-77503000D01*
X76887000Y-73152199D02*
X76887000Y-73552199D01*
X77087000Y-73352199D02*
X76687000Y-73352199D01*
%TO.C,C2*%
X39712000Y-75422000D02*
G75*
G03*
X39712000Y-75422000I-2120000J0D01*
G01*
X39672000Y-75422000D02*
X35512000Y-75422000D01*
X39672000Y-75462000D02*
X35512000Y-75462000D01*
X39671000Y-75502000D02*
X35513000Y-75502000D01*
X39669000Y-75542000D02*
X35515000Y-75542000D01*
X39666000Y-75582000D02*
X35518000Y-75582000D01*
X39663000Y-75622000D02*
X38432000Y-75622000D01*
X36752000Y-75622000D02*
X35521000Y-75622000D01*
X39659000Y-75662000D02*
X38432000Y-75662000D01*
X36752000Y-75662000D02*
X35525000Y-75662000D01*
X39654000Y-75702000D02*
X38432000Y-75702000D01*
X36752000Y-75702000D02*
X35530000Y-75702000D01*
X39648000Y-75742000D02*
X38432000Y-75742000D01*
X36752000Y-75742000D02*
X35536000Y-75742000D01*
X39642000Y-75782000D02*
X38432000Y-75782000D01*
X36752000Y-75782000D02*
X35542000Y-75782000D01*
X39634000Y-75822000D02*
X38432000Y-75822000D01*
X36752000Y-75822000D02*
X35550000Y-75822000D01*
X39626000Y-75862000D02*
X38432000Y-75862000D01*
X36752000Y-75862000D02*
X35558000Y-75862000D01*
X39617000Y-75902000D02*
X38432000Y-75902000D01*
X36752000Y-75902000D02*
X35567000Y-75902000D01*
X39608000Y-75942000D02*
X38432000Y-75942000D01*
X36752000Y-75942000D02*
X35576000Y-75942000D01*
X39597000Y-75982000D02*
X38432000Y-75982000D01*
X36752000Y-75982000D02*
X35587000Y-75982000D01*
X39586000Y-76022000D02*
X38432000Y-76022000D01*
X36752000Y-76022000D02*
X35598000Y-76022000D01*
X39574000Y-76062000D02*
X38432000Y-76062000D01*
X36752000Y-76062000D02*
X35610000Y-76062000D01*
X39560000Y-76102000D02*
X38432000Y-76102000D01*
X36752000Y-76102000D02*
X35624000Y-76102000D01*
X39546000Y-76143000D02*
X38432000Y-76143000D01*
X36752000Y-76143000D02*
X35638000Y-76143000D01*
X39532000Y-76183000D02*
X38432000Y-76183000D01*
X36752000Y-76183000D02*
X35652000Y-76183000D01*
X39516000Y-76223000D02*
X38432000Y-76223000D01*
X36752000Y-76223000D02*
X35668000Y-76223000D01*
X39499000Y-76263000D02*
X38432000Y-76263000D01*
X36752000Y-76263000D02*
X35685000Y-76263000D01*
X39481000Y-76303000D02*
X38432000Y-76303000D01*
X36752000Y-76303000D02*
X35703000Y-76303000D01*
X39462000Y-76343000D02*
X38432000Y-76343000D01*
X36752000Y-76343000D02*
X35722000Y-76343000D01*
X39443000Y-76383000D02*
X38432000Y-76383000D01*
X36752000Y-76383000D02*
X35741000Y-76383000D01*
X39422000Y-76423000D02*
X38432000Y-76423000D01*
X36752000Y-76423000D02*
X35762000Y-76423000D01*
X39400000Y-76463000D02*
X38432000Y-76463000D01*
X36752000Y-76463000D02*
X35784000Y-76463000D01*
X39377000Y-76503000D02*
X38432000Y-76503000D01*
X36752000Y-76503000D02*
X35807000Y-76503000D01*
X39352000Y-76543000D02*
X38432000Y-76543000D01*
X36752000Y-76543000D02*
X35832000Y-76543000D01*
X39327000Y-76583000D02*
X38432000Y-76583000D01*
X36752000Y-76583000D02*
X35857000Y-76583000D01*
X39300000Y-76623000D02*
X38432000Y-76623000D01*
X36752000Y-76623000D02*
X35884000Y-76623000D01*
X39272000Y-76663000D02*
X38432000Y-76663000D01*
X36752000Y-76663000D02*
X35912000Y-76663000D01*
X39242000Y-76703000D02*
X38432000Y-76703000D01*
X36752000Y-76703000D02*
X35942000Y-76703000D01*
X39211000Y-76743000D02*
X38432000Y-76743000D01*
X36752000Y-76743000D02*
X35973000Y-76743000D01*
X39179000Y-76783000D02*
X38432000Y-76783000D01*
X36752000Y-76783000D02*
X36005000Y-76783000D01*
X39144000Y-76823000D02*
X38432000Y-76823000D01*
X36752000Y-76823000D02*
X36040000Y-76823000D01*
X39108000Y-76863000D02*
X38432000Y-76863000D01*
X36752000Y-76863000D02*
X36076000Y-76863000D01*
X39070000Y-76903000D02*
X38432000Y-76903000D01*
X36752000Y-76903000D02*
X36114000Y-76903000D01*
X39030000Y-76943000D02*
X38432000Y-76943000D01*
X36752000Y-76943000D02*
X36154000Y-76943000D01*
X38988000Y-76983000D02*
X38432000Y-76983000D01*
X36752000Y-76983000D02*
X36196000Y-76983000D01*
X38943000Y-77023000D02*
X38432000Y-77023000D01*
X36752000Y-77023000D02*
X36241000Y-77023000D01*
X38896000Y-77063000D02*
X38432000Y-77063000D01*
X36752000Y-77063000D02*
X36288000Y-77063000D01*
X38846000Y-77103000D02*
X38432000Y-77103000D01*
X36752000Y-77103000D02*
X36338000Y-77103000D01*
X38792000Y-77143000D02*
X38432000Y-77143000D01*
X36752000Y-77143000D02*
X36392000Y-77143000D01*
X38734000Y-77183000D02*
X38432000Y-77183000D01*
X36752000Y-77183000D02*
X36450000Y-77183000D01*
X38672000Y-77223000D02*
X38432000Y-77223000D01*
X36752000Y-77223000D02*
X36512000Y-77223000D01*
X38605000Y-77263000D02*
X36579000Y-77263000D01*
X38532000Y-77303000D02*
X36652000Y-77303000D01*
X38451000Y-77343000D02*
X36733000Y-77343000D01*
X38360000Y-77383000D02*
X36824000Y-77383000D01*
X38256000Y-77423000D02*
X36928000Y-77423000D01*
X38129000Y-77463000D02*
X37055000Y-77463000D01*
X37962000Y-77503000D02*
X37222000Y-77503000D01*
X38787000Y-73152199D02*
X38787000Y-73552199D01*
X38987000Y-73352199D02*
X38587000Y-73352199D01*
%TO.C,C13*%
X90512000Y-62722000D02*
G75*
G03*
X90512000Y-62722000I-2120000J0D01*
G01*
X90472000Y-62722000D02*
X86312000Y-62722000D01*
X90472000Y-62762000D02*
X86312000Y-62762000D01*
X90471000Y-62802000D02*
X86313000Y-62802000D01*
X90469000Y-62842000D02*
X86315000Y-62842000D01*
X90466000Y-62882000D02*
X86318000Y-62882000D01*
X90463000Y-62922000D02*
X89232000Y-62922000D01*
X87552000Y-62922000D02*
X86321000Y-62922000D01*
X90459000Y-62962000D02*
X89232000Y-62962000D01*
X87552000Y-62962000D02*
X86325000Y-62962000D01*
X90454000Y-63002000D02*
X89232000Y-63002000D01*
X87552000Y-63002000D02*
X86330000Y-63002000D01*
X90448000Y-63042000D02*
X89232000Y-63042000D01*
X87552000Y-63042000D02*
X86336000Y-63042000D01*
X90442000Y-63082000D02*
X89232000Y-63082000D01*
X87552000Y-63082000D02*
X86342000Y-63082000D01*
X90434000Y-63122000D02*
X89232000Y-63122000D01*
X87552000Y-63122000D02*
X86350000Y-63122000D01*
X90426000Y-63162000D02*
X89232000Y-63162000D01*
X87552000Y-63162000D02*
X86358000Y-63162000D01*
X90417000Y-63202000D02*
X89232000Y-63202000D01*
X87552000Y-63202000D02*
X86367000Y-63202000D01*
X90408000Y-63242000D02*
X89232000Y-63242000D01*
X87552000Y-63242000D02*
X86376000Y-63242000D01*
X90397000Y-63282000D02*
X89232000Y-63282000D01*
X87552000Y-63282000D02*
X86387000Y-63282000D01*
X90386000Y-63322000D02*
X89232000Y-63322000D01*
X87552000Y-63322000D02*
X86398000Y-63322000D01*
X90374000Y-63362000D02*
X89232000Y-63362000D01*
X87552000Y-63362000D02*
X86410000Y-63362000D01*
X90360000Y-63402000D02*
X89232000Y-63402000D01*
X87552000Y-63402000D02*
X86424000Y-63402000D01*
X90346000Y-63443000D02*
X89232000Y-63443000D01*
X87552000Y-63443000D02*
X86438000Y-63443000D01*
X90332000Y-63483000D02*
X89232000Y-63483000D01*
X87552000Y-63483000D02*
X86452000Y-63483000D01*
X90316000Y-63523000D02*
X89232000Y-63523000D01*
X87552000Y-63523000D02*
X86468000Y-63523000D01*
X90299000Y-63563000D02*
X89232000Y-63563000D01*
X87552000Y-63563000D02*
X86485000Y-63563000D01*
X90281000Y-63603000D02*
X89232000Y-63603000D01*
X87552000Y-63603000D02*
X86503000Y-63603000D01*
X90262000Y-63643000D02*
X89232000Y-63643000D01*
X87552000Y-63643000D02*
X86522000Y-63643000D01*
X90243000Y-63683000D02*
X89232000Y-63683000D01*
X87552000Y-63683000D02*
X86541000Y-63683000D01*
X90222000Y-63723000D02*
X89232000Y-63723000D01*
X87552000Y-63723000D02*
X86562000Y-63723000D01*
X90200000Y-63763000D02*
X89232000Y-63763000D01*
X87552000Y-63763000D02*
X86584000Y-63763000D01*
X90177000Y-63803000D02*
X89232000Y-63803000D01*
X87552000Y-63803000D02*
X86607000Y-63803000D01*
X90152000Y-63843000D02*
X89232000Y-63843000D01*
X87552000Y-63843000D02*
X86632000Y-63843000D01*
X90127000Y-63883000D02*
X89232000Y-63883000D01*
X87552000Y-63883000D02*
X86657000Y-63883000D01*
X90100000Y-63923000D02*
X89232000Y-63923000D01*
X87552000Y-63923000D02*
X86684000Y-63923000D01*
X90072000Y-63963000D02*
X89232000Y-63963000D01*
X87552000Y-63963000D02*
X86712000Y-63963000D01*
X90042000Y-64003000D02*
X89232000Y-64003000D01*
X87552000Y-64003000D02*
X86742000Y-64003000D01*
X90011000Y-64043000D02*
X89232000Y-64043000D01*
X87552000Y-64043000D02*
X86773000Y-64043000D01*
X89979000Y-64083000D02*
X89232000Y-64083000D01*
X87552000Y-64083000D02*
X86805000Y-64083000D01*
X89944000Y-64123000D02*
X89232000Y-64123000D01*
X87552000Y-64123000D02*
X86840000Y-64123000D01*
X89908000Y-64163000D02*
X89232000Y-64163000D01*
X87552000Y-64163000D02*
X86876000Y-64163000D01*
X89870000Y-64203000D02*
X89232000Y-64203000D01*
X87552000Y-64203000D02*
X86914000Y-64203000D01*
X89830000Y-64243000D02*
X89232000Y-64243000D01*
X87552000Y-64243000D02*
X86954000Y-64243000D01*
X89788000Y-64283000D02*
X89232000Y-64283000D01*
X87552000Y-64283000D02*
X86996000Y-64283000D01*
X89743000Y-64323000D02*
X89232000Y-64323000D01*
X87552000Y-64323000D02*
X87041000Y-64323000D01*
X89696000Y-64363000D02*
X89232000Y-64363000D01*
X87552000Y-64363000D02*
X87088000Y-64363000D01*
X89646000Y-64403000D02*
X89232000Y-64403000D01*
X87552000Y-64403000D02*
X87138000Y-64403000D01*
X89592000Y-64443000D02*
X89232000Y-64443000D01*
X87552000Y-64443000D02*
X87192000Y-64443000D01*
X89534000Y-64483000D02*
X89232000Y-64483000D01*
X87552000Y-64483000D02*
X87250000Y-64483000D01*
X89472000Y-64523000D02*
X89232000Y-64523000D01*
X87552000Y-64523000D02*
X87312000Y-64523000D01*
X89405000Y-64563000D02*
X87379000Y-64563000D01*
X89332000Y-64603000D02*
X87452000Y-64603000D01*
X89251000Y-64643000D02*
X87533000Y-64643000D01*
X89160000Y-64683000D02*
X87624000Y-64683000D01*
X89056000Y-64723000D02*
X87728000Y-64723000D01*
X88929000Y-64763000D02*
X87855000Y-64763000D01*
X88762000Y-64803000D02*
X88022000Y-64803000D01*
X89587000Y-60452199D02*
X89587000Y-60852199D01*
X89787000Y-60652199D02*
X89387000Y-60652199D01*
%TO.C,D14*%
X82360000Y-141561500D02*
X82825000Y-141561500D01*
X79735000Y-141561500D02*
X80200000Y-141561500D01*
X80199173Y-136213685D02*
G75*
G03*
X79735170Y-141561500I1080827J-2787815D01*
G01*
X82360827Y-136213685D02*
G75*
G02*
X82824830Y-141561500I-1080827J-2787815D01*
G01*
X80199571Y-136747021D02*
G75*
G03*
X80200000Y-141256184I1080429J-2254479D01*
G01*
X82360429Y-136747021D02*
G75*
G02*
X82360000Y-141256184I-1080429J-2254479D01*
G01*
%TO.C,D7*%
X31560000Y-141561500D02*
X32025000Y-141561500D01*
X28935000Y-141561500D02*
X29400000Y-141561500D01*
X29399173Y-136213685D02*
G75*
G03*
X28935170Y-141561500I1080827J-2787815D01*
G01*
X31560827Y-136213685D02*
G75*
G02*
X32024830Y-141561500I-1080827J-2787815D01*
G01*
X29399571Y-136747021D02*
G75*
G03*
X29400000Y-141256184I1080429J-2254479D01*
G01*
X31560429Y-136747021D02*
G75*
G02*
X31560000Y-141256184I-1080429J-2254479D01*
G01*
%TO.C,D12*%
X69660000Y-128861500D02*
X70125000Y-128861500D01*
X67035000Y-128861500D02*
X67500000Y-128861500D01*
X67499173Y-123513685D02*
G75*
G03*
X67035170Y-128861500I1080827J-2787815D01*
G01*
X69660827Y-123513685D02*
G75*
G02*
X70124830Y-128861500I-1080827J-2787815D01*
G01*
X67499571Y-124047021D02*
G75*
G03*
X67500000Y-128556184I1080429J-2254479D01*
G01*
X69660429Y-124047021D02*
G75*
G02*
X69660000Y-128556184I-1080429J-2254479D01*
G01*
%TO.C,D6*%
X31560000Y-128861500D02*
X32025000Y-128861500D01*
X28935000Y-128861500D02*
X29400000Y-128861500D01*
X29399173Y-123513685D02*
G75*
G03*
X28935170Y-128861500I1080827J-2787815D01*
G01*
X31560827Y-123513685D02*
G75*
G02*
X32024830Y-128861500I-1080827J-2787815D01*
G01*
X29399571Y-124047021D02*
G75*
G03*
X29400000Y-128556184I1080429J-2254479D01*
G01*
X31560429Y-124047021D02*
G75*
G02*
X31560000Y-128556184I-1080429J-2254479D01*
G01*
%TO.C,D5*%
X31560000Y-116161500D02*
X32025000Y-116161500D01*
X28935000Y-116161500D02*
X29400000Y-116161500D01*
X29399173Y-110813685D02*
G75*
G03*
X28935170Y-116161500I1080827J-2787815D01*
G01*
X31560827Y-110813685D02*
G75*
G02*
X32024830Y-116161500I-1080827J-2787815D01*
G01*
X29399571Y-111347021D02*
G75*
G03*
X29400000Y-115856184I1080429J-2254479D01*
G01*
X31560429Y-111347021D02*
G75*
G02*
X31560000Y-115856184I-1080429J-2254479D01*
G01*
%TO.C,D8*%
X44260000Y-103461500D02*
X44725000Y-103461500D01*
X41635000Y-103461500D02*
X42100000Y-103461500D01*
X42099173Y-98113685D02*
G75*
G03*
X41635170Y-103461500I1080827J-2787815D01*
G01*
X44260827Y-98113685D02*
G75*
G02*
X44724830Y-103461500I-1080827J-2787815D01*
G01*
X42099571Y-98647021D02*
G75*
G03*
X42100000Y-103156184I1080429J-2254479D01*
G01*
X44260429Y-98647021D02*
G75*
G02*
X44260000Y-103156184I-1080429J-2254479D01*
G01*
%TO.C,D4*%
X31560000Y-103461500D02*
X32025000Y-103461500D01*
X28935000Y-103461500D02*
X29400000Y-103461500D01*
X29399173Y-98113685D02*
G75*
G03*
X28935170Y-103461500I1080827J-2787815D01*
G01*
X31560827Y-98113685D02*
G75*
G02*
X32024830Y-103461500I-1080827J-2787815D01*
G01*
X29399571Y-98647021D02*
G75*
G03*
X29400000Y-103156184I1080429J-2254479D01*
G01*
X31560429Y-98647021D02*
G75*
G02*
X31560000Y-103156184I-1080429J-2254479D01*
G01*
%TO.C,D9*%
X56960000Y-90761500D02*
X57425000Y-90761500D01*
X54335000Y-90761500D02*
X54800000Y-90761500D01*
X54799173Y-85413685D02*
G75*
G03*
X54335170Y-90761500I1080827J-2787815D01*
G01*
X56960827Y-85413685D02*
G75*
G02*
X57424830Y-90761500I-1080827J-2787815D01*
G01*
X54799571Y-85947021D02*
G75*
G03*
X54800000Y-90456184I1080429J-2254479D01*
G01*
X56960429Y-85947021D02*
G75*
G02*
X56960000Y-90456184I-1080429J-2254479D01*
G01*
%TO.C,D3*%
X31560000Y-90761500D02*
X32025000Y-90761500D01*
X28935000Y-90761500D02*
X29400000Y-90761500D01*
X29399173Y-85413685D02*
G75*
G03*
X28935170Y-90761500I1080827J-2787815D01*
G01*
X31560827Y-85413685D02*
G75*
G02*
X32024830Y-90761500I-1080827J-2787815D01*
G01*
X29399571Y-85947021D02*
G75*
G03*
X29400000Y-90456184I1080429J-2254479D01*
G01*
X31560429Y-85947021D02*
G75*
G02*
X31560000Y-90456184I-1080429J-2254479D01*
G01*
%TO.C,D11*%
X69660000Y-78061500D02*
X70125000Y-78061500D01*
X67035000Y-78061500D02*
X67500000Y-78061500D01*
X67499173Y-72713685D02*
G75*
G03*
X67035170Y-78061500I1080827J-2787815D01*
G01*
X69660827Y-72713685D02*
G75*
G02*
X70124830Y-78061500I-1080827J-2787815D01*
G01*
X67499571Y-73247021D02*
G75*
G03*
X67500000Y-77756184I1080429J-2254479D01*
G01*
X69660429Y-73247021D02*
G75*
G02*
X69660000Y-77756184I-1080429J-2254479D01*
G01*
%TO.C,D2*%
X31560000Y-78061500D02*
X32025000Y-78061500D01*
X28935000Y-78061500D02*
X29400000Y-78061500D01*
X29399173Y-72713685D02*
G75*
G03*
X28935170Y-78061500I1080827J-2787815D01*
G01*
X31560827Y-72713685D02*
G75*
G02*
X32024830Y-78061500I-1080827J-2787815D01*
G01*
X29399571Y-73247021D02*
G75*
G03*
X29400000Y-77756184I1080429J-2254479D01*
G01*
X31560429Y-73247021D02*
G75*
G02*
X31560000Y-77756184I-1080429J-2254479D01*
G01*
%TO.C,D13*%
X82360000Y-65361500D02*
X82825000Y-65361500D01*
X79735000Y-65361500D02*
X80200000Y-65361500D01*
X80199173Y-60013685D02*
G75*
G03*
X79735170Y-65361500I1080827J-2787815D01*
G01*
X82360827Y-60013685D02*
G75*
G02*
X82824830Y-65361500I-1080827J-2787815D01*
G01*
X80199571Y-60547021D02*
G75*
G03*
X80200000Y-65056184I1080429J-2254479D01*
G01*
X82360429Y-60547021D02*
G75*
G02*
X82360000Y-65056184I-1080429J-2254479D01*
G01*
%TO.C,D1*%
X28935000Y-65361500D02*
X29400000Y-65361500D01*
X31560000Y-65361500D02*
X32025000Y-65361500D01*
X31560429Y-60547021D02*
G75*
G02*
X31560000Y-65056184I-1080429J-2254479D01*
G01*
X29399571Y-60547021D02*
G75*
G03*
X29400000Y-65056184I1080429J-2254479D01*
G01*
X31560827Y-60013685D02*
G75*
G02*
X32024830Y-65361500I-1080827J-2787815D01*
G01*
X29399173Y-60013685D02*
G75*
G03*
X28935170Y-65361500I1080827J-2787815D01*
G01*
%TO.C,C1*%
X38987000Y-60652199D02*
X38587000Y-60652199D01*
X38787000Y-60452199D02*
X38787000Y-60852199D01*
X37962000Y-64803000D02*
X37222000Y-64803000D01*
X38129000Y-64763000D02*
X37055000Y-64763000D01*
X38256000Y-64723000D02*
X36928000Y-64723000D01*
X38360000Y-64683000D02*
X36824000Y-64683000D01*
X38451000Y-64643000D02*
X36733000Y-64643000D01*
X38532000Y-64603000D02*
X36652000Y-64603000D01*
X38605000Y-64563000D02*
X36579000Y-64563000D01*
X36752000Y-64523000D02*
X36512000Y-64523000D01*
X38672000Y-64523000D02*
X38432000Y-64523000D01*
X36752000Y-64483000D02*
X36450000Y-64483000D01*
X38734000Y-64483000D02*
X38432000Y-64483000D01*
X36752000Y-64443000D02*
X36392000Y-64443000D01*
X38792000Y-64443000D02*
X38432000Y-64443000D01*
X36752000Y-64403000D02*
X36338000Y-64403000D01*
X38846000Y-64403000D02*
X38432000Y-64403000D01*
X36752000Y-64363000D02*
X36288000Y-64363000D01*
X38896000Y-64363000D02*
X38432000Y-64363000D01*
X36752000Y-64323000D02*
X36241000Y-64323000D01*
X38943000Y-64323000D02*
X38432000Y-64323000D01*
X36752000Y-64283000D02*
X36196000Y-64283000D01*
X38988000Y-64283000D02*
X38432000Y-64283000D01*
X36752000Y-64243000D02*
X36154000Y-64243000D01*
X39030000Y-64243000D02*
X38432000Y-64243000D01*
X36752000Y-64203000D02*
X36114000Y-64203000D01*
X39070000Y-64203000D02*
X38432000Y-64203000D01*
X36752000Y-64163000D02*
X36076000Y-64163000D01*
X39108000Y-64163000D02*
X38432000Y-64163000D01*
X36752000Y-64123000D02*
X36040000Y-64123000D01*
X39144000Y-64123000D02*
X38432000Y-64123000D01*
X36752000Y-64083000D02*
X36005000Y-64083000D01*
X39179000Y-64083000D02*
X38432000Y-64083000D01*
X36752000Y-64043000D02*
X35973000Y-64043000D01*
X39211000Y-64043000D02*
X38432000Y-64043000D01*
X36752000Y-64003000D02*
X35942000Y-64003000D01*
X39242000Y-64003000D02*
X38432000Y-64003000D01*
X36752000Y-63963000D02*
X35912000Y-63963000D01*
X39272000Y-63963000D02*
X38432000Y-63963000D01*
X36752000Y-63923000D02*
X35884000Y-63923000D01*
X39300000Y-63923000D02*
X38432000Y-63923000D01*
X36752000Y-63883000D02*
X35857000Y-63883000D01*
X39327000Y-63883000D02*
X38432000Y-63883000D01*
X36752000Y-63843000D02*
X35832000Y-63843000D01*
X39352000Y-63843000D02*
X38432000Y-63843000D01*
X36752000Y-63803000D02*
X35807000Y-63803000D01*
X39377000Y-63803000D02*
X38432000Y-63803000D01*
X36752000Y-63763000D02*
X35784000Y-63763000D01*
X39400000Y-63763000D02*
X38432000Y-63763000D01*
X36752000Y-63723000D02*
X35762000Y-63723000D01*
X39422000Y-63723000D02*
X38432000Y-63723000D01*
X36752000Y-63683000D02*
X35741000Y-63683000D01*
X39443000Y-63683000D02*
X38432000Y-63683000D01*
X36752000Y-63643000D02*
X35722000Y-63643000D01*
X39462000Y-63643000D02*
X38432000Y-63643000D01*
X36752000Y-63603000D02*
X35703000Y-63603000D01*
X39481000Y-63603000D02*
X38432000Y-63603000D01*
X36752000Y-63563000D02*
X35685000Y-63563000D01*
X39499000Y-63563000D02*
X38432000Y-63563000D01*
X36752000Y-63523000D02*
X35668000Y-63523000D01*
X39516000Y-63523000D02*
X38432000Y-63523000D01*
X36752000Y-63483000D02*
X35652000Y-63483000D01*
X39532000Y-63483000D02*
X38432000Y-63483000D01*
X36752000Y-63443000D02*
X35638000Y-63443000D01*
X39546000Y-63443000D02*
X38432000Y-63443000D01*
X36752000Y-63402000D02*
X35624000Y-63402000D01*
X39560000Y-63402000D02*
X38432000Y-63402000D01*
X36752000Y-63362000D02*
X35610000Y-63362000D01*
X39574000Y-63362000D02*
X38432000Y-63362000D01*
X36752000Y-63322000D02*
X35598000Y-63322000D01*
X39586000Y-63322000D02*
X38432000Y-63322000D01*
X36752000Y-63282000D02*
X35587000Y-63282000D01*
X39597000Y-63282000D02*
X38432000Y-63282000D01*
X36752000Y-63242000D02*
X35576000Y-63242000D01*
X39608000Y-63242000D02*
X38432000Y-63242000D01*
X36752000Y-63202000D02*
X35567000Y-63202000D01*
X39617000Y-63202000D02*
X38432000Y-63202000D01*
X36752000Y-63162000D02*
X35558000Y-63162000D01*
X39626000Y-63162000D02*
X38432000Y-63162000D01*
X36752000Y-63122000D02*
X35550000Y-63122000D01*
X39634000Y-63122000D02*
X38432000Y-63122000D01*
X36752000Y-63082000D02*
X35542000Y-63082000D01*
X39642000Y-63082000D02*
X38432000Y-63082000D01*
X36752000Y-63042000D02*
X35536000Y-63042000D01*
X39648000Y-63042000D02*
X38432000Y-63042000D01*
X36752000Y-63002000D02*
X35530000Y-63002000D01*
X39654000Y-63002000D02*
X38432000Y-63002000D01*
X36752000Y-62962000D02*
X35525000Y-62962000D01*
X39659000Y-62962000D02*
X38432000Y-62962000D01*
X36752000Y-62922000D02*
X35521000Y-62922000D01*
X39663000Y-62922000D02*
X38432000Y-62922000D01*
X39666000Y-62882000D02*
X35518000Y-62882000D01*
X39669000Y-62842000D02*
X35515000Y-62842000D01*
X39671000Y-62802000D02*
X35513000Y-62802000D01*
X39672000Y-62762000D02*
X35512000Y-62762000D01*
X39672000Y-62722000D02*
X35512000Y-62722000D01*
X39712000Y-62722000D02*
G75*
G03*
X39712000Y-62722000I-2120000J0D01*
G01*
%TO.C,IC1*%
X33468000Y-49166000D02*
X33468000Y-50816000D01*
X51368000Y-49166000D02*
X33468000Y-49166000D01*
X51368000Y-54466000D02*
X51368000Y-49166000D01*
X33468000Y-54466000D02*
X51368000Y-54466000D01*
X33468000Y-52816000D02*
X33468000Y-54466000D01*
X33468000Y-50816000D02*
G75*
G02*
X33468000Y-52816000I0J-1000000D01*
G01*
%TO.C,J1*%
X85214000Y-37876000D02*
X79154000Y-37876000D01*
X79154000Y-37876000D02*
X79154000Y-35066000D01*
X79154000Y-30466000D02*
X79154000Y-27656000D01*
X79154000Y-27656000D02*
X85214000Y-27656000D01*
X89314000Y-27656000D02*
X92374000Y-27656000D01*
X92374000Y-27656000D02*
X92374000Y-37876000D01*
X92374000Y-37876000D02*
X89314000Y-37876000D01*
X78964000Y-33766000D02*
X78964000Y-31766000D01*
%TO.C,C15*%
X78603918Y-42790000D02*
X78603918Y-44040000D01*
X77978918Y-43415000D02*
X79228918Y-43415000D01*
X91157000Y-46673000D02*
X91157000Y-47307000D01*
X91117000Y-46233000D02*
X91117000Y-47747000D01*
X91077000Y-45962000D02*
X91077000Y-48018000D01*
X91037000Y-45749000D02*
X91037000Y-48231000D01*
X90997000Y-45568000D02*
X90997000Y-48412000D01*
X90957000Y-45407000D02*
X90957000Y-48573000D01*
X90917000Y-45262000D02*
X90917000Y-48718000D01*
X90877000Y-45129000D02*
X90877000Y-48851000D01*
X90837000Y-45006000D02*
X90837000Y-48974000D01*
X90797000Y-44890000D02*
X90797000Y-49090000D01*
X90757000Y-44781000D02*
X90757000Y-49199000D01*
X90717000Y-44678000D02*
X90717000Y-49302000D01*
X90677000Y-44580000D02*
X90677000Y-49400000D01*
X90637000Y-44486000D02*
X90637000Y-49494000D01*
X90597000Y-44396000D02*
X90597000Y-49584000D01*
X90557000Y-44309000D02*
X90557000Y-49671000D01*
X90517000Y-44226000D02*
X90517000Y-49754000D01*
X90477000Y-44146000D02*
X90477000Y-49834000D01*
X90437000Y-44069000D02*
X90437000Y-49911000D01*
X90397000Y-43994000D02*
X90397000Y-49986000D01*
X90357000Y-43921000D02*
X90357000Y-50059000D01*
X90317000Y-43850000D02*
X90317000Y-50130000D01*
X90277000Y-43782000D02*
X90277000Y-50198000D01*
X90237000Y-43715000D02*
X90237000Y-50265000D01*
X90197000Y-43651000D02*
X90197000Y-50329000D01*
X90157000Y-43588000D02*
X90157000Y-50392000D01*
X90117000Y-43526000D02*
X90117000Y-50454000D01*
X90077000Y-43466000D02*
X90077000Y-50514000D01*
X90037000Y-43407000D02*
X90037000Y-50573000D01*
X89997000Y-43350000D02*
X89997000Y-50630000D01*
X89957000Y-43294000D02*
X89957000Y-50686000D01*
X89917000Y-43240000D02*
X89917000Y-50740000D01*
X89877000Y-43186000D02*
X89877000Y-50794000D01*
X89837000Y-43134000D02*
X89837000Y-50846000D01*
X89797000Y-43083000D02*
X89797000Y-50897000D01*
X89757000Y-43033000D02*
X89757000Y-50947000D01*
X89717000Y-42983000D02*
X89717000Y-50997000D01*
X89677000Y-42935000D02*
X89677000Y-51045000D01*
X89637000Y-42888000D02*
X89637000Y-51092000D01*
X89597000Y-42842000D02*
X89597000Y-51138000D01*
X89557000Y-42796000D02*
X89557000Y-51184000D01*
X89517000Y-42752000D02*
X89517000Y-51228000D01*
X89477000Y-42708000D02*
X89477000Y-51272000D01*
X89437000Y-42665000D02*
X89437000Y-51315000D01*
X89397000Y-42623000D02*
X89397000Y-51357000D01*
X89357000Y-42582000D02*
X89357000Y-51398000D01*
X89317000Y-42541000D02*
X89317000Y-51439000D01*
X89277000Y-42501000D02*
X89277000Y-51479000D01*
X89237000Y-42462000D02*
X89237000Y-51518000D01*
X89197000Y-42423000D02*
X89197000Y-51557000D01*
X89157000Y-42385000D02*
X89157000Y-51595000D01*
X89117000Y-42348000D02*
X89117000Y-51632000D01*
X89077000Y-42312000D02*
X89077000Y-51668000D01*
X89037000Y-42276000D02*
X89037000Y-51704000D01*
X88997000Y-42240000D02*
X88997000Y-51740000D01*
X88957000Y-42205000D02*
X88957000Y-51775000D01*
X88917000Y-42171000D02*
X88917000Y-51809000D01*
X88877000Y-42138000D02*
X88877000Y-51842000D01*
X88837000Y-42105000D02*
X88837000Y-51875000D01*
X88797000Y-42072000D02*
X88797000Y-51908000D01*
X88757000Y-42040000D02*
X88757000Y-51940000D01*
X88717000Y-48430000D02*
X88717000Y-51972000D01*
X88717000Y-42008000D02*
X88717000Y-45550000D01*
X88677000Y-48430000D02*
X88677000Y-52002000D01*
X88677000Y-41978000D02*
X88677000Y-45550000D01*
X88637000Y-48430000D02*
X88637000Y-52033000D01*
X88637000Y-41947000D02*
X88637000Y-45550000D01*
X88597000Y-48430000D02*
X88597000Y-52063000D01*
X88597000Y-41917000D02*
X88597000Y-45550000D01*
X88557000Y-48430000D02*
X88557000Y-52092000D01*
X88557000Y-41888000D02*
X88557000Y-45550000D01*
X88517000Y-48430000D02*
X88517000Y-52121000D01*
X88517000Y-41859000D02*
X88517000Y-45550000D01*
X88477000Y-48430000D02*
X88477000Y-52150000D01*
X88477000Y-41830000D02*
X88477000Y-45550000D01*
X88437000Y-48430000D02*
X88437000Y-52178000D01*
X88437000Y-41802000D02*
X88437000Y-45550000D01*
X88397000Y-48430000D02*
X88397000Y-52206000D01*
X88397000Y-41774000D02*
X88397000Y-45550000D01*
X88357000Y-48430000D02*
X88357000Y-52233000D01*
X88357000Y-41747000D02*
X88357000Y-45550000D01*
X88317000Y-48430000D02*
X88317000Y-52260000D01*
X88317000Y-41720000D02*
X88317000Y-45550000D01*
X88277000Y-48430000D02*
X88277000Y-52286000D01*
X88277000Y-41694000D02*
X88277000Y-45550000D01*
X88237000Y-48430000D02*
X88237000Y-52312000D01*
X88237000Y-41668000D02*
X88237000Y-45550000D01*
X88197000Y-48430000D02*
X88197000Y-52337000D01*
X88197000Y-41643000D02*
X88197000Y-45550000D01*
X88157000Y-48430000D02*
X88157000Y-52362000D01*
X88157000Y-41618000D02*
X88157000Y-45550000D01*
X88117000Y-48430000D02*
X88117000Y-52387000D01*
X88117000Y-41593000D02*
X88117000Y-45550000D01*
X88077000Y-48430000D02*
X88077000Y-52411000D01*
X88077000Y-41569000D02*
X88077000Y-45550000D01*
X88037000Y-48430000D02*
X88037000Y-52435000D01*
X88037000Y-41545000D02*
X88037000Y-45550000D01*
X87997000Y-48430000D02*
X87997000Y-52458000D01*
X87997000Y-41522000D02*
X87997000Y-45550000D01*
X87957000Y-48430000D02*
X87957000Y-52481000D01*
X87957000Y-41499000D02*
X87957000Y-45550000D01*
X87917000Y-48430000D02*
X87917000Y-52504000D01*
X87917000Y-41476000D02*
X87917000Y-45550000D01*
X87877000Y-48430000D02*
X87877000Y-52526000D01*
X87877000Y-41454000D02*
X87877000Y-45550000D01*
X87837000Y-48430000D02*
X87837000Y-52548000D01*
X87837000Y-41432000D02*
X87837000Y-45550000D01*
X87797000Y-48430000D02*
X87797000Y-52570000D01*
X87797000Y-41410000D02*
X87797000Y-45550000D01*
X87757000Y-48430000D02*
X87757000Y-52591000D01*
X87757000Y-41389000D02*
X87757000Y-45550000D01*
X87717000Y-48430000D02*
X87717000Y-52612000D01*
X87717000Y-41368000D02*
X87717000Y-45550000D01*
X87677000Y-48430000D02*
X87677000Y-52632000D01*
X87677000Y-41348000D02*
X87677000Y-45550000D01*
X87637000Y-48430000D02*
X87637000Y-52652000D01*
X87637000Y-41328000D02*
X87637000Y-45550000D01*
X87597000Y-48430000D02*
X87597000Y-52672000D01*
X87597000Y-41308000D02*
X87597000Y-45550000D01*
X87557000Y-48430000D02*
X87557000Y-52692000D01*
X87557000Y-41288000D02*
X87557000Y-45550000D01*
X87517000Y-48430000D02*
X87517000Y-52711000D01*
X87517000Y-41269000D02*
X87517000Y-45550000D01*
X87477000Y-48430000D02*
X87477000Y-52729000D01*
X87477000Y-41251000D02*
X87477000Y-45550000D01*
X87437000Y-48430000D02*
X87437000Y-52748000D01*
X87437000Y-41232000D02*
X87437000Y-45550000D01*
X87397000Y-48430000D02*
X87397000Y-52766000D01*
X87397000Y-41214000D02*
X87397000Y-45550000D01*
X87357000Y-48430000D02*
X87357000Y-52783000D01*
X87357000Y-41197000D02*
X87357000Y-45550000D01*
X87317000Y-48430000D02*
X87317000Y-52801000D01*
X87317000Y-41179000D02*
X87317000Y-45550000D01*
X87277000Y-48430000D02*
X87277000Y-52818000D01*
X87277000Y-41162000D02*
X87277000Y-45550000D01*
X87237000Y-48430000D02*
X87237000Y-52835000D01*
X87237000Y-41145000D02*
X87237000Y-45550000D01*
X87197000Y-48430000D02*
X87197000Y-52851000D01*
X87197000Y-41129000D02*
X87197000Y-45550000D01*
X87157000Y-48430000D02*
X87157000Y-52867000D01*
X87157000Y-41113000D02*
X87157000Y-45550000D01*
X87117000Y-48430000D02*
X87117000Y-52883000D01*
X87117000Y-41097000D02*
X87117000Y-45550000D01*
X87077000Y-48430000D02*
X87077000Y-52898000D01*
X87077000Y-41082000D02*
X87077000Y-45550000D01*
X87037000Y-48430000D02*
X87037000Y-52914000D01*
X87037000Y-41066000D02*
X87037000Y-45550000D01*
X86997000Y-48430000D02*
X86997000Y-52929000D01*
X86997000Y-41051000D02*
X86997000Y-45550000D01*
X86957000Y-48430000D02*
X86957000Y-52943000D01*
X86957000Y-41037000D02*
X86957000Y-45550000D01*
X86917000Y-48430000D02*
X86917000Y-52957000D01*
X86917000Y-41023000D02*
X86917000Y-45550000D01*
X86877000Y-48430000D02*
X86877000Y-52971000D01*
X86877000Y-41009000D02*
X86877000Y-45550000D01*
X86837000Y-48430000D02*
X86837000Y-52985000D01*
X86837000Y-40995000D02*
X86837000Y-45550000D01*
X86797000Y-48430000D02*
X86797000Y-52998000D01*
X86797000Y-40982000D02*
X86797000Y-45550000D01*
X86757000Y-48430000D02*
X86757000Y-53011000D01*
X86757000Y-40969000D02*
X86757000Y-45550000D01*
X86717000Y-48430000D02*
X86717000Y-53024000D01*
X86717000Y-40956000D02*
X86717000Y-45550000D01*
X86677000Y-48430000D02*
X86677000Y-53037000D01*
X86677000Y-40943000D02*
X86677000Y-45550000D01*
X86637000Y-48430000D02*
X86637000Y-53049000D01*
X86637000Y-40931000D02*
X86637000Y-45550000D01*
X86597000Y-48430000D02*
X86597000Y-53061000D01*
X86597000Y-40919000D02*
X86597000Y-45550000D01*
X86557000Y-48430000D02*
X86557000Y-53073000D01*
X86557000Y-40907000D02*
X86557000Y-45550000D01*
X86517000Y-48430000D02*
X86517000Y-53084000D01*
X86517000Y-40896000D02*
X86517000Y-45550000D01*
X86477000Y-48430000D02*
X86477000Y-53095000D01*
X86477000Y-40885000D02*
X86477000Y-45550000D01*
X86437000Y-48430000D02*
X86437000Y-53106000D01*
X86437000Y-40874000D02*
X86437000Y-45550000D01*
X86397000Y-48430000D02*
X86397000Y-53116000D01*
X86397000Y-40864000D02*
X86397000Y-45550000D01*
X86357000Y-48430000D02*
X86357000Y-53127000D01*
X86357000Y-40853000D02*
X86357000Y-45550000D01*
X86317000Y-48430000D02*
X86317000Y-53136000D01*
X86317000Y-40844000D02*
X86317000Y-45550000D01*
X86277000Y-48430000D02*
X86277000Y-53146000D01*
X86277000Y-40834000D02*
X86277000Y-45550000D01*
X86237000Y-48430000D02*
X86237000Y-53156000D01*
X86237000Y-40824000D02*
X86237000Y-45550000D01*
X86197000Y-48430000D02*
X86197000Y-53165000D01*
X86197000Y-40815000D02*
X86197000Y-45550000D01*
X86157000Y-48430000D02*
X86157000Y-53174000D01*
X86157000Y-40806000D02*
X86157000Y-45550000D01*
X86117000Y-48430000D02*
X86117000Y-53182000D01*
X86117000Y-40798000D02*
X86117000Y-45550000D01*
X86077000Y-48430000D02*
X86077000Y-53191000D01*
X86077000Y-40789000D02*
X86077000Y-45550000D01*
X86037000Y-48430000D02*
X86037000Y-53199000D01*
X86037000Y-40781000D02*
X86037000Y-45550000D01*
X85997000Y-48430000D02*
X85997000Y-53206000D01*
X85997000Y-40774000D02*
X85997000Y-45550000D01*
X85957000Y-48430000D02*
X85957000Y-53214000D01*
X85957000Y-40766000D02*
X85957000Y-45550000D01*
X85917000Y-48430000D02*
X85917000Y-53221000D01*
X85917000Y-40759000D02*
X85917000Y-45550000D01*
X85877000Y-48430000D02*
X85877000Y-53228000D01*
X85877000Y-40752000D02*
X85877000Y-45550000D01*
X85837000Y-40745000D02*
X85837000Y-53235000D01*
X85797000Y-40738000D02*
X85797000Y-53242000D01*
X85757000Y-40732000D02*
X85757000Y-53248000D01*
X85717000Y-40726000D02*
X85717000Y-53254000D01*
X85677000Y-40721000D02*
X85677000Y-53259000D01*
X85637000Y-40715000D02*
X85637000Y-53265000D01*
X85597000Y-40710000D02*
X85597000Y-53270000D01*
X85557000Y-40705000D02*
X85557000Y-53275000D01*
X85517000Y-40700000D02*
X85517000Y-53280000D01*
X85476000Y-40696000D02*
X85476000Y-53284000D01*
X85436000Y-40692000D02*
X85436000Y-53288000D01*
X85396000Y-40688000D02*
X85396000Y-53292000D01*
X85356000Y-40684000D02*
X85356000Y-53296000D01*
X85316000Y-40681000D02*
X85316000Y-53299000D01*
X85276000Y-40678000D02*
X85276000Y-53302000D01*
X85236000Y-40675000D02*
X85236000Y-53305000D01*
X85196000Y-40672000D02*
X85196000Y-53308000D01*
X85156000Y-40670000D02*
X85156000Y-53310000D01*
X85116000Y-40668000D02*
X85116000Y-53312000D01*
X85076000Y-40666000D02*
X85076000Y-53314000D01*
X85036000Y-40664000D02*
X85036000Y-53316000D01*
X84996000Y-40663000D02*
X84996000Y-53317000D01*
X84956000Y-40662000D02*
X84956000Y-53318000D01*
X84916000Y-40661000D02*
X84916000Y-53319000D01*
X84876000Y-40660000D02*
X84876000Y-53320000D01*
X84836000Y-40660000D02*
X84836000Y-53320000D01*
X84796000Y-40660000D02*
X84796000Y-53320000D01*
X91166000Y-46990000D02*
G75*
G03*
X91166000Y-46990000I-6370000J0D01*
G01*
%TO.C,C16*%
X28827000Y-49730199D02*
X28427000Y-49730199D01*
X28627000Y-49530199D02*
X28627000Y-49930199D01*
X27802000Y-53881000D02*
X27062000Y-53881000D01*
X27969000Y-53841000D02*
X26895000Y-53841000D01*
X28096000Y-53801000D02*
X26768000Y-53801000D01*
X28200000Y-53761000D02*
X26664000Y-53761000D01*
X28291000Y-53721000D02*
X26573000Y-53721000D01*
X28372000Y-53681000D02*
X26492000Y-53681000D01*
X28445000Y-53641000D02*
X26419000Y-53641000D01*
X26592000Y-53601000D02*
X26352000Y-53601000D01*
X28512000Y-53601000D02*
X28272000Y-53601000D01*
X26592000Y-53561000D02*
X26290000Y-53561000D01*
X28574000Y-53561000D02*
X28272000Y-53561000D01*
X26592000Y-53521000D02*
X26232000Y-53521000D01*
X28632000Y-53521000D02*
X28272000Y-53521000D01*
X26592000Y-53481000D02*
X26178000Y-53481000D01*
X28686000Y-53481000D02*
X28272000Y-53481000D01*
X26592000Y-53441000D02*
X26128000Y-53441000D01*
X28736000Y-53441000D02*
X28272000Y-53441000D01*
X26592000Y-53401000D02*
X26081000Y-53401000D01*
X28783000Y-53401000D02*
X28272000Y-53401000D01*
X26592000Y-53361000D02*
X26036000Y-53361000D01*
X28828000Y-53361000D02*
X28272000Y-53361000D01*
X26592000Y-53321000D02*
X25994000Y-53321000D01*
X28870000Y-53321000D02*
X28272000Y-53321000D01*
X26592000Y-53281000D02*
X25954000Y-53281000D01*
X28910000Y-53281000D02*
X28272000Y-53281000D01*
X26592000Y-53241000D02*
X25916000Y-53241000D01*
X28948000Y-53241000D02*
X28272000Y-53241000D01*
X26592000Y-53201000D02*
X25880000Y-53201000D01*
X28984000Y-53201000D02*
X28272000Y-53201000D01*
X26592000Y-53161000D02*
X25845000Y-53161000D01*
X29019000Y-53161000D02*
X28272000Y-53161000D01*
X26592000Y-53121000D02*
X25813000Y-53121000D01*
X29051000Y-53121000D02*
X28272000Y-53121000D01*
X26592000Y-53081000D02*
X25782000Y-53081000D01*
X29082000Y-53081000D02*
X28272000Y-53081000D01*
X26592000Y-53041000D02*
X25752000Y-53041000D01*
X29112000Y-53041000D02*
X28272000Y-53041000D01*
X26592000Y-53001000D02*
X25724000Y-53001000D01*
X29140000Y-53001000D02*
X28272000Y-53001000D01*
X26592000Y-52961000D02*
X25697000Y-52961000D01*
X29167000Y-52961000D02*
X28272000Y-52961000D01*
X26592000Y-52921000D02*
X25672000Y-52921000D01*
X29192000Y-52921000D02*
X28272000Y-52921000D01*
X26592000Y-52881000D02*
X25647000Y-52881000D01*
X29217000Y-52881000D02*
X28272000Y-52881000D01*
X26592000Y-52841000D02*
X25624000Y-52841000D01*
X29240000Y-52841000D02*
X28272000Y-52841000D01*
X26592000Y-52801000D02*
X25602000Y-52801000D01*
X29262000Y-52801000D02*
X28272000Y-52801000D01*
X26592000Y-52761000D02*
X25581000Y-52761000D01*
X29283000Y-52761000D02*
X28272000Y-52761000D01*
X26592000Y-52721000D02*
X25562000Y-52721000D01*
X29302000Y-52721000D02*
X28272000Y-52721000D01*
X26592000Y-52681000D02*
X25543000Y-52681000D01*
X29321000Y-52681000D02*
X28272000Y-52681000D01*
X26592000Y-52641000D02*
X25525000Y-52641000D01*
X29339000Y-52641000D02*
X28272000Y-52641000D01*
X26592000Y-52601000D02*
X25508000Y-52601000D01*
X29356000Y-52601000D02*
X28272000Y-52601000D01*
X26592000Y-52561000D02*
X25492000Y-52561000D01*
X29372000Y-52561000D02*
X28272000Y-52561000D01*
X26592000Y-52521000D02*
X25478000Y-52521000D01*
X29386000Y-52521000D02*
X28272000Y-52521000D01*
X26592000Y-52480000D02*
X25464000Y-52480000D01*
X29400000Y-52480000D02*
X28272000Y-52480000D01*
X26592000Y-52440000D02*
X25450000Y-52440000D01*
X29414000Y-52440000D02*
X28272000Y-52440000D01*
X26592000Y-52400000D02*
X25438000Y-52400000D01*
X29426000Y-52400000D02*
X28272000Y-52400000D01*
X26592000Y-52360000D02*
X25427000Y-52360000D01*
X29437000Y-52360000D02*
X28272000Y-52360000D01*
X26592000Y-52320000D02*
X25416000Y-52320000D01*
X29448000Y-52320000D02*
X28272000Y-52320000D01*
X26592000Y-52280000D02*
X25407000Y-52280000D01*
X29457000Y-52280000D02*
X28272000Y-52280000D01*
X26592000Y-52240000D02*
X25398000Y-52240000D01*
X29466000Y-52240000D02*
X28272000Y-52240000D01*
X26592000Y-52200000D02*
X25390000Y-52200000D01*
X29474000Y-52200000D02*
X28272000Y-52200000D01*
X26592000Y-52160000D02*
X25382000Y-52160000D01*
X29482000Y-52160000D02*
X28272000Y-52160000D01*
X26592000Y-52120000D02*
X25376000Y-52120000D01*
X29488000Y-52120000D02*
X28272000Y-52120000D01*
X26592000Y-52080000D02*
X25370000Y-52080000D01*
X29494000Y-52080000D02*
X28272000Y-52080000D01*
X26592000Y-52040000D02*
X25365000Y-52040000D01*
X29499000Y-52040000D02*
X28272000Y-52040000D01*
X26592000Y-52000000D02*
X25361000Y-52000000D01*
X29503000Y-52000000D02*
X28272000Y-52000000D01*
X29506000Y-51960000D02*
X25358000Y-51960000D01*
X29509000Y-51920000D02*
X25355000Y-51920000D01*
X29511000Y-51880000D02*
X25353000Y-51880000D01*
X29512000Y-51840000D02*
X25352000Y-51840000D01*
X29512000Y-51800000D02*
X25352000Y-51800000D01*
X29552000Y-51800000D02*
G75*
G03*
X29552000Y-51800000I-2120000J0D01*
G01*
%TO.C,SW1*%
D10*
X61896666Y-48576761D02*
X62039523Y-48624380D01*
X62277619Y-48624380D01*
X62372857Y-48576761D01*
X62420476Y-48529142D01*
X62468095Y-48433904D01*
X62468095Y-48338666D01*
X62420476Y-48243428D01*
X62372857Y-48195809D01*
X62277619Y-48148190D01*
X62087142Y-48100571D01*
X61991904Y-48052952D01*
X61944285Y-48005333D01*
X61896666Y-47910095D01*
X61896666Y-47814857D01*
X61944285Y-47719619D01*
X61991904Y-47672000D01*
X62087142Y-47624380D01*
X62325238Y-47624380D01*
X62468095Y-47672000D01*
X62801428Y-47624380D02*
X63039523Y-48624380D01*
X63230000Y-47910095D01*
X63420476Y-48624380D01*
X63658571Y-47624380D01*
X64563333Y-48624380D02*
X63991904Y-48624380D01*
X64277619Y-48624380D02*
X64277619Y-47624380D01*
X64182380Y-47767238D01*
X64087142Y-47862476D01*
X63991904Y-47910095D01*
%TO.C,R1*%
X48347333Y-68186380D02*
X48014000Y-67710190D01*
X47775904Y-68186380D02*
X47775904Y-67186380D01*
X48156857Y-67186380D01*
X48252095Y-67234000D01*
X48299714Y-67281619D01*
X48347333Y-67376857D01*
X48347333Y-67519714D01*
X48299714Y-67614952D01*
X48252095Y-67662571D01*
X48156857Y-67710190D01*
X47775904Y-67710190D01*
X49299714Y-68186380D02*
X48728285Y-68186380D01*
X49014000Y-68186380D02*
X49014000Y-67186380D01*
X48918761Y-67329238D01*
X48823523Y-67424476D01*
X48728285Y-67472095D01*
%TO.C,U1*%
X49490380Y-33781904D02*
X50299904Y-33781904D01*
X50395142Y-33734285D01*
X50442761Y-33686666D01*
X50490380Y-33591428D01*
X50490380Y-33400952D01*
X50442761Y-33305714D01*
X50395142Y-33258095D01*
X50299904Y-33210476D01*
X49490380Y-33210476D01*
X50490380Y-32210476D02*
X50490380Y-32781904D01*
X50490380Y-32496190D02*
X49490380Y-32496190D01*
X49633238Y-32591428D01*
X49728476Y-32686666D01*
X49776095Y-32781904D01*
X42597035Y-19063597D02*
X42866409Y-19332971D01*
X42381536Y-19171346D02*
X43135783Y-18794223D01*
X42758659Y-19548470D01*
X43782280Y-19494595D02*
X43755343Y-19413783D01*
X43674531Y-19332971D01*
X43566781Y-19279096D01*
X43459032Y-19279096D01*
X43378219Y-19306033D01*
X43243532Y-19386845D01*
X43162720Y-19467658D01*
X43081908Y-19602345D01*
X43054971Y-19683157D01*
X43054971Y-19790906D01*
X43108845Y-19898656D01*
X43162720Y-19952531D01*
X43270470Y-20006406D01*
X43324345Y-20006406D01*
X43512906Y-19817844D01*
X43405157Y-19710094D01*
X43512906Y-20302717D02*
X44078592Y-19737032D01*
X43836155Y-20625966D01*
X44401841Y-20060280D01*
X44105529Y-20895340D02*
X44671215Y-20329654D01*
X44805902Y-20464341D01*
X44859776Y-20572091D01*
X44859776Y-20679841D01*
X44832839Y-20760653D01*
X44752027Y-20895340D01*
X44671215Y-20976152D01*
X44536528Y-21056964D01*
X44455715Y-21083902D01*
X44347966Y-21083902D01*
X44240216Y-21030027D01*
X44105529Y-20895340D01*
X30839844Y-19506158D02*
X30812906Y-19425346D01*
X30732094Y-19344534D01*
X30624345Y-19290659D01*
X30516595Y-19290659D01*
X30435783Y-19317597D01*
X30301096Y-19398409D01*
X30220284Y-19479221D01*
X30139471Y-19613908D01*
X30112534Y-19694720D01*
X30112534Y-19802470D01*
X30166409Y-19910219D01*
X30220284Y-19964094D01*
X30328033Y-20017969D01*
X30381908Y-20017969D01*
X30570470Y-19829407D01*
X30462720Y-19721658D01*
X30570470Y-20314280D02*
X31136155Y-19748595D01*
X30893719Y-20637529D01*
X31459404Y-20071844D01*
X31163093Y-20906903D02*
X31728778Y-20341218D01*
X31863465Y-20475905D01*
X31917340Y-20583654D01*
X31917340Y-20691404D01*
X31890402Y-20772216D01*
X31809590Y-20906903D01*
X31728778Y-20987715D01*
X31594091Y-21068528D01*
X31513279Y-21095465D01*
X31405529Y-21095465D01*
X31297780Y-21041590D01*
X31163093Y-20906903D01*
X56239844Y-19506158D02*
X56212906Y-19425346D01*
X56132094Y-19344534D01*
X56024345Y-19290659D01*
X55916595Y-19290659D01*
X55835783Y-19317597D01*
X55701096Y-19398409D01*
X55620284Y-19479221D01*
X55539471Y-19613908D01*
X55512534Y-19694720D01*
X55512534Y-19802470D01*
X55566409Y-19910219D01*
X55620284Y-19964094D01*
X55728033Y-20017969D01*
X55781908Y-20017969D01*
X55970470Y-19829407D01*
X55862720Y-19721658D01*
X55970470Y-20314280D02*
X56536155Y-19748595D01*
X56293719Y-20637529D01*
X56859404Y-20071844D01*
X56563093Y-20906903D02*
X57128778Y-20341218D01*
X57263465Y-20475905D01*
X57317340Y-20583654D01*
X57317340Y-20691404D01*
X57290402Y-20772216D01*
X57209590Y-20906903D01*
X57128778Y-20987715D01*
X56994091Y-21068528D01*
X56913279Y-21095465D01*
X56805529Y-21095465D01*
X56697780Y-21041590D01*
X56563093Y-20906903D01*
X68939844Y-19506158D02*
X68912906Y-19425346D01*
X68832094Y-19344534D01*
X68724345Y-19290659D01*
X68616595Y-19290659D01*
X68535783Y-19317597D01*
X68401096Y-19398409D01*
X68320284Y-19479221D01*
X68239471Y-19613908D01*
X68212534Y-19694720D01*
X68212534Y-19802470D01*
X68266409Y-19910219D01*
X68320284Y-19964094D01*
X68428033Y-20017969D01*
X68481908Y-20017969D01*
X68670470Y-19829407D01*
X68562720Y-19721658D01*
X68670470Y-20314280D02*
X69236155Y-19748595D01*
X68993719Y-20637529D01*
X69559404Y-20071844D01*
X69263093Y-20906903D02*
X69828778Y-20341218D01*
X69963465Y-20475905D01*
X70017340Y-20583654D01*
X70017340Y-20691404D01*
X69990402Y-20772216D01*
X69909590Y-20906903D01*
X69828778Y-20987715D01*
X69694091Y-21068528D01*
X69613279Y-21095465D01*
X69505529Y-21095465D01*
X69397780Y-21041590D01*
X69263093Y-20906903D01*
X68939844Y-45106158D02*
X68912906Y-45025346D01*
X68832094Y-44944534D01*
X68724345Y-44890659D01*
X68616595Y-44890659D01*
X68535783Y-44917597D01*
X68401096Y-44998409D01*
X68320284Y-45079221D01*
X68239471Y-45213908D01*
X68212534Y-45294720D01*
X68212534Y-45402470D01*
X68266409Y-45510219D01*
X68320284Y-45564094D01*
X68428033Y-45617969D01*
X68481908Y-45617969D01*
X68670470Y-45429407D01*
X68562720Y-45321658D01*
X68670470Y-45914280D02*
X69236155Y-45348595D01*
X68993719Y-46237529D01*
X69559404Y-45671844D01*
X69263093Y-46506903D02*
X69828778Y-45941218D01*
X69963465Y-46075905D01*
X70017340Y-46183654D01*
X70017340Y-46291404D01*
X69990402Y-46372216D01*
X69909590Y-46506903D01*
X69828778Y-46587715D01*
X69694091Y-46668528D01*
X69613279Y-46695465D01*
X69505529Y-46695465D01*
X69397780Y-46641590D01*
X69263093Y-46506903D01*
X56239844Y-45106158D02*
X56212906Y-45025346D01*
X56132094Y-44944534D01*
X56024345Y-44890659D01*
X55916595Y-44890659D01*
X55835783Y-44917597D01*
X55701096Y-44998409D01*
X55620284Y-45079221D01*
X55539471Y-45213908D01*
X55512534Y-45294720D01*
X55512534Y-45402470D01*
X55566409Y-45510219D01*
X55620284Y-45564094D01*
X55728033Y-45617969D01*
X55781908Y-45617969D01*
X55970470Y-45429407D01*
X55862720Y-45321658D01*
X55970470Y-45914280D02*
X56536155Y-45348595D01*
X56293719Y-46237529D01*
X56859404Y-45671844D01*
X56563093Y-46506903D02*
X57128778Y-45941218D01*
X57263465Y-46075905D01*
X57317340Y-46183654D01*
X57317340Y-46291404D01*
X57290402Y-46372216D01*
X57209590Y-46506903D01*
X57128778Y-46587715D01*
X56994091Y-46668528D01*
X56913279Y-46695465D01*
X56805529Y-46695465D01*
X56697780Y-46641590D01*
X56563093Y-46506903D01*
X43539844Y-45106158D02*
X43512906Y-45025346D01*
X43432094Y-44944534D01*
X43324345Y-44890659D01*
X43216595Y-44890659D01*
X43135783Y-44917597D01*
X43001096Y-44998409D01*
X42920284Y-45079221D01*
X42839471Y-45213908D01*
X42812534Y-45294720D01*
X42812534Y-45402470D01*
X42866409Y-45510219D01*
X42920284Y-45564094D01*
X43028033Y-45617969D01*
X43081908Y-45617969D01*
X43270470Y-45429407D01*
X43162720Y-45321658D01*
X43270470Y-45914280D02*
X43836155Y-45348595D01*
X43593719Y-46237529D01*
X44159404Y-45671844D01*
X43863093Y-46506903D02*
X44428778Y-45941218D01*
X44563465Y-46075905D01*
X44617340Y-46183654D01*
X44617340Y-46291404D01*
X44590402Y-46372216D01*
X44509590Y-46506903D01*
X44428778Y-46587715D01*
X44294091Y-46668528D01*
X44213279Y-46695465D01*
X44105529Y-46695465D01*
X43997780Y-46641590D01*
X43863093Y-46506903D01*
X30839844Y-45106158D02*
X30812906Y-45025346D01*
X30732094Y-44944534D01*
X30624345Y-44890659D01*
X30516595Y-44890659D01*
X30435783Y-44917597D01*
X30301096Y-44998409D01*
X30220284Y-45079221D01*
X30139471Y-45213908D01*
X30112534Y-45294720D01*
X30112534Y-45402470D01*
X30166409Y-45510219D01*
X30220284Y-45564094D01*
X30328033Y-45617969D01*
X30381908Y-45617969D01*
X30570470Y-45429407D01*
X30462720Y-45321658D01*
X30570470Y-45914280D02*
X31136155Y-45348595D01*
X30893719Y-46237529D01*
X31459404Y-45671844D01*
X31163093Y-46506903D02*
X31728778Y-45941218D01*
X31863465Y-46075905D01*
X31917340Y-46183654D01*
X31917340Y-46291404D01*
X31890402Y-46372216D01*
X31809590Y-46506903D01*
X31728778Y-46587715D01*
X31594091Y-46668528D01*
X31513279Y-46695465D01*
X31405529Y-46695465D01*
X31297780Y-46641590D01*
X31163093Y-46506903D01*
X25110690Y-18373129D02*
X24733566Y-19127377D01*
X25487813Y-18750253D01*
X25595563Y-19396751D02*
X25649438Y-19504500D01*
X25649438Y-19558375D01*
X25622500Y-19639187D01*
X25541688Y-19720000D01*
X25460876Y-19746937D01*
X25407001Y-19746937D01*
X25326189Y-19720000D01*
X25110690Y-19504500D01*
X25676375Y-18938815D01*
X25864937Y-19127377D01*
X25891874Y-19208189D01*
X25891874Y-19262064D01*
X25864937Y-19342876D01*
X25811062Y-19396751D01*
X25730250Y-19423688D01*
X25676375Y-19423688D01*
X25595563Y-19396751D01*
X25407001Y-19208189D01*
X26242061Y-19504500D02*
X25784125Y-19962436D01*
X25757187Y-20043248D01*
X25757187Y-20097123D01*
X25784125Y-20177935D01*
X25891874Y-20285685D01*
X25972687Y-20312622D01*
X26026561Y-20312622D01*
X26107374Y-20285685D01*
X26565309Y-19827749D01*
X26268998Y-20608934D02*
X26322873Y-20716683D01*
X26457560Y-20851370D01*
X26538372Y-20878308D01*
X26592247Y-20878308D01*
X26673059Y-20851370D01*
X26726934Y-20797496D01*
X26753871Y-20716683D01*
X26753871Y-20662809D01*
X26726934Y-20581996D01*
X26646122Y-20447309D01*
X26619184Y-20366497D01*
X26619184Y-20312622D01*
X26646122Y-20231810D01*
X26699996Y-20177935D01*
X26780809Y-20150998D01*
X26834683Y-20150998D01*
X26915496Y-20177935D01*
X27050183Y-20312622D01*
X27104057Y-20420372D01*
X73777407Y-45117722D02*
X73750470Y-45036910D01*
X73669658Y-44956097D01*
X73561908Y-44902223D01*
X73454158Y-44902223D01*
X73373346Y-44929160D01*
X73238659Y-45009972D01*
X73157847Y-45090784D01*
X73077035Y-45225471D01*
X73050097Y-45306284D01*
X73050097Y-45414033D01*
X73103972Y-45521783D01*
X73157847Y-45575658D01*
X73265597Y-45629532D01*
X73319471Y-45629532D01*
X73508033Y-45440971D01*
X73400284Y-45333221D01*
X73508033Y-45925844D02*
X74073719Y-45360158D01*
X74289218Y-45575658D01*
X74316155Y-45656470D01*
X74316155Y-45710345D01*
X74289218Y-45791157D01*
X74208406Y-45871969D01*
X74127593Y-45898906D01*
X74073719Y-45898906D01*
X73992906Y-45871969D01*
X73777407Y-45656470D01*
X74370030Y-46787841D02*
X74046781Y-46464592D01*
X74208406Y-46626216D02*
X74774091Y-46060531D01*
X74639404Y-46087468D01*
X74531654Y-46087468D01*
X74450842Y-46060531D01*
X75447526Y-46733966D02*
X75178152Y-46464592D01*
X74881841Y-46707028D01*
X74935715Y-46707028D01*
X75016528Y-46733966D01*
X75151215Y-46868653D01*
X75178152Y-46949465D01*
X75178152Y-47003340D01*
X75151215Y-47084152D01*
X75016528Y-47218839D01*
X74935715Y-47245776D01*
X74881841Y-47245776D01*
X74801028Y-47218839D01*
X74666341Y-47084152D01*
X74639404Y-47003340D01*
X74639404Y-46949465D01*
X25786781Y-45133096D02*
X25759844Y-45052284D01*
X25679032Y-44971471D01*
X25571282Y-44917597D01*
X25463532Y-44917597D01*
X25382720Y-44944534D01*
X25248033Y-45025346D01*
X25167221Y-45106158D01*
X25086409Y-45240845D01*
X25059471Y-45321658D01*
X25059471Y-45429407D01*
X25113346Y-45537157D01*
X25167221Y-45591032D01*
X25274971Y-45644906D01*
X25328845Y-45644906D01*
X25517407Y-45456345D01*
X25409658Y-45348595D01*
X25517407Y-45941218D02*
X26083093Y-45375532D01*
X26298592Y-45591032D01*
X26325529Y-45671844D01*
X26325529Y-45725719D01*
X26298592Y-45806531D01*
X26217780Y-45887343D01*
X26136967Y-45914280D01*
X26083093Y-45914280D01*
X26002280Y-45887343D01*
X25786781Y-45671844D01*
X26756528Y-46048967D02*
X26810402Y-46102842D01*
X26837340Y-46183654D01*
X26837340Y-46237529D01*
X26810402Y-46318341D01*
X26729590Y-46453028D01*
X26594903Y-46587715D01*
X26460216Y-46668528D01*
X26379404Y-46695465D01*
X26325529Y-46695465D01*
X26244717Y-46668528D01*
X26190842Y-46614653D01*
X26163905Y-46533841D01*
X26163905Y-46479966D01*
X26190842Y-46399154D01*
X26271654Y-46264467D01*
X26406341Y-46129780D01*
X26541028Y-46048967D01*
X26621841Y-46022030D01*
X26675715Y-46022030D01*
X26756528Y-46048967D01*
%TO.C,D10*%
X52372380Y-114815785D02*
X51372380Y-114815785D01*
X51372380Y-114577690D01*
X51420000Y-114434833D01*
X51515238Y-114339595D01*
X51610476Y-114291976D01*
X51800952Y-114244357D01*
X51943809Y-114244357D01*
X52134285Y-114291976D01*
X52229523Y-114339595D01*
X52324761Y-114434833D01*
X52372380Y-114577690D01*
X52372380Y-114815785D01*
X52372380Y-113291976D02*
X52372380Y-113863404D01*
X52372380Y-113577690D02*
X51372380Y-113577690D01*
X51515238Y-113672928D01*
X51610476Y-113768166D01*
X51658095Y-113863404D01*
X51372380Y-112672928D02*
X51372380Y-112577690D01*
X51420000Y-112482452D01*
X51467619Y-112434833D01*
X51562857Y-112387214D01*
X51753333Y-112339595D01*
X51991428Y-112339595D01*
X52181904Y-112387214D01*
X52277142Y-112434833D01*
X52324761Y-112482452D01*
X52372380Y-112577690D01*
X52372380Y-112672928D01*
X52324761Y-112768166D01*
X52277142Y-112815785D01*
X52181904Y-112863404D01*
X51991428Y-112911023D01*
X51753333Y-112911023D01*
X51562857Y-112863404D01*
X51467619Y-112815785D01*
X51420000Y-112768166D01*
X51372380Y-112672928D01*
%TO.C,C14*%
X91999142Y-139564857D02*
X92046761Y-139612476D01*
X92094380Y-139755333D01*
X92094380Y-139850571D01*
X92046761Y-139993428D01*
X91951523Y-140088666D01*
X91856285Y-140136285D01*
X91665809Y-140183904D01*
X91522952Y-140183904D01*
X91332476Y-140136285D01*
X91237238Y-140088666D01*
X91142000Y-139993428D01*
X91094380Y-139850571D01*
X91094380Y-139755333D01*
X91142000Y-139612476D01*
X91189619Y-139564857D01*
X92094380Y-138612476D02*
X92094380Y-139183904D01*
X92094380Y-138898190D02*
X91094380Y-138898190D01*
X91237238Y-138993428D01*
X91332476Y-139088666D01*
X91380095Y-139183904D01*
X91427714Y-137755333D02*
X92094380Y-137755333D01*
X91046761Y-137993428D02*
X91761047Y-138231523D01*
X91761047Y-137612476D01*
%TO.C,C7*%
X41199142Y-139088666D02*
X41246761Y-139136285D01*
X41294380Y-139279142D01*
X41294380Y-139374380D01*
X41246761Y-139517238D01*
X41151523Y-139612476D01*
X41056285Y-139660095D01*
X40865809Y-139707714D01*
X40722952Y-139707714D01*
X40532476Y-139660095D01*
X40437238Y-139612476D01*
X40342000Y-139517238D01*
X40294380Y-139374380D01*
X40294380Y-139279142D01*
X40342000Y-139136285D01*
X40389619Y-139088666D01*
X40294380Y-138755333D02*
X40294380Y-138088666D01*
X41294380Y-138517238D01*
%TO.C,C12*%
X79299142Y-126864857D02*
X79346761Y-126912476D01*
X79394380Y-127055333D01*
X79394380Y-127150571D01*
X79346761Y-127293428D01*
X79251523Y-127388666D01*
X79156285Y-127436285D01*
X78965809Y-127483904D01*
X78822952Y-127483904D01*
X78632476Y-127436285D01*
X78537238Y-127388666D01*
X78442000Y-127293428D01*
X78394380Y-127150571D01*
X78394380Y-127055333D01*
X78442000Y-126912476D01*
X78489619Y-126864857D01*
X79394380Y-125912476D02*
X79394380Y-126483904D01*
X79394380Y-126198190D02*
X78394380Y-126198190D01*
X78537238Y-126293428D01*
X78632476Y-126388666D01*
X78680095Y-126483904D01*
X78489619Y-125531523D02*
X78442000Y-125483904D01*
X78394380Y-125388666D01*
X78394380Y-125150571D01*
X78442000Y-125055333D01*
X78489619Y-125007714D01*
X78584857Y-124960095D01*
X78680095Y-124960095D01*
X78822952Y-125007714D01*
X79394380Y-125579142D01*
X79394380Y-124960095D01*
%TO.C,C6*%
X41199142Y-126388666D02*
X41246761Y-126436285D01*
X41294380Y-126579142D01*
X41294380Y-126674380D01*
X41246761Y-126817238D01*
X41151523Y-126912476D01*
X41056285Y-126960095D01*
X40865809Y-127007714D01*
X40722952Y-127007714D01*
X40532476Y-126960095D01*
X40437238Y-126912476D01*
X40342000Y-126817238D01*
X40294380Y-126674380D01*
X40294380Y-126579142D01*
X40342000Y-126436285D01*
X40389619Y-126388666D01*
X40294380Y-125531523D02*
X40294380Y-125722000D01*
X40342000Y-125817238D01*
X40389619Y-125864857D01*
X40532476Y-125960095D01*
X40722952Y-126007714D01*
X41103904Y-126007714D01*
X41199142Y-125960095D01*
X41246761Y-125912476D01*
X41294380Y-125817238D01*
X41294380Y-125626761D01*
X41246761Y-125531523D01*
X41199142Y-125483904D01*
X41103904Y-125436285D01*
X40865809Y-125436285D01*
X40770571Y-125483904D01*
X40722952Y-125531523D01*
X40675333Y-125626761D01*
X40675333Y-125817238D01*
X40722952Y-125912476D01*
X40770571Y-125960095D01*
X40865809Y-126007714D01*
%TO.C,C10*%
X66599142Y-114164857D02*
X66646761Y-114212476D01*
X66694380Y-114355333D01*
X66694380Y-114450571D01*
X66646761Y-114593428D01*
X66551523Y-114688666D01*
X66456285Y-114736285D01*
X66265809Y-114783904D01*
X66122952Y-114783904D01*
X65932476Y-114736285D01*
X65837238Y-114688666D01*
X65742000Y-114593428D01*
X65694380Y-114450571D01*
X65694380Y-114355333D01*
X65742000Y-114212476D01*
X65789619Y-114164857D01*
X66694380Y-113212476D02*
X66694380Y-113783904D01*
X66694380Y-113498190D02*
X65694380Y-113498190D01*
X65837238Y-113593428D01*
X65932476Y-113688666D01*
X65980095Y-113783904D01*
X65694380Y-112593428D02*
X65694380Y-112498190D01*
X65742000Y-112402952D01*
X65789619Y-112355333D01*
X65884857Y-112307714D01*
X66075333Y-112260095D01*
X66313428Y-112260095D01*
X66503904Y-112307714D01*
X66599142Y-112355333D01*
X66646761Y-112402952D01*
X66694380Y-112498190D01*
X66694380Y-112593428D01*
X66646761Y-112688666D01*
X66599142Y-112736285D01*
X66503904Y-112783904D01*
X66313428Y-112831523D01*
X66075333Y-112831523D01*
X65884857Y-112783904D01*
X65789619Y-112736285D01*
X65742000Y-112688666D01*
X65694380Y-112593428D01*
%TO.C,C5*%
X41199142Y-113688666D02*
X41246761Y-113736285D01*
X41294380Y-113879142D01*
X41294380Y-113974380D01*
X41246761Y-114117238D01*
X41151523Y-114212476D01*
X41056285Y-114260095D01*
X40865809Y-114307714D01*
X40722952Y-114307714D01*
X40532476Y-114260095D01*
X40437238Y-114212476D01*
X40342000Y-114117238D01*
X40294380Y-113974380D01*
X40294380Y-113879142D01*
X40342000Y-113736285D01*
X40389619Y-113688666D01*
X40294380Y-112783904D02*
X40294380Y-113260095D01*
X40770571Y-113307714D01*
X40722952Y-113260095D01*
X40675333Y-113164857D01*
X40675333Y-112926761D01*
X40722952Y-112831523D01*
X40770571Y-112783904D01*
X40865809Y-112736285D01*
X41103904Y-112736285D01*
X41199142Y-112783904D01*
X41246761Y-112831523D01*
X41294380Y-112926761D01*
X41294380Y-113164857D01*
X41246761Y-113260095D01*
X41199142Y-113307714D01*
%TO.C,C8*%
X53899142Y-100988666D02*
X53946761Y-101036285D01*
X53994380Y-101179142D01*
X53994380Y-101274380D01*
X53946761Y-101417238D01*
X53851523Y-101512476D01*
X53756285Y-101560095D01*
X53565809Y-101607714D01*
X53422952Y-101607714D01*
X53232476Y-101560095D01*
X53137238Y-101512476D01*
X53042000Y-101417238D01*
X52994380Y-101274380D01*
X52994380Y-101179142D01*
X53042000Y-101036285D01*
X53089619Y-100988666D01*
X53422952Y-100417238D02*
X53375333Y-100512476D01*
X53327714Y-100560095D01*
X53232476Y-100607714D01*
X53184857Y-100607714D01*
X53089619Y-100560095D01*
X53042000Y-100512476D01*
X52994380Y-100417238D01*
X52994380Y-100226761D01*
X53042000Y-100131523D01*
X53089619Y-100083904D01*
X53184857Y-100036285D01*
X53232476Y-100036285D01*
X53327714Y-100083904D01*
X53375333Y-100131523D01*
X53422952Y-100226761D01*
X53422952Y-100417238D01*
X53470571Y-100512476D01*
X53518190Y-100560095D01*
X53613428Y-100607714D01*
X53803904Y-100607714D01*
X53899142Y-100560095D01*
X53946761Y-100512476D01*
X53994380Y-100417238D01*
X53994380Y-100226761D01*
X53946761Y-100131523D01*
X53899142Y-100083904D01*
X53803904Y-100036285D01*
X53613428Y-100036285D01*
X53518190Y-100083904D01*
X53470571Y-100131523D01*
X53422952Y-100226761D01*
%TO.C,C4*%
X37949142Y-104560666D02*
X37996761Y-104608285D01*
X38044380Y-104751142D01*
X38044380Y-104846380D01*
X37996761Y-104989238D01*
X37901523Y-105084476D01*
X37806285Y-105132095D01*
X37615809Y-105179714D01*
X37472952Y-105179714D01*
X37282476Y-105132095D01*
X37187238Y-105084476D01*
X37092000Y-104989238D01*
X37044380Y-104846380D01*
X37044380Y-104751142D01*
X37092000Y-104608285D01*
X37139619Y-104560666D01*
X37377714Y-103703523D02*
X38044380Y-103703523D01*
X36996761Y-103941619D02*
X37711047Y-104179714D01*
X37711047Y-103560666D01*
%TO.C,C9*%
X66599142Y-88288666D02*
X66646761Y-88336285D01*
X66694380Y-88479142D01*
X66694380Y-88574380D01*
X66646761Y-88717238D01*
X66551523Y-88812476D01*
X66456285Y-88860095D01*
X66265809Y-88907714D01*
X66122952Y-88907714D01*
X65932476Y-88860095D01*
X65837238Y-88812476D01*
X65742000Y-88717238D01*
X65694380Y-88574380D01*
X65694380Y-88479142D01*
X65742000Y-88336285D01*
X65789619Y-88288666D01*
X66694380Y-87812476D02*
X66694380Y-87622000D01*
X66646761Y-87526761D01*
X66599142Y-87479142D01*
X66456285Y-87383904D01*
X66265809Y-87336285D01*
X65884857Y-87336285D01*
X65789619Y-87383904D01*
X65742000Y-87431523D01*
X65694380Y-87526761D01*
X65694380Y-87717238D01*
X65742000Y-87812476D01*
X65789619Y-87860095D01*
X65884857Y-87907714D01*
X66122952Y-87907714D01*
X66218190Y-87860095D01*
X66265809Y-87812476D01*
X66313428Y-87717238D01*
X66313428Y-87526761D01*
X66265809Y-87431523D01*
X66218190Y-87383904D01*
X66122952Y-87336285D01*
%TO.C,C3*%
X41199142Y-88288666D02*
X41246761Y-88336285D01*
X41294380Y-88479142D01*
X41294380Y-88574380D01*
X41246761Y-88717238D01*
X41151523Y-88812476D01*
X41056285Y-88860095D01*
X40865809Y-88907714D01*
X40722952Y-88907714D01*
X40532476Y-88860095D01*
X40437238Y-88812476D01*
X40342000Y-88717238D01*
X40294380Y-88574380D01*
X40294380Y-88479142D01*
X40342000Y-88336285D01*
X40389619Y-88288666D01*
X40294380Y-87955333D02*
X40294380Y-87336285D01*
X40675333Y-87669619D01*
X40675333Y-87526761D01*
X40722952Y-87431523D01*
X40770571Y-87383904D01*
X40865809Y-87336285D01*
X41103904Y-87336285D01*
X41199142Y-87383904D01*
X41246761Y-87431523D01*
X41294380Y-87526761D01*
X41294380Y-87812476D01*
X41246761Y-87907714D01*
X41199142Y-87955333D01*
%TO.C,C11*%
X79299142Y-76064857D02*
X79346761Y-76112476D01*
X79394380Y-76255333D01*
X79394380Y-76350571D01*
X79346761Y-76493428D01*
X79251523Y-76588666D01*
X79156285Y-76636285D01*
X78965809Y-76683904D01*
X78822952Y-76683904D01*
X78632476Y-76636285D01*
X78537238Y-76588666D01*
X78442000Y-76493428D01*
X78394380Y-76350571D01*
X78394380Y-76255333D01*
X78442000Y-76112476D01*
X78489619Y-76064857D01*
X79394380Y-75112476D02*
X79394380Y-75683904D01*
X79394380Y-75398190D02*
X78394380Y-75398190D01*
X78537238Y-75493428D01*
X78632476Y-75588666D01*
X78680095Y-75683904D01*
X79394380Y-74160095D02*
X79394380Y-74731523D01*
X79394380Y-74445809D02*
X78394380Y-74445809D01*
X78537238Y-74541047D01*
X78632476Y-74636285D01*
X78680095Y-74731523D01*
%TO.C,C2*%
X41199142Y-75588666D02*
X41246761Y-75636285D01*
X41294380Y-75779142D01*
X41294380Y-75874380D01*
X41246761Y-76017238D01*
X41151523Y-76112476D01*
X41056285Y-76160095D01*
X40865809Y-76207714D01*
X40722952Y-76207714D01*
X40532476Y-76160095D01*
X40437238Y-76112476D01*
X40342000Y-76017238D01*
X40294380Y-75874380D01*
X40294380Y-75779142D01*
X40342000Y-75636285D01*
X40389619Y-75588666D01*
X40389619Y-75207714D02*
X40342000Y-75160095D01*
X40294380Y-75064857D01*
X40294380Y-74826761D01*
X40342000Y-74731523D01*
X40389619Y-74683904D01*
X40484857Y-74636285D01*
X40580095Y-74636285D01*
X40722952Y-74683904D01*
X41294380Y-75255333D01*
X41294380Y-74636285D01*
%TO.C,C13*%
X91999142Y-63364857D02*
X92046761Y-63412476D01*
X92094380Y-63555333D01*
X92094380Y-63650571D01*
X92046761Y-63793428D01*
X91951523Y-63888666D01*
X91856285Y-63936285D01*
X91665809Y-63983904D01*
X91522952Y-63983904D01*
X91332476Y-63936285D01*
X91237238Y-63888666D01*
X91142000Y-63793428D01*
X91094380Y-63650571D01*
X91094380Y-63555333D01*
X91142000Y-63412476D01*
X91189619Y-63364857D01*
X92094380Y-62412476D02*
X92094380Y-62983904D01*
X92094380Y-62698190D02*
X91094380Y-62698190D01*
X91237238Y-62793428D01*
X91332476Y-62888666D01*
X91380095Y-62983904D01*
X91094380Y-62079142D02*
X91094380Y-61460095D01*
X91475333Y-61793428D01*
X91475333Y-61650571D01*
X91522952Y-61555333D01*
X91570571Y-61507714D01*
X91665809Y-61460095D01*
X91903904Y-61460095D01*
X91999142Y-61507714D01*
X92046761Y-61555333D01*
X92094380Y-61650571D01*
X92094380Y-61936285D01*
X92046761Y-62031523D01*
X91999142Y-62079142D01*
%TO.C,D14*%
X77772380Y-140215785D02*
X76772380Y-140215785D01*
X76772380Y-139977690D01*
X76820000Y-139834833D01*
X76915238Y-139739595D01*
X77010476Y-139691976D01*
X77200952Y-139644357D01*
X77343809Y-139644357D01*
X77534285Y-139691976D01*
X77629523Y-139739595D01*
X77724761Y-139834833D01*
X77772380Y-139977690D01*
X77772380Y-140215785D01*
X77772380Y-138691976D02*
X77772380Y-139263404D01*
X77772380Y-138977690D02*
X76772380Y-138977690D01*
X76915238Y-139072928D01*
X77010476Y-139168166D01*
X77058095Y-139263404D01*
X77105714Y-137834833D02*
X77772380Y-137834833D01*
X76724761Y-138072928D02*
X77439047Y-138311023D01*
X77439047Y-137691976D01*
%TO.C,D7*%
X26972380Y-139739595D02*
X25972380Y-139739595D01*
X25972380Y-139501500D01*
X26020000Y-139358642D01*
X26115238Y-139263404D01*
X26210476Y-139215785D01*
X26400952Y-139168166D01*
X26543809Y-139168166D01*
X26734285Y-139215785D01*
X26829523Y-139263404D01*
X26924761Y-139358642D01*
X26972380Y-139501500D01*
X26972380Y-139739595D01*
X25972380Y-138834833D02*
X25972380Y-138168166D01*
X26972380Y-138596738D01*
%TO.C,D12*%
X65072380Y-127515785D02*
X64072380Y-127515785D01*
X64072380Y-127277690D01*
X64120000Y-127134833D01*
X64215238Y-127039595D01*
X64310476Y-126991976D01*
X64500952Y-126944357D01*
X64643809Y-126944357D01*
X64834285Y-126991976D01*
X64929523Y-127039595D01*
X65024761Y-127134833D01*
X65072380Y-127277690D01*
X65072380Y-127515785D01*
X65072380Y-125991976D02*
X65072380Y-126563404D01*
X65072380Y-126277690D02*
X64072380Y-126277690D01*
X64215238Y-126372928D01*
X64310476Y-126468166D01*
X64358095Y-126563404D01*
X64167619Y-125611023D02*
X64120000Y-125563404D01*
X64072380Y-125468166D01*
X64072380Y-125230071D01*
X64120000Y-125134833D01*
X64167619Y-125087214D01*
X64262857Y-125039595D01*
X64358095Y-125039595D01*
X64500952Y-125087214D01*
X65072380Y-125658642D01*
X65072380Y-125039595D01*
%TO.C,D6*%
X26972380Y-127039595D02*
X25972380Y-127039595D01*
X25972380Y-126801500D01*
X26020000Y-126658642D01*
X26115238Y-126563404D01*
X26210476Y-126515785D01*
X26400952Y-126468166D01*
X26543809Y-126468166D01*
X26734285Y-126515785D01*
X26829523Y-126563404D01*
X26924761Y-126658642D01*
X26972380Y-126801500D01*
X26972380Y-127039595D01*
X25972380Y-125611023D02*
X25972380Y-125801500D01*
X26020000Y-125896738D01*
X26067619Y-125944357D01*
X26210476Y-126039595D01*
X26400952Y-126087214D01*
X26781904Y-126087214D01*
X26877142Y-126039595D01*
X26924761Y-125991976D01*
X26972380Y-125896738D01*
X26972380Y-125706261D01*
X26924761Y-125611023D01*
X26877142Y-125563404D01*
X26781904Y-125515785D01*
X26543809Y-125515785D01*
X26448571Y-125563404D01*
X26400952Y-125611023D01*
X26353333Y-125706261D01*
X26353333Y-125896738D01*
X26400952Y-125991976D01*
X26448571Y-126039595D01*
X26543809Y-126087214D01*
%TO.C,D5*%
X26972380Y-114339595D02*
X25972380Y-114339595D01*
X25972380Y-114101500D01*
X26020000Y-113958642D01*
X26115238Y-113863404D01*
X26210476Y-113815785D01*
X26400952Y-113768166D01*
X26543809Y-113768166D01*
X26734285Y-113815785D01*
X26829523Y-113863404D01*
X26924761Y-113958642D01*
X26972380Y-114101500D01*
X26972380Y-114339595D01*
X25972380Y-112863404D02*
X25972380Y-113339595D01*
X26448571Y-113387214D01*
X26400952Y-113339595D01*
X26353333Y-113244357D01*
X26353333Y-113006261D01*
X26400952Y-112911023D01*
X26448571Y-112863404D01*
X26543809Y-112815785D01*
X26781904Y-112815785D01*
X26877142Y-112863404D01*
X26924761Y-112911023D01*
X26972380Y-113006261D01*
X26972380Y-113244357D01*
X26924761Y-113339595D01*
X26877142Y-113387214D01*
%TO.C,D8*%
X43632380Y-107418095D02*
X42632380Y-107418095D01*
X42632380Y-107180000D01*
X42680000Y-107037142D01*
X42775238Y-106941904D01*
X42870476Y-106894285D01*
X43060952Y-106846666D01*
X43203809Y-106846666D01*
X43394285Y-106894285D01*
X43489523Y-106941904D01*
X43584761Y-107037142D01*
X43632380Y-107180000D01*
X43632380Y-107418095D01*
X43060952Y-106275238D02*
X43013333Y-106370476D01*
X42965714Y-106418095D01*
X42870476Y-106465714D01*
X42822857Y-106465714D01*
X42727619Y-106418095D01*
X42680000Y-106370476D01*
X42632380Y-106275238D01*
X42632380Y-106084761D01*
X42680000Y-105989523D01*
X42727619Y-105941904D01*
X42822857Y-105894285D01*
X42870476Y-105894285D01*
X42965714Y-105941904D01*
X43013333Y-105989523D01*
X43060952Y-106084761D01*
X43060952Y-106275238D01*
X43108571Y-106370476D01*
X43156190Y-106418095D01*
X43251428Y-106465714D01*
X43441904Y-106465714D01*
X43537142Y-106418095D01*
X43584761Y-106370476D01*
X43632380Y-106275238D01*
X43632380Y-106084761D01*
X43584761Y-105989523D01*
X43537142Y-105941904D01*
X43441904Y-105894285D01*
X43251428Y-105894285D01*
X43156190Y-105941904D01*
X43108571Y-105989523D01*
X43060952Y-106084761D01*
%TO.C,D4*%
X26972380Y-101639595D02*
X25972380Y-101639595D01*
X25972380Y-101401500D01*
X26020000Y-101258642D01*
X26115238Y-101163404D01*
X26210476Y-101115785D01*
X26400952Y-101068166D01*
X26543809Y-101068166D01*
X26734285Y-101115785D01*
X26829523Y-101163404D01*
X26924761Y-101258642D01*
X26972380Y-101401500D01*
X26972380Y-101639595D01*
X26305714Y-100211023D02*
X26972380Y-100211023D01*
X25924761Y-100449119D02*
X26639047Y-100687214D01*
X26639047Y-100068166D01*
%TO.C,D9*%
X52372380Y-88939595D02*
X51372380Y-88939595D01*
X51372380Y-88701500D01*
X51420000Y-88558642D01*
X51515238Y-88463404D01*
X51610476Y-88415785D01*
X51800952Y-88368166D01*
X51943809Y-88368166D01*
X52134285Y-88415785D01*
X52229523Y-88463404D01*
X52324761Y-88558642D01*
X52372380Y-88701500D01*
X52372380Y-88939595D01*
X52372380Y-87891976D02*
X52372380Y-87701500D01*
X52324761Y-87606261D01*
X52277142Y-87558642D01*
X52134285Y-87463404D01*
X51943809Y-87415785D01*
X51562857Y-87415785D01*
X51467619Y-87463404D01*
X51420000Y-87511023D01*
X51372380Y-87606261D01*
X51372380Y-87796738D01*
X51420000Y-87891976D01*
X51467619Y-87939595D01*
X51562857Y-87987214D01*
X51800952Y-87987214D01*
X51896190Y-87939595D01*
X51943809Y-87891976D01*
X51991428Y-87796738D01*
X51991428Y-87606261D01*
X51943809Y-87511023D01*
X51896190Y-87463404D01*
X51800952Y-87415785D01*
%TO.C,D3*%
X26972380Y-88939595D02*
X25972380Y-88939595D01*
X25972380Y-88701500D01*
X26020000Y-88558642D01*
X26115238Y-88463404D01*
X26210476Y-88415785D01*
X26400952Y-88368166D01*
X26543809Y-88368166D01*
X26734285Y-88415785D01*
X26829523Y-88463404D01*
X26924761Y-88558642D01*
X26972380Y-88701500D01*
X26972380Y-88939595D01*
X25972380Y-88034833D02*
X25972380Y-87415785D01*
X26353333Y-87749119D01*
X26353333Y-87606261D01*
X26400952Y-87511023D01*
X26448571Y-87463404D01*
X26543809Y-87415785D01*
X26781904Y-87415785D01*
X26877142Y-87463404D01*
X26924761Y-87511023D01*
X26972380Y-87606261D01*
X26972380Y-87891976D01*
X26924761Y-87987214D01*
X26877142Y-88034833D01*
%TO.C,D11*%
X65072380Y-76715785D02*
X64072380Y-76715785D01*
X64072380Y-76477690D01*
X64120000Y-76334833D01*
X64215238Y-76239595D01*
X64310476Y-76191976D01*
X64500952Y-76144357D01*
X64643809Y-76144357D01*
X64834285Y-76191976D01*
X64929523Y-76239595D01*
X65024761Y-76334833D01*
X65072380Y-76477690D01*
X65072380Y-76715785D01*
X65072380Y-75191976D02*
X65072380Y-75763404D01*
X65072380Y-75477690D02*
X64072380Y-75477690D01*
X64215238Y-75572928D01*
X64310476Y-75668166D01*
X64358095Y-75763404D01*
X65072380Y-74239595D02*
X65072380Y-74811023D01*
X65072380Y-74525309D02*
X64072380Y-74525309D01*
X64215238Y-74620547D01*
X64310476Y-74715785D01*
X64358095Y-74811023D01*
%TO.C,D2*%
X26972380Y-76239595D02*
X25972380Y-76239595D01*
X25972380Y-76001500D01*
X26020000Y-75858642D01*
X26115238Y-75763404D01*
X26210476Y-75715785D01*
X26400952Y-75668166D01*
X26543809Y-75668166D01*
X26734285Y-75715785D01*
X26829523Y-75763404D01*
X26924761Y-75858642D01*
X26972380Y-76001500D01*
X26972380Y-76239595D01*
X26067619Y-75287214D02*
X26020000Y-75239595D01*
X25972380Y-75144357D01*
X25972380Y-74906261D01*
X26020000Y-74811023D01*
X26067619Y-74763404D01*
X26162857Y-74715785D01*
X26258095Y-74715785D01*
X26400952Y-74763404D01*
X26972380Y-75334833D01*
X26972380Y-74715785D01*
%TO.C,D13*%
X77772380Y-64015785D02*
X76772380Y-64015785D01*
X76772380Y-63777690D01*
X76820000Y-63634833D01*
X76915238Y-63539595D01*
X77010476Y-63491976D01*
X77200952Y-63444357D01*
X77343809Y-63444357D01*
X77534285Y-63491976D01*
X77629523Y-63539595D01*
X77724761Y-63634833D01*
X77772380Y-63777690D01*
X77772380Y-64015785D01*
X77772380Y-62491976D02*
X77772380Y-63063404D01*
X77772380Y-62777690D02*
X76772380Y-62777690D01*
X76915238Y-62872928D01*
X77010476Y-62968166D01*
X77058095Y-63063404D01*
X76772380Y-62158642D02*
X76772380Y-61539595D01*
X77153333Y-61872928D01*
X77153333Y-61730071D01*
X77200952Y-61634833D01*
X77248571Y-61587214D01*
X77343809Y-61539595D01*
X77581904Y-61539595D01*
X77677142Y-61587214D01*
X77724761Y-61634833D01*
X77772380Y-61730071D01*
X77772380Y-62015785D01*
X77724761Y-62111023D01*
X77677142Y-62158642D01*
%TO.C,D1*%
X26972380Y-63539595D02*
X25972380Y-63539595D01*
X25972380Y-63301500D01*
X26020000Y-63158642D01*
X26115238Y-63063404D01*
X26210476Y-63015785D01*
X26400952Y-62968166D01*
X26543809Y-62968166D01*
X26734285Y-63015785D01*
X26829523Y-63063404D01*
X26924761Y-63158642D01*
X26972380Y-63301500D01*
X26972380Y-63539595D01*
X26972380Y-62015785D02*
X26972380Y-62587214D01*
X26972380Y-62301500D02*
X25972380Y-62301500D01*
X26115238Y-62396738D01*
X26210476Y-62491976D01*
X26258095Y-62587214D01*
%TO.C,C1*%
X41199142Y-62888666D02*
X41246761Y-62936285D01*
X41294380Y-63079142D01*
X41294380Y-63174380D01*
X41246761Y-63317238D01*
X41151523Y-63412476D01*
X41056285Y-63460095D01*
X40865809Y-63507714D01*
X40722952Y-63507714D01*
X40532476Y-63460095D01*
X40437238Y-63412476D01*
X40342000Y-63317238D01*
X40294380Y-63174380D01*
X40294380Y-63079142D01*
X40342000Y-62936285D01*
X40389619Y-62888666D01*
X41294380Y-61936285D02*
X41294380Y-62507714D01*
X41294380Y-62222000D02*
X40294380Y-62222000D01*
X40437238Y-62317238D01*
X40532476Y-62412476D01*
X40580095Y-62507714D01*
%TO.C,IC1*%
X32920380Y-52792190D02*
X31920380Y-52792190D01*
X32825142Y-51744571D02*
X32872761Y-51792190D01*
X32920380Y-51935047D01*
X32920380Y-52030285D01*
X32872761Y-52173142D01*
X32777523Y-52268380D01*
X32682285Y-52316000D01*
X32491809Y-52363619D01*
X32348952Y-52363619D01*
X32158476Y-52316000D01*
X32063238Y-52268380D01*
X31968000Y-52173142D01*
X31920380Y-52030285D01*
X31920380Y-51935047D01*
X31968000Y-51792190D01*
X32015619Y-51744571D01*
X32920380Y-50792190D02*
X32920380Y-51363619D01*
X32920380Y-51077904D02*
X31920380Y-51077904D01*
X32063238Y-51173142D01*
X32158476Y-51268380D01*
X32206095Y-51363619D01*
%TO.C,J1*%
X77416380Y-33099333D02*
X78130666Y-33099333D01*
X78273523Y-33146952D01*
X78368761Y-33242190D01*
X78416380Y-33385047D01*
X78416380Y-33480285D01*
X78416380Y-32099333D02*
X78416380Y-32670761D01*
X78416380Y-32385047D02*
X77416380Y-32385047D01*
X77559238Y-32480285D01*
X77654476Y-32575523D01*
X77702095Y-32670761D01*
%TO.C,C15*%
X84153142Y-39847142D02*
X84105523Y-39894761D01*
X83962666Y-39942380D01*
X83867428Y-39942380D01*
X83724571Y-39894761D01*
X83629333Y-39799523D01*
X83581714Y-39704285D01*
X83534095Y-39513809D01*
X83534095Y-39370952D01*
X83581714Y-39180476D01*
X83629333Y-39085238D01*
X83724571Y-38990000D01*
X83867428Y-38942380D01*
X83962666Y-38942380D01*
X84105523Y-38990000D01*
X84153142Y-39037619D01*
X85105523Y-39942380D02*
X84534095Y-39942380D01*
X84819809Y-39942380D02*
X84819809Y-38942380D01*
X84724571Y-39085238D01*
X84629333Y-39180476D01*
X84534095Y-39228095D01*
X86010285Y-38942380D02*
X85534095Y-38942380D01*
X85486476Y-39418571D01*
X85534095Y-39370952D01*
X85629333Y-39323333D01*
X85867428Y-39323333D01*
X85962666Y-39370952D01*
X86010285Y-39418571D01*
X86057904Y-39513809D01*
X86057904Y-39751904D01*
X86010285Y-39847142D01*
X85962666Y-39894761D01*
X85867428Y-39942380D01*
X85629333Y-39942380D01*
X85534095Y-39894761D01*
X85486476Y-39847142D01*
%TO.C,C16*%
X31039142Y-52442857D02*
X31086761Y-52490476D01*
X31134380Y-52633333D01*
X31134380Y-52728571D01*
X31086761Y-52871428D01*
X30991523Y-52966666D01*
X30896285Y-53014285D01*
X30705809Y-53061904D01*
X30562952Y-53061904D01*
X30372476Y-53014285D01*
X30277238Y-52966666D01*
X30182000Y-52871428D01*
X30134380Y-52728571D01*
X30134380Y-52633333D01*
X30182000Y-52490476D01*
X30229619Y-52442857D01*
X31134380Y-51490476D02*
X31134380Y-52061904D01*
X31134380Y-51776190D02*
X30134380Y-51776190D01*
X30277238Y-51871428D01*
X30372476Y-51966666D01*
X30420095Y-52061904D01*
X30134380Y-50633333D02*
X30134380Y-50823809D01*
X30182000Y-50919047D01*
X30229619Y-50966666D01*
X30372476Y-51061904D01*
X30562952Y-51109523D01*
X30943904Y-51109523D01*
X31039142Y-51061904D01*
X31086761Y-51014285D01*
X31134380Y-50919047D01*
X31134380Y-50728571D01*
X31086761Y-50633333D01*
X31039142Y-50585714D01*
X30943904Y-50538095D01*
X30705809Y-50538095D01*
X30610571Y-50585714D01*
X30562952Y-50633333D01*
X30515333Y-50728571D01*
X30515333Y-50919047D01*
X30562952Y-51014285D01*
X30610571Y-51061904D01*
X30705809Y-51109523D01*
%TD*%
M02*
