%TF.GenerationSoftware,KiCad,Pcbnew,(5.1.9)-1*%
%TF.CreationDate,2021-02-28T12:15:39-08:00*%
%TF.ProjectId,namebadge,6e616d65-6261-4646-9765-2e6b69636164,v0.1*%
%TF.SameCoordinates,Original*%
%TF.FileFunction,Copper,L1,Top*%
%TF.FilePolarity,Positive*%
%FSLAX46Y46*%
G04 Gerber Fmt 4.6, Leading zero omitted, Abs format (unit mm)*
G04 Created by KiCad (PCBNEW (5.1.9)-1) date 2021-02-28 12:15:39*
%MOMM*%
%LPD*%
G01*
G04 APERTURE LIST*
%TA.AperFunction,ComponentPad*%
%ADD10O,3.048000X1.850000*%
%TD*%
%TA.AperFunction,ComponentPad*%
%ADD11O,1.600000X1.600000*%
%TD*%
%TA.AperFunction,ComponentPad*%
%ADD12C,1.600000*%
%TD*%
%TA.AperFunction,ComponentPad*%
%ADD13O,1.700000X1.700000*%
%TD*%
%TA.AperFunction,SMDPad,CuDef*%
%ADD14R,3.500000X1.700000*%
%TD*%
%TA.AperFunction,ComponentPad*%
%ADD15R,1.700000X1.700000*%
%TD*%
%TA.AperFunction,SMDPad,CuDef*%
%ADD16R,1.700000X3.500000*%
%TD*%
%TA.AperFunction,ComponentPad*%
%ADD17R,1.800000X1.800000*%
%TD*%
%TA.AperFunction,ComponentPad*%
%ADD18C,1.800000*%
%TD*%
%TA.AperFunction,ComponentPad*%
%ADD19C,1.200000*%
%TD*%
%TA.AperFunction,ComponentPad*%
%ADD20R,1.200000X1.200000*%
%TD*%
%TA.AperFunction,ComponentPad*%
%ADD21R,1.600000X1.600000*%
%TD*%
%TA.AperFunction,ComponentPad*%
%ADD22O,3.500000X2.000000*%
%TD*%
%TA.AperFunction,ComponentPad*%
%ADD23O,2.000000X3.300000*%
%TD*%
%TA.AperFunction,ComponentPad*%
%ADD24R,2.000000X4.000000*%
%TD*%
%TA.AperFunction,ComponentPad*%
%ADD25R,2.400000X2.400000*%
%TD*%
%TA.AperFunction,ComponentPad*%
%ADD26C,2.400000*%
%TD*%
%TA.AperFunction,Conductor*%
%ADD27C,0.250000*%
%TD*%
G04 APERTURE END LIST*
D10*
%TO.P,SW1,1*%
%TO.N,GND*%
X69650000Y-52832000D03*
%TO.P,SW1,2*%
%TO.N,Net-(SW1-Pad2)*%
X69650000Y-57832000D03*
%TO.P,SW1,1*%
%TO.N,GND*%
X57150000Y-52832000D03*
%TO.P,SW1,2*%
%TO.N,Net-(SW1-Pad2)*%
X57150000Y-57832000D03*
%TD*%
D11*
%TO.P,R1,2*%
%TO.N,Net-(IC1-Pad11)*%
X53594000Y-70104000D03*
D12*
%TO.P,R1,1*%
%TO.N,/letter-k/LED_DIN*%
X43434000Y-70104000D03*
%TD*%
D13*
%TO.P,U1,43*%
%TO.N,Net-(U1-Pad43)*%
X73938000Y-30480000D03*
D14*
X74838000Y-30480000D03*
D15*
%TO.P,U1,42*%
%TO.N,Net-(U1-Pad42)*%
X73938000Y-33020000D03*
D14*
X74838000Y-33020000D03*
D13*
%TO.P,U1,41*%
%TO.N,Net-(U1-Pad41)*%
X73938000Y-35560000D03*
D14*
X74838000Y-35560000D03*
D16*
%TO.P,U1,21*%
%TO.N,Net-(U1-Pad21)*%
X74168000Y-23230000D03*
%TO.P,U1,22*%
%TO.N,Net-(U1-Pad22)*%
X71628000Y-23230000D03*
%TO.P,U1,23*%
%TO.N,GND*%
X69088000Y-23230000D03*
%TO.P,U1,24*%
%TO.N,Net-(U1-Pad24)*%
X66548000Y-23230000D03*
%TO.P,U1,25*%
%TO.N,Net-(U1-Pad25)*%
X64008000Y-23230000D03*
%TO.P,U1,26*%
%TO.N,Net-(U1-Pad26)*%
X61468000Y-23230000D03*
%TO.P,U1,27*%
%TO.N,Net-(U1-Pad27)*%
X58928000Y-23230000D03*
%TO.P,U1,28*%
%TO.N,GND*%
X56388000Y-23230000D03*
%TO.P,U1,29*%
%TO.N,Net-(U1-Pad29)*%
X53848000Y-23230000D03*
%TO.P,U1,30*%
%TO.N,Net-(U1-Pad30)*%
X51308000Y-23230000D03*
%TO.P,U1,31*%
%TO.N,Net-(U1-Pad31)*%
X48768000Y-23230000D03*
%TO.P,U1,32*%
%TO.N,Net-(U1-Pad32)*%
X46228000Y-23230000D03*
%TO.P,U1,33*%
%TO.N,GND*%
X43688000Y-23230000D03*
%TO.P,U1,34*%
%TO.N,Net-(U1-Pad34)*%
X41148000Y-23230000D03*
%TO.P,U1,35*%
%TO.N,Net-(U1-Pad35)*%
X38608000Y-23230000D03*
%TO.P,U1,36*%
%TO.N,Net-(U1-Pad36)*%
X36068000Y-23230000D03*
%TO.P,U1,37*%
%TO.N,Net-(U1-Pad37)*%
X33528000Y-23230000D03*
%TO.P,U1,38*%
%TO.N,GND*%
X30988000Y-23230000D03*
%TO.P,U1,39*%
%TO.N,Net-(U1-Pad39)*%
X28448000Y-23230000D03*
%TO.P,U1,40*%
%TO.N,VCC*%
X25908000Y-23230000D03*
%TO.P,U1,20*%
%TO.N,Net-(SW1-Pad2)*%
X74168000Y-42810000D03*
%TO.P,U1,19*%
%TO.N,Net-(U1-Pad19)*%
X71628000Y-42810000D03*
%TO.P,U1,18*%
%TO.N,GND*%
X69088000Y-42810000D03*
%TO.P,U1,17*%
%TO.N,Net-(U1-Pad17)*%
X66548000Y-42810000D03*
%TO.P,U1,16*%
%TO.N,Net-(U1-Pad16)*%
X64008000Y-42810000D03*
%TO.P,U1,15*%
%TO.N,Net-(U1-Pad15)*%
X61468000Y-42810000D03*
%TO.P,U1,14*%
%TO.N,Net-(U1-Pad14)*%
X58928000Y-42810000D03*
%TO.P,U1,13*%
%TO.N,GND*%
X56388000Y-42810000D03*
%TO.P,U1,12*%
%TO.N,Net-(U1-Pad12)*%
X53848000Y-42810000D03*
%TO.P,U1,11*%
%TO.N,Net-(U1-Pad11)*%
X51308000Y-42810000D03*
%TO.P,U1,10*%
%TO.N,Net-(U1-Pad10)*%
X48768000Y-42810000D03*
%TO.P,U1,9*%
%TO.N,Net-(U1-Pad9)*%
X46228000Y-42810000D03*
%TO.P,U1,8*%
%TO.N,GND*%
X43688000Y-42810000D03*
%TO.P,U1,7*%
%TO.N,Net-(U1-Pad7)*%
X41148000Y-42810000D03*
%TO.P,U1,6*%
%TO.N,Net-(U1-Pad6)*%
X38608000Y-42810000D03*
%TO.P,U1,5*%
%TO.N,Net-(U1-Pad5)*%
X36068000Y-42810000D03*
%TO.P,U1,4*%
%TO.N,Net-(U1-Pad4)*%
X33528000Y-42810000D03*
%TO.P,U1,3*%
%TO.N,GND*%
X30988000Y-42810000D03*
%TO.P,U1,2*%
%TO.N,Net-(U1-Pad2)*%
X28448000Y-42810000D03*
%TO.P,U1,1*%
%TO.N,Net-(IC1-Pad12)*%
X25908000Y-42810000D03*
D13*
%TO.P,U1,40*%
%TO.N,VCC*%
X25908000Y-24130000D03*
%TO.P,U1,39*%
%TO.N,Net-(U1-Pad39)*%
X28448000Y-24130000D03*
D15*
%TO.P,U1,38*%
%TO.N,GND*%
X30988000Y-24130000D03*
D13*
%TO.P,U1,37*%
%TO.N,Net-(U1-Pad37)*%
X33528000Y-24130000D03*
%TO.P,U1,36*%
%TO.N,Net-(U1-Pad36)*%
X36068000Y-24130000D03*
%TO.P,U1,35*%
%TO.N,Net-(U1-Pad35)*%
X38608000Y-24130000D03*
%TO.P,U1,34*%
%TO.N,Net-(U1-Pad34)*%
X41148000Y-24130000D03*
D15*
%TO.P,U1,33*%
%TO.N,GND*%
X43688000Y-24130000D03*
D13*
%TO.P,U1,32*%
%TO.N,Net-(U1-Pad32)*%
X46228000Y-24130000D03*
%TO.P,U1,31*%
%TO.N,Net-(U1-Pad31)*%
X48768000Y-24130000D03*
%TO.P,U1,30*%
%TO.N,Net-(U1-Pad30)*%
X51308000Y-24130000D03*
%TO.P,U1,29*%
%TO.N,Net-(U1-Pad29)*%
X53848000Y-24130000D03*
D15*
%TO.P,U1,28*%
%TO.N,GND*%
X56388000Y-24130000D03*
D13*
%TO.P,U1,27*%
%TO.N,Net-(U1-Pad27)*%
X58928000Y-24130000D03*
%TO.P,U1,26*%
%TO.N,Net-(U1-Pad26)*%
X61468000Y-24130000D03*
%TO.P,U1,25*%
%TO.N,Net-(U1-Pad25)*%
X64008000Y-24130000D03*
%TO.P,U1,24*%
%TO.N,Net-(U1-Pad24)*%
X66548000Y-24130000D03*
D15*
%TO.P,U1,23*%
%TO.N,GND*%
X69088000Y-24130000D03*
D13*
%TO.P,U1,22*%
%TO.N,Net-(U1-Pad22)*%
X71628000Y-24130000D03*
%TO.P,U1,21*%
%TO.N,Net-(U1-Pad21)*%
X74168000Y-24130000D03*
%TO.P,U1,20*%
%TO.N,Net-(SW1-Pad2)*%
X74168000Y-41910000D03*
%TO.P,U1,19*%
%TO.N,Net-(U1-Pad19)*%
X71628000Y-41910000D03*
D15*
%TO.P,U1,18*%
%TO.N,GND*%
X69088000Y-41910000D03*
D13*
%TO.P,U1,17*%
%TO.N,Net-(U1-Pad17)*%
X66548000Y-41910000D03*
%TO.P,U1,16*%
%TO.N,Net-(U1-Pad16)*%
X64008000Y-41910000D03*
%TO.P,U1,15*%
%TO.N,Net-(U1-Pad15)*%
X61468000Y-41910000D03*
%TO.P,U1,14*%
%TO.N,Net-(U1-Pad14)*%
X58928000Y-41910000D03*
D15*
%TO.P,U1,13*%
%TO.N,GND*%
X56388000Y-41910000D03*
D13*
%TO.P,U1,12*%
%TO.N,Net-(U1-Pad12)*%
X53848000Y-41910000D03*
%TO.P,U1,11*%
%TO.N,Net-(U1-Pad11)*%
X51308000Y-41910000D03*
%TO.P,U1,10*%
%TO.N,Net-(U1-Pad10)*%
X48768000Y-41910000D03*
%TO.P,U1,9*%
%TO.N,Net-(U1-Pad9)*%
X46228000Y-41910000D03*
D15*
%TO.P,U1,8*%
%TO.N,GND*%
X43688000Y-41910000D03*
D13*
%TO.P,U1,7*%
%TO.N,Net-(U1-Pad7)*%
X41148000Y-41910000D03*
%TO.P,U1,6*%
%TO.N,Net-(U1-Pad6)*%
X38608000Y-41910000D03*
%TO.P,U1,5*%
%TO.N,Net-(U1-Pad5)*%
X36068000Y-41910000D03*
%TO.P,U1,4*%
%TO.N,Net-(U1-Pad4)*%
X33528000Y-41910000D03*
D15*
%TO.P,U1,3*%
%TO.N,GND*%
X30988000Y-41910000D03*
D13*
%TO.P,U1,2*%
%TO.N,Net-(U1-Pad2)*%
X28448000Y-41910000D03*
%TO.P,U1,1*%
%TO.N,Net-(IC1-Pad12)*%
X25908000Y-41910000D03*
%TD*%
D17*
%TO.P,D10,1*%
%TO.N,Net-(D10-Pad1)*%
X55880000Y-116840000D03*
D18*
%TO.P,D10,2*%
%TO.N,GND*%
X55880000Y-114681000D03*
%TO.P,D10,3*%
%TO.N,VCC*%
X55880000Y-112522000D03*
%TO.P,D10,4*%
%TO.N,Net-(D10-Pad4)*%
X55880000Y-110363000D03*
%TD*%
D19*
%TO.P,C14,2*%
%TO.N,GND*%
X88392000Y-139922000D03*
D20*
%TO.P,C14,1*%
%TO.N,VCC*%
X88392000Y-137922000D03*
%TD*%
D19*
%TO.P,C7,2*%
%TO.N,GND*%
X37592000Y-139922000D03*
D20*
%TO.P,C7,1*%
%TO.N,VCC*%
X37592000Y-137922000D03*
%TD*%
D19*
%TO.P,C12,2*%
%TO.N,GND*%
X75692000Y-127222000D03*
D20*
%TO.P,C12,1*%
%TO.N,VCC*%
X75692000Y-125222000D03*
%TD*%
D19*
%TO.P,C6,2*%
%TO.N,GND*%
X37592000Y-127222000D03*
D20*
%TO.P,C6,1*%
%TO.N,VCC*%
X37592000Y-125222000D03*
%TD*%
D19*
%TO.P,C10,2*%
%TO.N,GND*%
X62992000Y-114522000D03*
D20*
%TO.P,C10,1*%
%TO.N,VCC*%
X62992000Y-112522000D03*
%TD*%
D19*
%TO.P,C5,2*%
%TO.N,GND*%
X37592000Y-114522000D03*
D20*
%TO.P,C5,1*%
%TO.N,VCC*%
X37592000Y-112522000D03*
%TD*%
D19*
%TO.P,C8,2*%
%TO.N,GND*%
X50292000Y-101822000D03*
D20*
%TO.P,C8,1*%
%TO.N,VCC*%
X50292000Y-99822000D03*
%TD*%
D19*
%TO.P,C4,2*%
%TO.N,GND*%
X37592000Y-101822000D03*
D20*
%TO.P,C4,1*%
%TO.N,VCC*%
X37592000Y-99822000D03*
%TD*%
D19*
%TO.P,C9,2*%
%TO.N,GND*%
X62992000Y-89122000D03*
D20*
%TO.P,C9,1*%
%TO.N,VCC*%
X62992000Y-87122000D03*
%TD*%
D19*
%TO.P,C3,2*%
%TO.N,GND*%
X37592000Y-89122000D03*
D20*
%TO.P,C3,1*%
%TO.N,VCC*%
X37592000Y-87122000D03*
%TD*%
D19*
%TO.P,C11,2*%
%TO.N,GND*%
X75692000Y-76422000D03*
D20*
%TO.P,C11,1*%
%TO.N,VCC*%
X75692000Y-74422000D03*
%TD*%
D19*
%TO.P,C2,2*%
%TO.N,GND*%
X37592000Y-76422000D03*
D20*
%TO.P,C2,1*%
%TO.N,VCC*%
X37592000Y-74422000D03*
%TD*%
D19*
%TO.P,C13,2*%
%TO.N,GND*%
X88392000Y-63722000D03*
D20*
%TO.P,C13,1*%
%TO.N,VCC*%
X88392000Y-61722000D03*
%TD*%
D17*
%TO.P,D14,1*%
%TO.N,Net-(D14-Pad1)*%
X81280000Y-142240000D03*
D18*
%TO.P,D14,2*%
%TO.N,GND*%
X81280000Y-140081000D03*
%TO.P,D14,3*%
%TO.N,VCC*%
X81280000Y-137922000D03*
%TO.P,D14,4*%
%TO.N,Net-(D12-Pad1)*%
X81280000Y-135763000D03*
%TD*%
D17*
%TO.P,D7,1*%
%TO.N,Net-(D7-Pad1)*%
X30480000Y-142240000D03*
D18*
%TO.P,D7,2*%
%TO.N,GND*%
X30480000Y-140081000D03*
%TO.P,D7,3*%
%TO.N,VCC*%
X30480000Y-137922000D03*
%TO.P,D7,4*%
%TO.N,Net-(D6-Pad1)*%
X30480000Y-135763000D03*
%TD*%
D17*
%TO.P,D12,1*%
%TO.N,Net-(D12-Pad1)*%
X68580000Y-129540000D03*
D18*
%TO.P,D12,2*%
%TO.N,GND*%
X68580000Y-127381000D03*
%TO.P,D12,3*%
%TO.N,VCC*%
X68580000Y-125222000D03*
%TO.P,D12,4*%
%TO.N,Net-(D10-Pad1)*%
X68580000Y-123063000D03*
%TD*%
D17*
%TO.P,D6,1*%
%TO.N,Net-(D6-Pad1)*%
X30480000Y-129540000D03*
D18*
%TO.P,D6,2*%
%TO.N,GND*%
X30480000Y-127381000D03*
%TO.P,D6,3*%
%TO.N,VCC*%
X30480000Y-125222000D03*
%TO.P,D6,4*%
%TO.N,Net-(D5-Pad1)*%
X30480000Y-123063000D03*
%TD*%
D17*
%TO.P,D5,1*%
%TO.N,Net-(D5-Pad1)*%
X30480000Y-116840000D03*
D18*
%TO.P,D5,2*%
%TO.N,GND*%
X30480000Y-114681000D03*
%TO.P,D5,3*%
%TO.N,VCC*%
X30480000Y-112522000D03*
%TO.P,D5,4*%
%TO.N,Net-(D4-Pad1)*%
X30480000Y-110363000D03*
%TD*%
D17*
%TO.P,D8,1*%
%TO.N,Net-(D8-Pad1)*%
X43180000Y-104140000D03*
D18*
%TO.P,D8,2*%
%TO.N,GND*%
X43180000Y-101981000D03*
%TO.P,D8,3*%
%TO.N,VCC*%
X43180000Y-99822000D03*
%TO.P,D8,4*%
%TO.N,Net-(D7-Pad1)*%
X43180000Y-97663000D03*
%TD*%
D17*
%TO.P,D4,1*%
%TO.N,Net-(D4-Pad1)*%
X30480000Y-104140000D03*
D18*
%TO.P,D4,2*%
%TO.N,GND*%
X30480000Y-101981000D03*
%TO.P,D4,3*%
%TO.N,VCC*%
X30480000Y-99822000D03*
%TO.P,D4,4*%
%TO.N,Net-(D3-Pad1)*%
X30480000Y-97663000D03*
%TD*%
D17*
%TO.P,D9,1*%
%TO.N,Net-(D11-Pad4)*%
X55880000Y-91440000D03*
D18*
%TO.P,D9,2*%
%TO.N,GND*%
X55880000Y-89281000D03*
%TO.P,D9,3*%
%TO.N,VCC*%
X55880000Y-87122000D03*
%TO.P,D9,4*%
%TO.N,Net-(D8-Pad1)*%
X55880000Y-84963000D03*
%TD*%
D17*
%TO.P,D3,1*%
%TO.N,Net-(D3-Pad1)*%
X30480000Y-91440000D03*
D18*
%TO.P,D3,2*%
%TO.N,GND*%
X30480000Y-89281000D03*
%TO.P,D3,3*%
%TO.N,VCC*%
X30480000Y-87122000D03*
%TO.P,D3,4*%
%TO.N,Net-(D2-Pad1)*%
X30480000Y-84963000D03*
%TD*%
D17*
%TO.P,D11,1*%
%TO.N,Net-(D11-Pad1)*%
X68580000Y-78740000D03*
D18*
%TO.P,D11,2*%
%TO.N,GND*%
X68580000Y-76581000D03*
%TO.P,D11,3*%
%TO.N,VCC*%
X68580000Y-74422000D03*
%TO.P,D11,4*%
%TO.N,Net-(D11-Pad4)*%
X68580000Y-72263000D03*
%TD*%
D17*
%TO.P,D2,1*%
%TO.N,Net-(D2-Pad1)*%
X30480000Y-78740000D03*
D18*
%TO.P,D2,2*%
%TO.N,GND*%
X30480000Y-76581000D03*
%TO.P,D2,3*%
%TO.N,VCC*%
X30480000Y-74422000D03*
%TO.P,D2,4*%
%TO.N,Net-(D1-Pad1)*%
X30480000Y-72263000D03*
%TD*%
D17*
%TO.P,D13,1*%
%TO.N,Net-(D10-Pad4)*%
X81280000Y-66040000D03*
D18*
%TO.P,D13,2*%
%TO.N,GND*%
X81280000Y-63881000D03*
%TO.P,D13,3*%
%TO.N,VCC*%
X81280000Y-61722000D03*
%TO.P,D13,4*%
%TO.N,Net-(D11-Pad1)*%
X81280000Y-59563000D03*
%TD*%
%TO.P,D1,4*%
%TO.N,/letter-k/LED_DIN*%
X30480000Y-59563000D03*
%TO.P,D1,3*%
%TO.N,VCC*%
X30480000Y-61722000D03*
%TO.P,D1,2*%
%TO.N,GND*%
X30480000Y-63881000D03*
D17*
%TO.P,D1,1*%
%TO.N,Net-(D1-Pad1)*%
X30480000Y-66040000D03*
%TD*%
D20*
%TO.P,C1,1*%
%TO.N,VCC*%
X37592000Y-61722000D03*
D19*
%TO.P,C1,2*%
%TO.N,GND*%
X37592000Y-63722000D03*
%TD*%
D21*
%TO.P,IC1,1*%
%TO.N,Net-(IC1-Pad1)*%
X34798000Y-55626000D03*
D11*
%TO.P,IC1,8*%
%TO.N,Net-(IC1-Pad8)*%
X50038000Y-48006000D03*
%TO.P,IC1,2*%
%TO.N,Net-(IC1-Pad2)*%
X37338000Y-55626000D03*
%TO.P,IC1,9*%
%TO.N,Net-(IC1-Pad9)*%
X47498000Y-48006000D03*
%TO.P,IC1,3*%
%TO.N,Net-(IC1-Pad3)*%
X39878000Y-55626000D03*
%TO.P,IC1,10*%
%TO.N,Net-(IC1-Pad10)*%
X44958000Y-48006000D03*
%TO.P,IC1,4*%
%TO.N,Net-(IC1-Pad4)*%
X42418000Y-55626000D03*
%TO.P,IC1,11*%
%TO.N,Net-(IC1-Pad11)*%
X42418000Y-48006000D03*
%TO.P,IC1,5*%
%TO.N,Net-(IC1-Pad5)*%
X44958000Y-55626000D03*
%TO.P,IC1,12*%
%TO.N,Net-(IC1-Pad12)*%
X39878000Y-48006000D03*
%TO.P,IC1,6*%
%TO.N,Net-(IC1-Pad6)*%
X47498000Y-55626000D03*
%TO.P,IC1,13*%
%TO.N,GND*%
X37338000Y-48006000D03*
%TO.P,IC1,7*%
X50038000Y-55626000D03*
%TO.P,IC1,14*%
%TO.N,VCC*%
X34798000Y-48006000D03*
%TD*%
D22*
%TO.P,J1,MP*%
%TO.N,N/C*%
X87264000Y-28266000D03*
X87264000Y-37266000D03*
D23*
%TO.P,J1,2*%
%TO.N,GND*%
X86264000Y-32766000D03*
D24*
%TO.P,J1,1*%
%TO.N,VCC*%
X80264000Y-32766000D03*
%TD*%
D25*
%TO.P,C15,1*%
%TO.N,VCC*%
X82296000Y-46990000D03*
D26*
%TO.P,C15,2*%
%TO.N,GND*%
X87296000Y-46990000D03*
%TD*%
D20*
%TO.P,C16,1*%
%TO.N,VCC*%
X27432000Y-50800000D03*
D19*
%TO.P,C16,2*%
%TO.N,GND*%
X27432000Y-52800000D03*
%TD*%
D27*
%TO.N,Net-(D1-Pad1)*%
X30480000Y-66040000D02*
X30480000Y-72263000D01*
%TO.N,Net-(D2-Pad1)*%
X30480000Y-78740000D02*
X30480000Y-84963000D01*
%TO.N,Net-(D3-Pad1)*%
X30480000Y-91440000D02*
X30480000Y-97663000D01*
%TO.N,Net-(D4-Pad1)*%
X30480000Y-104140000D02*
X30480000Y-110363000D01*
%TO.N,Net-(D5-Pad1)*%
X30480000Y-116840000D02*
X30480000Y-123063000D01*
%TO.N,Net-(D6-Pad1)*%
X30480000Y-129540000D02*
X30480000Y-135763000D01*
%TO.N,Net-(D7-Pad1)*%
X44577000Y-97663000D02*
X43180000Y-97663000D01*
X46736000Y-99822000D02*
X44577000Y-97663000D01*
X46736000Y-134874000D02*
X46736000Y-99822000D01*
X39370000Y-142240000D02*
X46736000Y-134874000D01*
X30480000Y-142240000D02*
X39370000Y-142240000D01*
%TO.N,Net-(D8-Pad1)*%
X39878000Y-97790000D02*
X52705000Y-84963000D01*
X39878000Y-102108000D02*
X39878000Y-97790000D01*
X41910000Y-104140000D02*
X39878000Y-102108000D01*
X52705000Y-84963000D02*
X55880000Y-84963000D01*
X43180000Y-104140000D02*
X41910000Y-104140000D01*
%TO.N,Net-(D11-Pad4)*%
X58166000Y-91440000D02*
X55880000Y-91440000D01*
X59690000Y-89916000D02*
X58166000Y-91440000D01*
X59690000Y-85852000D02*
X59690000Y-89916000D01*
X60960000Y-84582000D02*
X59690000Y-85852000D01*
X62738000Y-84582000D02*
X60960000Y-84582000D01*
X63500000Y-73406000D02*
X63500000Y-83820000D01*
X64643000Y-72263000D02*
X63500000Y-73406000D01*
X63500000Y-83820000D02*
X62738000Y-84582000D01*
X68580000Y-72263000D02*
X64643000Y-72263000D01*
%TO.N,Net-(D10-Pad1)*%
X65913000Y-123063000D02*
X68580000Y-123063000D01*
X59690000Y-116840000D02*
X65913000Y-123063000D01*
X55880000Y-116840000D02*
X59690000Y-116840000D01*
%TO.N,Net-(D10-Pad4)*%
X81280000Y-84963000D02*
X55880000Y-110363000D01*
X81280000Y-66040000D02*
X81280000Y-84963000D01*
%TO.N,Net-(D11-Pad1)*%
X72390000Y-66294000D02*
X79121000Y-59563000D01*
X79121000Y-59563000D02*
X81280000Y-59563000D01*
X72390000Y-77216000D02*
X72390000Y-66294000D01*
X70866000Y-78740000D02*
X72390000Y-77216000D01*
X68580000Y-78740000D02*
X70866000Y-78740000D01*
%TO.N,Net-(D12-Pad1)*%
X78613000Y-135763000D02*
X81280000Y-135763000D01*
X72390000Y-129540000D02*
X78613000Y-135763000D01*
X68580000Y-129540000D02*
X72390000Y-129540000D01*
%TO.N,/letter-k/LED_DIN*%
X41402000Y-65278000D02*
X41402000Y-64770000D01*
X41402000Y-69596000D02*
X41402000Y-64770000D01*
X41910000Y-70104000D02*
X41402000Y-69596000D01*
X43434000Y-70104000D02*
X41910000Y-70104000D01*
X31623000Y-58420000D02*
X30480000Y-59563000D01*
X39370000Y-58420000D02*
X31623000Y-58420000D01*
X41402000Y-60452000D02*
X39370000Y-58420000D01*
X41402000Y-64770000D02*
X41402000Y-60452000D01*
%TO.N,Net-(IC1-Pad11)*%
X44196000Y-51816000D02*
X42418000Y-50038000D01*
X52578000Y-51816000D02*
X44196000Y-51816000D01*
X53594000Y-52832000D02*
X52578000Y-51816000D01*
X53594000Y-69850000D02*
X53594000Y-52832000D01*
X42418000Y-50038000D02*
X42418000Y-48006000D01*
X53340000Y-70104000D02*
X53594000Y-69850000D01*
%TO.N,Net-(IC1-Pad12)*%
X39878000Y-46990000D02*
X39878000Y-48006000D01*
X38862000Y-45974000D02*
X39878000Y-46990000D01*
X26924000Y-45974000D02*
X38862000Y-45974000D01*
X25908000Y-44958000D02*
X26924000Y-45974000D01*
X25908000Y-41910000D02*
X25908000Y-44958000D01*
%TO.N,Net-(SW1-Pad2)*%
X69650000Y-57832000D02*
X71454000Y-57832000D01*
X74168000Y-55118000D02*
X74168000Y-41910000D01*
X71454000Y-57832000D02*
X74168000Y-55118000D01*
X69650000Y-57832000D02*
X57150000Y-57832000D01*
%TD*%
M02*
