%TF.GenerationSoftware,KiCad,Pcbnew,(5.1.9)-1*%
%TF.CreationDate,2021-02-28T12:15:39-08:00*%
%TF.ProjectId,namebadge,6e616d65-6261-4646-9765-2e6b69636164,v0.1*%
%TF.SameCoordinates,Original*%
%TF.FileFunction,Soldermask,Bot*%
%TF.FilePolarity,Negative*%
%FSLAX46Y46*%
G04 Gerber Fmt 4.6, Leading zero omitted, Abs format (unit mm)*
G04 Created by KiCad (PCBNEW (5.1.9)-1) date 2021-02-28 12:15:39*
%MOMM*%
%LPD*%
G01*
G04 APERTURE LIST*
%ADD10O,3.048000X1.850000*%
%ADD11O,1.600000X1.600000*%
%ADD12C,1.600000*%
%ADD13O,1.700000X1.700000*%
%ADD14R,1.700000X1.700000*%
%ADD15O,1.500000X1.500000*%
%ADD16O,1.800000X1.800000*%
%ADD17R,1.800000X1.800000*%
%ADD18C,1.800000*%
%ADD19C,1.200000*%
%ADD20R,1.200000X1.200000*%
%ADD21R,1.600000X1.600000*%
%ADD22O,3.500000X2.000000*%
%ADD23O,2.000000X3.300000*%
%ADD24R,2.000000X4.000000*%
%ADD25R,2.400000X2.400000*%
%ADD26C,2.400000*%
G04 APERTURE END LIST*
D10*
%TO.C,SW1*%
X69650000Y-52832000D03*
X69650000Y-57832000D03*
X57150000Y-52832000D03*
X57150000Y-57832000D03*
%TD*%
D11*
%TO.C,R1*%
X53594000Y-70104000D03*
D12*
X43434000Y-70104000D03*
%TD*%
D13*
%TO.C,U1*%
X73938000Y-30480000D03*
D14*
X73938000Y-33020000D03*
D13*
X73938000Y-35560000D03*
D15*
X29068000Y-30595000D03*
X29068000Y-35445000D03*
D16*
X26038000Y-30295000D03*
X26038000Y-35745000D03*
D13*
X25908000Y-24130000D03*
X28448000Y-24130000D03*
D14*
X30988000Y-24130000D03*
D13*
X33528000Y-24130000D03*
X36068000Y-24130000D03*
X38608000Y-24130000D03*
X41148000Y-24130000D03*
D14*
X43688000Y-24130000D03*
D13*
X46228000Y-24130000D03*
X48768000Y-24130000D03*
X51308000Y-24130000D03*
X53848000Y-24130000D03*
D14*
X56388000Y-24130000D03*
D13*
X58928000Y-24130000D03*
X61468000Y-24130000D03*
X64008000Y-24130000D03*
X66548000Y-24130000D03*
D14*
X69088000Y-24130000D03*
D13*
X71628000Y-24130000D03*
X74168000Y-24130000D03*
X74168000Y-41910000D03*
X71628000Y-41910000D03*
D14*
X69088000Y-41910000D03*
D13*
X66548000Y-41910000D03*
X64008000Y-41910000D03*
X61468000Y-41910000D03*
X58928000Y-41910000D03*
D14*
X56388000Y-41910000D03*
D13*
X53848000Y-41910000D03*
X51308000Y-41910000D03*
X48768000Y-41910000D03*
X46228000Y-41910000D03*
D14*
X43688000Y-41910000D03*
D13*
X41148000Y-41910000D03*
X38608000Y-41910000D03*
X36068000Y-41910000D03*
X33528000Y-41910000D03*
D14*
X30988000Y-41910000D03*
D13*
X28448000Y-41910000D03*
X25908000Y-41910000D03*
%TD*%
D17*
%TO.C,D10*%
X55880000Y-116840000D03*
D18*
X55880000Y-114681000D03*
X55880000Y-112522000D03*
X55880000Y-110363000D03*
%TD*%
D19*
%TO.C,C14*%
X88392000Y-139922000D03*
D20*
X88392000Y-137922000D03*
%TD*%
D19*
%TO.C,C7*%
X37592000Y-139922000D03*
D20*
X37592000Y-137922000D03*
%TD*%
D19*
%TO.C,C12*%
X75692000Y-127222000D03*
D20*
X75692000Y-125222000D03*
%TD*%
D19*
%TO.C,C6*%
X37592000Y-127222000D03*
D20*
X37592000Y-125222000D03*
%TD*%
D19*
%TO.C,C10*%
X62992000Y-114522000D03*
D20*
X62992000Y-112522000D03*
%TD*%
D19*
%TO.C,C5*%
X37592000Y-114522000D03*
D20*
X37592000Y-112522000D03*
%TD*%
D19*
%TO.C,C8*%
X50292000Y-101822000D03*
D20*
X50292000Y-99822000D03*
%TD*%
D19*
%TO.C,C4*%
X37592000Y-101822000D03*
D20*
X37592000Y-99822000D03*
%TD*%
D19*
%TO.C,C9*%
X62992000Y-89122000D03*
D20*
X62992000Y-87122000D03*
%TD*%
D19*
%TO.C,C3*%
X37592000Y-89122000D03*
D20*
X37592000Y-87122000D03*
%TD*%
D19*
%TO.C,C11*%
X75692000Y-76422000D03*
D20*
X75692000Y-74422000D03*
%TD*%
D19*
%TO.C,C2*%
X37592000Y-76422000D03*
D20*
X37592000Y-74422000D03*
%TD*%
D19*
%TO.C,C13*%
X88392000Y-63722000D03*
D20*
X88392000Y-61722000D03*
%TD*%
D17*
%TO.C,D14*%
X81280000Y-142240000D03*
D18*
X81280000Y-140081000D03*
X81280000Y-137922000D03*
X81280000Y-135763000D03*
%TD*%
D17*
%TO.C,D7*%
X30480000Y-142240000D03*
D18*
X30480000Y-140081000D03*
X30480000Y-137922000D03*
X30480000Y-135763000D03*
%TD*%
D17*
%TO.C,D12*%
X68580000Y-129540000D03*
D18*
X68580000Y-127381000D03*
X68580000Y-125222000D03*
X68580000Y-123063000D03*
%TD*%
D17*
%TO.C,D6*%
X30480000Y-129540000D03*
D18*
X30480000Y-127381000D03*
X30480000Y-125222000D03*
X30480000Y-123063000D03*
%TD*%
D17*
%TO.C,D5*%
X30480000Y-116840000D03*
D18*
X30480000Y-114681000D03*
X30480000Y-112522000D03*
X30480000Y-110363000D03*
%TD*%
D17*
%TO.C,D8*%
X43180000Y-104140000D03*
D18*
X43180000Y-101981000D03*
X43180000Y-99822000D03*
X43180000Y-97663000D03*
%TD*%
D17*
%TO.C,D4*%
X30480000Y-104140000D03*
D18*
X30480000Y-101981000D03*
X30480000Y-99822000D03*
X30480000Y-97663000D03*
%TD*%
D17*
%TO.C,D9*%
X55880000Y-91440000D03*
D18*
X55880000Y-89281000D03*
X55880000Y-87122000D03*
X55880000Y-84963000D03*
%TD*%
D17*
%TO.C,D3*%
X30480000Y-91440000D03*
D18*
X30480000Y-89281000D03*
X30480000Y-87122000D03*
X30480000Y-84963000D03*
%TD*%
D17*
%TO.C,D11*%
X68580000Y-78740000D03*
D18*
X68580000Y-76581000D03*
X68580000Y-74422000D03*
X68580000Y-72263000D03*
%TD*%
D17*
%TO.C,D2*%
X30480000Y-78740000D03*
D18*
X30480000Y-76581000D03*
X30480000Y-74422000D03*
X30480000Y-72263000D03*
%TD*%
D17*
%TO.C,D13*%
X81280000Y-66040000D03*
D18*
X81280000Y-63881000D03*
X81280000Y-61722000D03*
X81280000Y-59563000D03*
%TD*%
%TO.C,D1*%
X30480000Y-59563000D03*
X30480000Y-61722000D03*
X30480000Y-63881000D03*
D17*
X30480000Y-66040000D03*
%TD*%
D20*
%TO.C,C1*%
X37592000Y-61722000D03*
D19*
X37592000Y-63722000D03*
%TD*%
D21*
%TO.C,IC1*%
X34798000Y-55626000D03*
D11*
X50038000Y-48006000D03*
X37338000Y-55626000D03*
X47498000Y-48006000D03*
X39878000Y-55626000D03*
X44958000Y-48006000D03*
X42418000Y-55626000D03*
X42418000Y-48006000D03*
X44958000Y-55626000D03*
X39878000Y-48006000D03*
X47498000Y-55626000D03*
X37338000Y-48006000D03*
X50038000Y-55626000D03*
X34798000Y-48006000D03*
%TD*%
D12*
%TO.C,J1*%
X89264000Y-32766000D03*
D22*
X87264000Y-28266000D03*
X87264000Y-37266000D03*
D23*
X86264000Y-32766000D03*
D24*
X80264000Y-32766000D03*
%TD*%
D25*
%TO.C,C15*%
X82296000Y-46990000D03*
D26*
X87296000Y-46990000D03*
%TD*%
D20*
%TO.C,C16*%
X27432000Y-50800000D03*
D19*
X27432000Y-52800000D03*
%TD*%
M02*
