M48
; DRILL file {KiCad (5.1.9)-1} date 02/28/21 12:16:11
; FORMAT={-:-/ absolute / inch / decimal}
; #@! TF.CreationDate,2021-02-28T12:16:11-08:00
; #@! TF.GenerationSoftware,Kicad,Pcbnew,(5.1.9)-1
; #@! TF.FileFunction,Plated,1,2,PTH
FMAT,2
INCH
T1C0.0236
T2C0.0315
T3C0.0354
T4C0.0394
T5C0.0402
T6C0.0472
T7C0.0512
%
G90
G05
T1
X1.08Y-2.0
X1.08Y-2.0787
X1.48Y-2.43
X1.48Y-2.5087
X1.48Y-2.93
X1.48Y-3.0087
X1.48Y-3.43
X1.48Y-3.5087
X1.48Y-3.93
X1.48Y-4.0087
X1.48Y-4.43
X1.48Y-4.5087
X1.48Y-4.93
X1.48Y-5.0087
X1.48Y-5.43
X1.48Y-5.5087
X1.98Y-3.93
X1.98Y-4.0087
X2.48Y-3.43
X2.48Y-3.5087
X2.48Y-4.43
X2.48Y-4.5087
X2.98Y-2.93
X2.98Y-3.0087
X2.98Y-4.93
X2.98Y-5.0087
X3.48Y-2.43
X3.48Y-2.5087
X3.48Y-5.43
X3.48Y-5.5087
T2
X1.37Y-1.89
X1.37Y-2.19
X1.47Y-1.89
X1.47Y-2.19
X1.57Y-1.89
X1.57Y-2.19
X1.67Y-1.89
X1.67Y-2.19
X1.71Y-2.76
X1.77Y-1.89
X1.77Y-2.19
X1.87Y-1.89
X1.87Y-2.19
X1.97Y-1.89
X1.97Y-2.19
X2.11Y-2.76
T3
X1.2Y-2.345
X1.2Y-2.43
X1.2Y-2.515
X1.2Y-2.6
X1.2Y-2.845
X1.2Y-2.93
X1.2Y-3.015
X1.2Y-3.1
X1.2Y-3.345
X1.2Y-3.43
X1.2Y-3.515
X1.2Y-3.6
X1.2Y-3.845
X1.2Y-3.93
X1.2Y-4.015
X1.2Y-4.1
X1.2Y-4.345
X1.2Y-4.43
X1.2Y-4.515
X1.2Y-4.6
X1.2Y-4.845
X1.2Y-4.93
X1.2Y-5.015
X1.2Y-5.1
X1.2Y-5.345
X1.2Y-5.43
X1.2Y-5.515
X1.2Y-5.6
X1.7Y-3.845
X1.7Y-3.93
X1.7Y-4.015
X1.7Y-4.1
X2.2Y-3.345
X2.2Y-3.43
X2.2Y-3.515
X2.2Y-3.6
X2.2Y-4.345
X2.2Y-4.43
X2.2Y-4.515
X2.2Y-4.6
X2.7Y-2.845
X2.7Y-2.93
X2.7Y-3.015
X2.7Y-3.1
X2.7Y-4.845
X2.7Y-4.93
X2.7Y-5.015
X2.7Y-5.1
X3.2Y-2.345
X3.2Y-2.43
X3.2Y-2.515
X3.2Y-2.6
X3.2Y-5.345
X3.2Y-5.43
X3.2Y-5.515
X3.2Y-5.6
T5
X1.02Y-0.95
X1.02Y-1.65
X1.12Y-0.95
X1.12Y-1.65
X1.22Y-0.95
X1.22Y-1.65
X1.32Y-0.95
X1.32Y-1.65
X1.42Y-0.95
X1.42Y-1.65
X1.52Y-0.95
X1.52Y-1.65
X1.62Y-0.95
X1.62Y-1.65
X1.72Y-0.95
X1.72Y-1.65
X1.82Y-0.95
X1.82Y-1.65
X1.92Y-0.95
X1.92Y-1.65
X2.02Y-0.95
X2.02Y-1.65
X2.12Y-0.95
X2.12Y-1.65
X2.22Y-0.95
X2.22Y-1.65
X2.32Y-0.95
X2.32Y-1.65
X2.42Y-0.95
X2.42Y-1.65
X2.52Y-0.95
X2.52Y-1.65
X2.62Y-0.95
X2.62Y-1.65
X2.72Y-0.95
X2.72Y-1.65
X2.82Y-0.95
X2.82Y-1.65
X2.9109Y-1.2
X2.9109Y-1.3
X2.9109Y-1.4
X2.92Y-0.95
X2.92Y-1.65
T6
X3.24Y-1.85
X3.4369Y-1.85
T7
X2.25Y-2.08
X2.25Y-2.2769
X2.7421Y-2.08
X2.7421Y-2.2769
T4
G00X3.16Y-1.3294
M15
G01X3.16Y-1.2506
M16
G05
G00X3.3962Y-1.3156
M15
G01X3.3962Y-1.2644
M16
G05
G00X3.4061Y-1.1128
M15
G01X3.4651Y-1.1128
M16
G05
G00X3.4061Y-1.4672
M15
G01X3.4651Y-1.4672
M16
G05
T0
M30
